<?xml version="1.0" encoding="utf-8"?>
<!-- Generator: Adobe Illustrator 27.2.0, SVG Export Plug-In . SVG Version: 6.00 Build 0)  -->
<svg version="1.1" id="Layer_1" xmlns="http://www.w3.org/2000/svg" xmlns:xlink="http://www.w3.org/1999/xlink" x="0px" y="0px"
	 viewBox="0 0 1000 1000" style="enable-background:new 0 0 1000 1000;" xml:space="preserve">
<style type="text/css">
	.st0{fill:#0051FF;}
</style>
<g id="أزرق_00000065053147621507444400000000270647525996170674_">
	<g id="شعار_التواصل_الحكومي_00000061443364467847262750000010179887050074070417_">
		<g>
			<path class="st0" d="M639.2,635l7.8,4.1c0.7,0.4,1.6,0.1,1.9-0.7l7.6-17.4c0.3-0.7,0-1.6-0.8-1.8l-8.3-2.9
				c-24.2-8.5-48.1-17.9-71.8-27.9l0,0c-1.1-0.5-2.2,0.6-1.8,1.7c1,3.2,2,6.3,3,9.5c0.1,0.3,0.3,0.6,0.6,0.8
				C597.6,612.4,618.2,624,639.2,635z"/>
			<path class="st0" d="M709.8,613.8l8.6,2c0.8,0.2,1.5-0.3,1.7-1.1l3.5-18.1c0.1-0.8-0.4-1.5-1.1-1.6l-8.7-1.3
				c-49.3-7.6-98.3-18.1-146.6-31.6l0,0c-1.1-0.3-2,0.7-1.7,1.7c0.8,2.6,1.7,5.2,2.5,7.9c0.1,0.4,0.4,0.7,0.8,0.9
				C614.9,589,662,602.8,709.8,613.8z"/>
			<path class="st0" d="M610.3,558.3c17.6,3.3,35.2,6.2,53,8.8c35.4,5.1,71.1,8.8,106.9,11.1l8.5,0.5c1,0.1,1.8-0.7,1.8-1.6
				l0.6-17.5c0-1-0.7-1.8-1.7-1.8l-8.5-0.1c-35.3-0.4-70.7-2.2-105.9-5.4c-17.6-1.6-35.2-3.6-52.8-5.9c-17.6-2.3-35.1-5-52.6-8.1h0
				c-1.3-0.2-2.3,1-1.9,2.2c0.7,2.2,1.4,4.4,2.2,6.5c0.2,0.6,0.7,1,1.2,1.1C577.4,551.8,593.8,555.2,610.3,558.3z"/>
			<path class="st0" d="M618.4,532.3c22.4,2.1,44.9,3.5,67.5,4.4c45.1,1.8,90.3,1.3,135.4-1.6l8.3-0.5c1-0.1,1.8-1,1.7-2l-1.5-17
				c-0.1-1-1-1.8-2.1-1.7l-8.3,0.9c-44.2,4.7-88.8,7.1-133.4,7.1c-22.3,0-44.6-0.5-66.9-1.6c-22.3-1.1-44.6-2.9-66.8-5.1l-0.4,0
				c-1.3-0.1-2.4,1.2-1.9,2.4c0.7,2,1.3,3.9,2,5.9c0.2,0.7,0.8,1.2,1.5,1.3C575.1,527.7,596.7,530.3,618.4,532.3z"/>
			<path class="st0" d="M849.7,487.7l8.2-1.4c1-0.2,1.7-1.2,1.5-2.2l-3.1-16.8c-0.2-1-1.2-1.7-2.2-1.5l-8.2,1.7
				c-98.6,20.4-199.9,28.7-301,25.2l-0.6,0c-1.3,0-2.2,1.2-1.8,2.5c0.7,1.9,1.3,3.8,1.9,5.7c0.2,0.7,0.9,1.2,1.6,1.3
				C647.2,509.3,749.3,504.6,849.7,487.7z"/>
			<path class="st0" d="M720,387.2l7.8-2.8c1-0.4,1.5-1.5,1.1-2.4l-6.3-16c-0.4-1-1.5-1.4-2.5-1l-7.7,3.3
				c-61.4,26.1-125.1,47.1-190.2,63l-0.1,0c-1.1,0.3-1.7,1.4-1.3,2.4c0.7,1.8,1.4,3.9,1.9,5.3c0.3,0.9,1.2,1.4,2.1,1.2
				C590.8,427.8,656.7,410,720,387.2z"/>
			<path class="st0" d="M673.1,362.8l7.6-3.4c1-0.4,1.4-1.6,0.9-2.5l-7.6-15.6c-0.5-0.9-1.6-1.3-2.6-0.8
				c-50.4,27.2-102.6,51-156.5,71c-1,0.4-1.4,1.4-1.1,2.4c0.6,1.8,1.3,3.5,1.9,5.3c0.3,0.9,1.3,1.4,2.3,1.2
				C570.8,404.7,622.7,385.5,673.1,362.8z"/>
			<path class="st0" d="M641.9,333.9l7.2-4.2c0.9-0.5,1.2-1.7,0.6-2.6l-9.3-14.7c-0.6-0.9-1.8-1.1-2.6-0.5
				c-41.8,29-85.3,55.6-130.6,79.3c-0.8,0.4-1.2,1.4-0.9,2.3c0.7,1.8,1.3,3.6,2,5.3c0.4,1,1.5,1.5,2.5,1.1
				C555.7,380.6,599.5,358.6,641.9,333.9z"/>
			<path class="st0" d="M592.6,319.3l6.7-4.9c0.9-0.6,1-1.8,0.4-2.7l-11-13.7c-0.7-0.8-1.9-0.9-2.7-0.2
				c-27.9,25.2-56.9,49.2-87.1,71.7c-0.7,0.5-0.9,1.4-0.6,2.1c0.7,1.8,1.4,3.7,2.1,5.5c0.4,1.1,1.7,1.5,2.7,1
				C533.6,359.9,563.5,340.3,592.6,319.3z"/>
			<path class="st0" d="M555.4,299.9l5.9-5.8c0.8-0.8,0.7-2-0.1-2.7l-13.4-11.8c-0.8-0.7-2.1-0.6-2.7,0.3
				c-17.6,23-35.9,45.5-55.1,67.3c-0.5,0.5-0.6,1.2-0.3,1.9c0.8,2,1.5,4,2.3,6c0.5,1.2,2,1.6,3,0.8
				C515.7,337.9,535.9,319.3,555.4,299.9z"/>
			<path class="st0" d="M513.6,289.2c-6.6,12-13.4,23.8-20.4,35.5l-1.6,2.6c-0.5,0.8-1.5,1.1-2.3,0.8l-4.4-1.9
				c-0.9-0.4-1.3-1.3-1.1-2.2l0.8-3c3.5-13,6.8-26.1,9.8-39.1l1.8-8c0.3-1.1,1.4-1.7,2.5-1.3l17.8,6.8c1.1,0.4,1.5,1.6,1,2.6
				L513.6,289.2z"/>
			<path class="st0" d="M531.9,460.3c68.6-5.9,137.4-17.7,204.4-34.7c1-0.3,1.6-1.3,1.3-2.3l-4.6-16.6c-0.3-1-1.3-1.6-2.3-1.3
				c-65.5,20.6-132.8,36-201.1,45.6c-1.2,0.2-1.9,1.3-1.5,2.4c0.7,1.9,1.4,4.1,1.9,5.5C530.3,459.9,531,460.4,531.9,460.3z"/>
			<path class="st0" d="M565.8,480.7c81.1-1.4,159.5-10.1,238.2-26.3c1-0.2,1.7-1.2,1.4-2.2l-3.7-16.7c-0.2-1-1.3-1.7-2.3-1.4
				c-85.7,21.7-173.8,34.3-262.5,37.6c-1.2,0-2.1,1.3-1.7,2.5c0.6,1.9,1.3,3.7,1.9,5.6c0.3,0.7,1,1.3,1.8,1.3
				C547.9,480.9,556.9,480.8,565.8,480.7z"/>
		</g>
		<g>
			<g>
				<g>
					<path class="st0" d="M423.6,727.6c-13.3,0-21.9-9.4-21.9-24v-7.1c0-14.6,8.6-24,21.9-24h15.9c0.5,0,0.9,0.4,0.9,0.9v6.6
						c0,0.5-0.4,0.9-0.9,0.9l-15.9-0.7c-8.4,0-13.2,5.9-13.2,16.2v7.1c0,10.3,4.8,16.2,13.2,16.2h10.5c0.4,0,0.6-0.3,0.6-0.6v-12.7
						c0-0.6-0.5-1-1.1-0.9l-11.3,1.1c-0.6,0.1-1.1-0.4-1.1-0.9v-7.1c0-0.5,0.4-0.9,0.9-0.9h18.9c0.5,0,0.9,0.4,0.9,0.9v28.5
						c0,0.4-0.3,0.6-0.6,0.6H423.6z"/>
				</g>
			</g>
			<path class="st0" d="M453.9,631.8h-9.3c-1.4-2.3-3.7-7.3-5.5-10.2c-8.4-13.9-13.9-22-27.5-22h-8.7c-0.3,0-0.5,0.2-0.5,0.5v7.6
				c0,0.3,0.3,0.5,0.6,0.5l7.5-0.9c0.9-0.1,1.8-0.2,2.8-0.1c7.2,0.6,10.4,5.4,18.5,18.8c0.8,1.4,1.8,4.1,2.8,5.7h-40.7
				c-0.8-10.9-5.6-24-27.1-24h-39c-0.2,0-0.3-0.2-0.1-0.3l15.4-15c0.3-0.3,0.3-0.7,0-1l-6.6-6.7c-0.3-0.3-0.8-0.3-1.1,0l-20.6,24.4
				c-0.1,0.1-0.1,0.3,0,0.4l3.1,5.6c0.1,0.1,0.2,0.2,0.3,0.2h48.5c13.5,0,17.6,7.3,18.4,16.4c-13.7,0-54.3,0-79.1,0
				c0.2-10.5-4-21.4-9.6-26.9c-3.6-3.5-8-5.1-12.4-4.4c-4.2,0.6-7.8,2.8-10.4,6.5c-4.2,5.8-5.3,13.9-4.4,19.3
				c1.3,7.8,8,13.1,16.8,13.1c0.7,0,4,0,8.9,0c-1.8,4.8-6.7,9-21.9,9.1c-0.4,0-0.7,0.3-0.7,0.7v6.3c0,0.4,0.3,0.7,0.7,0.7
				c16.1-0.1,28.6-3.1,32-16.7c28.7,0,150.5,0,157.6,0c0.2,0,0.3-0.1,0.3-0.3l1.1-54.7c0-0.3-0.2-0.5-0.5-0.5h-9.8
				c-0.3,0-0.5,0.2-0.5,0.5l1.1,47.1C454.2,631.6,454.1,631.8,453.9,631.8z M296.3,631.8c-5.7,0-9.5,0-10.3,0
				c-3.4,0-7.6-2.6-8.3-6.9c-0.6-3.7,0.2-9.2,2.8-12.8c1.3-1.8,2.8-2.8,4.7-3c0.2,0,0.5-0.1,0.7-0.1c1.5,0,3,0.7,4.4,2.1
				C293.7,614.3,296.5,622.5,296.3,631.8z"/>
			<path class="st0" d="M474.2,639.3h7.7c0.3,0,0.5-0.2,0.5-0.5l1.1-54.5c0-0.3-0.2-0.5-0.5-0.5h-9.8c-0.3,0-0.5,0.2-0.5,0.5
				l1.1,54.5C473.7,639.1,473.9,639.3,474.2,639.3z"/>
			<path class="st0" d="M182.3,646.7c-0.5,0-0.9,0.4-0.9,0.9l0,7.7c0,0.5,0.4,0.9,0.9,0.9h7.7c0.5,0,0.9-0.4,0.9-0.9v-7.7
				c0-0.5-0.4-0.9-0.9-0.9L182.3,646.7z"/>
			<path class="st0" d="M166,646.7c-0.5,0-0.9,0.4-0.9,0.9l0,7.7c0,0.5,0.4,0.9,0.9,0.9l7.7,0c0.5,0,0.9-0.4,0.9-0.9l0-7.7
				c0-0.5-0.4-0.9-0.9-0.9L166,646.7z"/>
			<path class="st0" d="M442.6,516.4c0.5,0,0.9-0.4,0.9-0.9l0-7.7c0-0.5-0.4-0.9-0.9-0.9l-7.7,0c-0.5,0-0.9,0.4-0.9,0.9l0,7.7
				c0,0.5,0.4,0.9,0.9,0.9L442.6,516.4z"/>
			<path class="st0" d="M426.2,516.4c0.5,0,0.9-0.4,0.9-0.9l0-7.7c0-0.5-0.4-0.9-0.9-0.9l-7.7,0c-0.5,0-0.9,0.4-0.9,0.9l0,7.7
				c0,0.5,0.4,0.9,0.9,0.9L426.2,516.4z"/>
			<path class="st0" d="M453.8,550.5h-18.3c-0.2,0-0.4-0.2-0.4-0.4l1-25.7c0-0.3-0.2-0.6-0.6-0.6h-9.7c-0.3,0-0.6,0.3-0.5,0.6
				l1.1,25.6c0,0.2-0.1,0.4-0.4,0.4c-4.6,0-11.1,0-18.2,0c0.5-10.6-3.6-21.4-9.3-26.9c-3.6-3.5-8.1-5.1-12.7-4.5
				c-4.2,0.6-7.8,2.8-10.4,6.5c-4.2,5.8-5.3,13.9-4.4,19.3c1.3,7.8,8,13.1,16.8,13.1c1.1,0,4.4,0,8.5,0c-2.1,4.7-7.3,9-21.6,9.1
				c-0.3,0-0.6,0.3-0.6,0.6l0,6.3c0,0.3,0.3,0.6,0.6,0.6c18-0.1,28.6-5.2,31.7-16.7c7.7,0,55.8,0,55.8,0c0.3,0,0.5-0.2,0.6-0.5
				l1.1-54.2c0-0.4-0.3-0.8-0.8-0.8H454c-0.4,0-0.8,0.4-0.8,0.8l1.1,46.8C454.2,550.3,454,550.5,453.8,550.5z M398,550.4
				c-5,0-8.9,0-10.2,0c-3.4,0-7.6-2.7-8.3-7c-0.6-3.7,0.2-9.2,2.8-12.8c1.3-1.8,2.8-2.8,4.7-3c0.3,0,0.5-0.1,0.8-0.1
				c1.6,0,3.2,0.7,4.6,2.1C396.4,533.5,398.5,542.2,398,550.4z"/>
			<path class="st0" d="M237.5,574.6c10.2,0,17.2-3.4,20.7-10.1c1.1-2.1,1.8-4.3,2.2-6.6H342c0.3,0,0.5-0.2,0.5-0.5v-3.8
				c0-18-2.5-29.9-15.1-33.1c-13.9-3.6-28.1,10.9-38.3,22.8l1.1-19c0-0.3-0.2-0.5-0.5-0.5h-9.9c-0.3,0-0.5,0.2-0.5,0.5l1,25.7
				c0,0.2-0.2,0.4-0.4,0.4h-19l1.1-47.5c0-0.3-0.2-0.5-0.5-0.5h-9.8c-0.3,0-0.5,0.2-0.5,0.5l1.1,43c0,5.4,0,11-1.9,14.7
				c-1.2,2.3-3.9,6.5-13,6.5c-15.4,0-13-16-12.5-21.4c0-0.3-0.2-0.6-0.6-0.6h-9.8c-0.3,0-0.6,0.3-0.6,0.6c0,6.3,0.1,13.5,2.9,18.9
				C220.4,571.2,227.3,574.6,237.5,574.6z M325.3,528.9c4.3,1.1,5.8,4.7,6.3,21.5h-38.1C310.4,529.3,321.2,527.9,325.3,528.9z"/>
			<path class="st0" d="M472.7,503.2l1.1,54.1c0,0.3,0.2,0.5,0.5,0.5h7.6c0.3,0,0.5-0.2,0.5-0.5l1.1-54.1c0-0.4-0.3-0.8-0.8-0.8
				h-9.2C473,502.4,472.6,502.8,472.7,503.2z"/>
			<path class="st0" d="M241.7,600.1c-6.9,0-40.3,0.1-44.4,0.1c-0.3,0-0.5,0.1-0.6,0.4l-2.8,5.3c-0.1,0.3-0.1,0.6,0.1,0.8
				c5.9,6.8,9.4,14.8,10.3,19.3c0.2,1.2,1.6,5.8-3.9,5.8h-36.3c-12.5,0-12.5-6.2-12.7-17.5c0-0.9,0-4.7,0-6.3c0-0.5-0.4-0.9-0.9-0.9
				h-9c-0.5,0-0.9,0.4-0.9,0.9c0,1.6,0,5.4,0,6.4c0.1,8.1,0.4,25,23.5,25h36.3c15.2,0,14.2-11.3,13.4-15.1c-1-4.8-3.5-11-7.1-16.5
				c6,0,14.2,0,21.2,0c-4.1,6.1-6,14.6-4.6,20.8c1.2,5.2,5.1,11.3,17.4,11.3c5.3,0,19.5,0,19.5-14.9
				C260.2,612.2,253.3,600.1,241.7,600.1z M240.7,632.2c-8,0-8.6-4-9-5.6c-0.8-3.6,0.4-10,3.7-14.6c1.3-1.8,3.5-4,6.5-4.3
				c6.3,0.2,8.5,10.1,8.5,17.2C250.5,628.1,251.5,632.2,240.7,632.2z"/>
			<g>
				<path class="st0" d="M361.5,502.4h-9.8c-0.3,0-0.5,0.2-0.5,0.5l1.1,54.4c0,0.3,0.2,0.5,0.5,0.5h7.6c0.3,0,0.5-0.2,0.5-0.5
					L362,503C362,502.7,361.8,502.4,361.5,502.4z"/>
			</g>
			<g>
				<path class="st0" d="M450.7,703.6c0,14.6,8.6,24,21.9,24c3,0,7.9,0.1,9.9,0.1c0.5,0,0.9-0.4,0.9-0.9V720c0-0.5-0.4-0.9-0.9-0.9
					c-1.9,0-6.4,0.7-9.9,0.7c-8.4,0-13.2-5.9-13.2-16.2l0-7.3c0-10.3,4.8-16.2,13.2-16.2c3.5,0,8,0.7,9.9,0.7c0.5,0,0.9-0.4,0.9-0.9
					v-6.7c0-0.5-0.4-0.9-0.9-0.9c-2,0-6.9,0.1-9.9,0.1c-13.3,0-21.9,9.4-21.9,24L450.7,703.6z"/>
				<path class="st0" d="M360.3,703.5c0,14.6,8.6,24,21.9,24c3,0,7.9,0.1,9.9,0.1c0.5,0,0.9-0.4,0.9-0.9V720c0-0.5-0.4-0.9-0.9-0.9
					c-1.9,0-6.4,0.7-9.9,0.7c-8.4,0-13.2-5.9-13.2-16.2l0-7.2c0-10.3,4.8-16.2,13.2-16.2c3.5,0,8,0.7,9.9,0.7c0.5,0,0.9-0.4,0.9-0.9
					v-6.7c0-0.5-0.4-0.9-0.9-0.9c-2,0-6.9,0.1-9.9,0.1c-13.3,0-21.9,9.4-21.9,24L360.3,703.5z"/>
			</g>
		</g>
	</g>
</g>
</svg>
