<?xml version="1.0" encoding="utf-8"?>
<!-- Generator: Adobe Illustrator 28.0.0, SVG Export Plug-In . SVG Version: 6.00 Build 0)  -->
<svg version="1.1" id="Layer_1" xmlns="http://www.w3.org/2000/svg" xmlns:xlink="http://www.w3.org/1999/xlink" x="0px" y="0px"
	 viewBox="0 0 1000 1000" style="enable-background:new 0 0 1000 1000;" xml:space="preserve">
<style type="text/css">
	.st0{fill:#000075;}
	.st1{fill:url(#SVGID_1_);}
	.st2{fill:url(#SVGID_00000126299244857517450200000001565497250036955272_);}
	.st3{fill:url(#SVGID_00000007404920996525115580000009684942932673516179_);}
	.st4{fill:url(#SVGID_00000035513664536123125580000003068872206450201482_);}
	.st5{fill:url(#SVGID_00000007404187122831652180000008701380277798236291_);}
	.st6{fill:url(#SVGID_00000088844719699814450160000003216930997269013391_);}
	.st7{fill:url(#SVGID_00000171713711346164046230000010393179294082304442_);}
	.st8{fill:url(#SVGID_00000155108614289943986590000008430485809743558558_);}
	.st9{fill:url(#SVGID_00000111184902110996835200000004337511194197520032_);}
	.st10{fill:url(#SVGID_00000052073337514826297080000005819035277011152263_);}
	.st11{fill:url(#SVGID_00000083060935528785293100000003375571487654854784_);}
	.st12{fill:url(#SVGID_00000087396130870193576850000013304193383939511724_);}
	.st13{fill:url(#SVGID_00000076569490752722914000000008863080818051734414_);}
	.st14{fill:url(#SVGID_00000183957100124223686600000016482706648001167271_);}
	.st15{fill:url(#SVGID_00000001645737132867355070000003392954630824694936_);}
	.st16{fill:url(#SVGID_00000047044221920849120660000005439292045303594130_);}
	.st17{fill:url(#SVGID_00000126288490899742878820000018128433896878735288_);}
	.st18{fill:url(#SVGID_00000145746349972412861450000013379875666354418058_);}
	.st19{fill:url(#SVGID_00000181799381904953221250000003922594485399416763_);}
	.st20{fill:url(#SVGID_00000067231961781107071740000016609357140558770319_);}
	.st21{fill:url(#SVGID_00000047751138058692546790000017232556692861210500_);}
	.st22{fill:url(#SVGID_00000055668230909528947580000012392558985903445928_);}
	.st23{fill:url(#SVGID_00000146471383772134315080000013130573826418857376_);}
	.st24{fill:url(#SVGID_00000021835901054007826020000000654297761690716837_);}
	.st25{fill:url(#SVGID_00000005972294397936209800000004028190469069155733_);}
	.st26{fill:url(#SVGID_00000011737621185100842250000016592450524008682369_);}
	.st27{fill:url(#SVGID_00000075882641036335943790000005369548612377005746_);}
	.st28{fill:url(#SVGID_00000019674447282179225670000016677337275366881449_);}
	.st29{fill:url(#SVGID_00000031181606570100853520000000510999555911531967_);}
	.st30{fill:url(#SVGID_00000042728088313497135960000016659095882798213022_);}
	.st31{fill:url(#SVGID_00000125573556465339388020000009701839469249854652_);}
</style>
<g>
	<path class="st0" d="M280.4,541.3h-1.1c-7.7,0-13.6,3.2-19.4,7.7c-0.9-5.2-1.2-10.3-1.2-14.8c0-5.1,0.4-9.4,0.6-12.2
		c2.2,1.4,2.8,4.2,2.8,6.7c0,2.1-0.5,3.9-0.7,4.7c2.3-2.8,3-5.6,3-8.1c0-2.8-0.9-5.1-1.4-6c3.6,2.9,4.2,6.6,4.2,9.4
		c0,0.6,0,1.3-0.1,1.7c0.7-1.4,1.3-3.2,1.3-5.2c0-2.9-1.2-6.3-4.4-9.2c5,1.2,7,5.8,7,9.4c0,2.4,0,2.5,0.1,0.2
		c0.4-1.2,0.5-2.3,0.5-3.2c0-1.3-0.2-2.3-0.6-3.2c-1.4-3.8-5.3-5.4-7.2-5.8c0.5-0.1,0.9-0.1,1.3-0.1c2.9,0,4.7,0.9,5.8,2
		c0.8,0.7,1.3,1.4,1.5,1.7c-0.2-1.4-0.7-2.6-1.5-3.6c-1.5-1.9-3.9-2.8-6.3-2.8c-0.9,0-1.9,0.2-2.7,0.5c1.2-1.7,3.1-2.3,4.9-2.3
		c0.8,0,1.6,0.2,2.1,0.5c-1.3-1.5-3.1-2.3-4.7-2.3c-1.7,0-3.6,0.9-4.9,2.8c-0.2-0.5-0.6-0.9-0.7-1.5c-0.5-0.9-0.7-2-0.9-3
		c0-0.1-0.1-0.2-0.2-0.2c-0.1,0-0.2,0.1-0.2,0.2c-0.2,1.1-0.6,2.1-0.9,3c-0.2,0.6-0.6,1.1-0.8,1.5c-1.3-1.9-3-2.8-4.7-2.8
		c-1.7,0-3.5,0.8-4.7,2.4c0.6-0.2,1.3-0.5,2.2-0.5c1.7,0,3.6,0.7,4.6,2.4c-0.8-0.4-1.7-0.6-2.8-0.6c-2.2,0-4.6,0.9-6.2,2.7
		c-0.8,0.9-1.3,2.1-1.4,3.6c0.2-0.4,0.6-1.1,1.4-1.7c1.1-0.9,2.8-2,5.7-2c0.5,0,0.9,0,1.5,0.1c-1.9,0.2-5.8,1.9-7.2,5.8
		c-0.4,0.9-0.6,2-0.6,3.1c0,0.9,0.2,2.1,0.6,3.4v-0.2c0.1-3.6,2.1-8.1,7.1-9.3c-3.2,2.9-4.5,6.2-4.5,9.2c0,2.1,0.6,3.8,1.3,5.3
		c-0.1-0.6-0.1-1.3-0.1-2c0-2.7,0.6-6.3,4.2-9c-0.6,0.9-1.5,3.1-1.5,5.9c0,2.4,0.7,5.3,3,8.1c-0.4-0.9-0.8-2.8-0.8-4.7
		c0-2.6,0.6-5.3,2.9-6.7c0.2,2.8,0.6,7,0.6,11.9c0,4.5-0.2,9.6-1.2,14.9c-5.8-4.5-11.8-7.7-19.4-7.7h-1.1c-3.9,0.2-7.8,1.3-10.6,2.9
		l-0.1,0.1c0,0,0,0.1,0.1,0.1l0,0c2.7-0.8,5.4-1.3,8.2-1.3c0.8,0,1.6,0,2.3,0.1c3.4,0.2,6.5,1.3,9.4,2.6c4,1.9,7.8,4.5,11.1,7.3
		c-2.1,1.7-9.2,8.5-11.5,9.7c-0.5-0.6-1.3-1.1-2.1-1.1c-0.2,0-0.4,0-0.6,0.1c-0.9,0.2-1.7,0.9-2,2c-0.1,0.2-0.1,0.5-0.1,0.6
		c0,0.6,0.2,1.3,0.6,1.6c0.8,0.8,1.6,1.2,2.6,1.2c0.6,0,1.3-0.2,2-0.5c3.2-1.3,7.3-5.7,12.4-10.3c0.5-0.4,0.9-0.8,1.3-1.2
		c0.5,0.5,0.9,0.8,1.3,1.2c5.1,4.6,9.2,8.8,12.4,10.3c0.7,0.2,1.3,0.5,2,0.5c0.9,0,1.7-0.4,2.6-1.2c0.4-0.4,0.6-0.9,0.6-1.6
		c0-0.2,0-0.5-0.1-0.6c-0.2-0.9-0.9-1.7-2-2c-0.2,0-0.4-0.1-0.6-0.1c-0.9,0-1.6,0.5-2.1,1.1c-2.3-1.2-9.5-8-11.5-9.7
		c3.4-2.8,7-5.4,11.1-7.3c2.9-1.3,6-2.2,9.4-2.6c0.8-0.1,1.6-0.1,2.3-0.1c2.8,0,5.4,0.5,8.2,1.3l0,0l0.1-0.1c0,0,0-0.1-0.1-0.1
		c-2.8-1.7-6.6-2.8-10.5-3L280.4,541.3z"/>
	
		<linearGradient id="SVGID_1_" gradientUnits="userSpaceOnUse" x1="41.4233" y1="634.1896" x2="303.2795" y2="315.1544" gradientTransform="matrix(1 3.141588e-03 3.141588e-03 -1 -12.8504 928.0025)">
		<stop  offset="0" style="stop-color:#00C200"/>
		<stop  offset="4.000000e-02" style="stop-color:#00C100"/>
		<stop  offset="0.1" style="stop-color:#00BD00"/>
		<stop  offset="0.17" style="stop-color:#00B704"/>
		<stop  offset="0.24" style="stop-color:#00AF52"/>
		<stop  offset="0.32" style="stop-color:#00A58C"/>
		<stop  offset="0.38" style="stop-color:#009CBD"/>
		<stop  offset="1" style="stop-color:#002375"/>
	</linearGradient>
	<polygon class="st1" points="104,459.8 105.3,460.9 178.8,399.8 168.1,395.2 	"/>
	
		<linearGradient id="SVGID_00000019652939187034642300000007738592826265298068_" gradientUnits="userSpaceOnUse" x1="108.4209" y1="671.7342" x2="348.9799" y2="378.6703" gradientTransform="matrix(1 3.141588e-03 3.141588e-03 -1 -12.8504 928.0025)">
		<stop  offset="0" style="stop-color:#00C200"/>
		<stop  offset="4.000000e-02" style="stop-color:#00C100"/>
		<stop  offset="0.1" style="stop-color:#00BD00"/>
		<stop  offset="0.17" style="stop-color:#00B704"/>
		<stop  offset="0.24" style="stop-color:#00AF52"/>
		<stop  offset="0.32" style="stop-color:#00A58C"/>
		<stop  offset="0.38" style="stop-color:#009CBD"/>
		<stop  offset="1" style="stop-color:#002375"/>
	</linearGradient>
	<polygon style="fill:url(#SVGID_00000019652939187034642300000007738592826265298068_);" points="183.7,395.6 178.8,399.8 
		248.8,431.2 273.3,428.2 	"/>
	
		<linearGradient id="SVGID_00000042727103079334899640000003033770483939926198_" gradientUnits="userSpaceOnUse" x1="87.4883" y1="654.5309" x2="328.0123" y2="361.5022" gradientTransform="matrix(1 3.141588e-03 3.141588e-03 -1 -12.8504 928.0025)">
		<stop  offset="0" style="stop-color:#00C200"/>
		<stop  offset="4.000000e-02" style="stop-color:#00C100"/>
		<stop  offset="0.1" style="stop-color:#00BD00"/>
		<stop  offset="0.17" style="stop-color:#00B704"/>
		<stop  offset="0.24" style="stop-color:#00AF52"/>
		<stop  offset="0.32" style="stop-color:#00A58C"/>
		<stop  offset="0.38" style="stop-color:#009CBD"/>
		<stop  offset="1" style="stop-color:#002375"/>
	</linearGradient>
	<polygon style="fill:url(#SVGID_00000042727103079334899640000003033770483939926198_);" points="171.9,391.4 168.1,395.2 
		178.8,399.8 183.7,395.6 	"/>
	
		<linearGradient id="SVGID_00000077282807815220446550000012690086002579489152_" gradientUnits="userSpaceOnUse" x1="46.1488" y1="406.8614" x2="331.3756" y2="544.9764" gradientTransform="matrix(1 3.141588e-03 3.141588e-03 -1 -12.8504 928.0025)">
		<stop  offset="0" style="stop-color:#00C200"/>
		<stop  offset="0.4" style="stop-color:#009CBD"/>
		<stop  offset="0.52" style="stop-color:#0086AF"/>
		<stop  offset="0.78" style="stop-color:#004E8E"/>
		<stop  offset="0.95" style="stop-color:#002375"/>
	</linearGradient>
	<polygon style="fill:url(#SVGID_00000077282807815220446550000012690086002579489152_);" points="191.3,438.2 193.1,445.2 
		210.7,444.5 202.6,436.8 	"/>
	
		<linearGradient id="SVGID_00000115498581147473522000000003075330966643733900_" gradientUnits="userSpaceOnUse" x1="53.108" y1="392.4861" x2="338.3348" y2="530.6011" gradientTransform="matrix(1 3.141588e-03 3.141588e-03 -1 -12.8504 928.0025)">
		<stop  offset="0" style="stop-color:#00C200"/>
		<stop  offset="0.4" style="stop-color:#009CBD"/>
		<stop  offset="0.52" style="stop-color:#0086AF"/>
		<stop  offset="0.78" style="stop-color:#004E8E"/>
		<stop  offset="0.95" style="stop-color:#002375"/>
	</linearGradient>
	<polygon style="fill:url(#SVGID_00000115498581147473522000000003075330966643733900_);" points="273,442.1 248.8,431.2 
		213.4,435.5 222.7,444.1 	"/>
	
		<linearGradient id="SVGID_00000080896089876347916870000018239795641463692975_" gradientUnits="userSpaceOnUse" x1="40.2095" y1="419.0913" x2="325.4715" y2="557.2064" gradientTransform="matrix(1 3.141588e-03 3.141588e-03 -1 -12.8504 928.0025)">
		<stop  offset="0" style="stop-color:#00C200"/>
		<stop  offset="0.4" style="stop-color:#009CBD"/>
		<stop  offset="0.52" style="stop-color:#0086AF"/>
		<stop  offset="0.78" style="stop-color:#004E8E"/>
		<stop  offset="0.95" style="stop-color:#002375"/>
	</linearGradient>
	<polygon style="fill:url(#SVGID_00000080896089876347916870000018239795641463692975_);" points="184.5,445.6 183.3,439.1 
		139.5,444.4 141.1,447.4 	"/>
	
		<linearGradient id="SVGID_00000003066600252855455400000013830794785856209310_" gradientUnits="userSpaceOnUse" x1="55.6102" y1="387.3405" x2="340.8371" y2="525.4556" gradientTransform="matrix(1 3.141588e-03 3.141588e-03 -1 -12.8504 928.0025)">
		<stop  offset="0" style="stop-color:#00C200"/>
		<stop  offset="0.4" style="stop-color:#009CBD"/>
		<stop  offset="0.52" style="stop-color:#0086AF"/>
		<stop  offset="0.78" style="stop-color:#004E8E"/>
		<stop  offset="0.95" style="stop-color:#002375"/>
	</linearGradient>
	<polygon style="fill:url(#SVGID_00000003066600252855455400000013830794785856209310_);" points="273.3,428.2 248.8,431.2 
		273,442.1 	"/>
	
		<linearGradient id="SVGID_00000075137319196519173930000001666901331378935706_" gradientUnits="userSpaceOnUse" x1="72.869" y1="344.4585" x2="365.4409" y2="486.1231" gradientTransform="matrix(1 3.141588e-03 3.141588e-03 -1 -12.8504 928.0025)">
		<stop  offset="0" style="stop-color:#00C200"/>
		<stop  offset="0.4" style="stop-color:#009CBD"/>
		<stop  offset="0.5" style="stop-color:#0082AD"/>
		<stop  offset="0.73" style="stop-color:#00508F"/>
		<stop  offset="0.9" style="stop-color:#002F7C"/>
		<stop  offset="1" style="stop-color:#002375"/>
	</linearGradient>
	<polygon style="fill:url(#SVGID_00000075137319196519173930000001666901331378935706_);" points="141.1,447.4 135.6,447.5 
		218.4,608.6 209.2,564.3 	"/>
	
		<linearGradient id="SVGID_00000026157231759922517590000002791676823521376420_" gradientUnits="userSpaceOnUse" x1="33.6471" y1="425.4328" x2="326.219" y2="567.0974" gradientTransform="matrix(1 3.141588e-03 3.141588e-03 -1 -12.8504 928.0025)">
		<stop  offset="0" style="stop-color:#00C200"/>
		<stop  offset="0.4" style="stop-color:#009CBD"/>
		<stop  offset="0.5" style="stop-color:#0082AD"/>
		<stop  offset="0.73" style="stop-color:#00508F"/>
		<stop  offset="0.9" style="stop-color:#002F7C"/>
		<stop  offset="1" style="stop-color:#002375"/>
	</linearGradient>
	<polygon style="fill:url(#SVGID_00000026157231759922517590000002791676823521376420_);" points="139.5,444.4 135.6,447.5 
		141.1,447.4 	"/>
	
		<linearGradient id="SVGID_00000152265791205308961660000008872445708224366480_" gradientUnits="userSpaceOnUse" x1="106.9945" y1="657.6762" x2="327.4514" y2="264.8391" gradientTransform="matrix(1 3.141588e-03 3.141588e-03 -1 -12.8504 928.0025)">
		<stop  offset="0.17" style="stop-color:#009CBD"/>
		<stop  offset="0.29" style="stop-color:#0096B9"/>
		<stop  offset="0.46" style="stop-color:#0083AE"/>
		<stop  offset="0.66" style="stop-color:#00679D"/>
		<stop  offset="0.88" style="stop-color:#003E84"/>
		<stop  offset="1" style="stop-color:#002375"/>
	</linearGradient>
	<polygon style="fill:url(#SVGID_00000152265791205308961660000008872445708224366480_);" points="187.2,421.9 177.7,412.8 
		183.3,439.1 191.3,438.2 	"/>
	
		<linearGradient id="SVGID_00000176041034783923445210000003560417126706525075_" gradientUnits="userSpaceOnUse" x1="87.6125" y1="646.8068" x2="308.0693" y2="253.9697" gradientTransform="matrix(1 3.141588e-03 3.141588e-03 -1 -12.8504 928.0025)">
		<stop  offset="0.17" style="stop-color:#009CBD"/>
		<stop  offset="0.29" style="stop-color:#0096B9"/>
		<stop  offset="0.46" style="stop-color:#0083AE"/>
		<stop  offset="0.66" style="stop-color:#00679D"/>
		<stop  offset="0.88" style="stop-color:#003E84"/>
		<stop  offset="1" style="stop-color:#002375"/>
	</linearGradient>
	<polygon style="fill:url(#SVGID_00000176041034783923445210000003560417126706525075_);" points="209.2,564.3 232.6,604.5 
		193.1,445.2 184.5,445.6 	"/>
	
		<linearGradient id="SVGID_00000145050549012878339450000006584704151828923530_" gradientUnits="userSpaceOnUse" x1="104.186" y1="656.1118" x2="324.6429" y2="263.2748" gradientTransform="matrix(1 3.141588e-03 3.141588e-03 -1 -12.8504 928.0025)">
		<stop  offset="0.17" style="stop-color:#009CBD"/>
		<stop  offset="0.29" style="stop-color:#0096B9"/>
		<stop  offset="0.46" style="stop-color:#0083AE"/>
		<stop  offset="0.66" style="stop-color:#00679D"/>
		<stop  offset="0.88" style="stop-color:#003E84"/>
		<stop  offset="1" style="stop-color:#002375"/>
	</linearGradient>
	<polygon style="fill:url(#SVGID_00000145050549012878339450000006584704151828923530_);" points="183.3,439.1 184.5,445.6 
		193.1,445.2 191.3,438.2 	"/>
	
		<linearGradient id="SVGID_00000078041131944911906290000006691384510711892368_" gradientUnits="userSpaceOnUse" x1="62.946" y1="632.9626" x2="283.4029" y2="240.1256" gradientTransform="matrix(1 3.141588e-03 3.141588e-03 -1 -12.8504 928.0025)">
		<stop  offset="0.17" style="stop-color:#009CBD"/>
		<stop  offset="0.29" style="stop-color:#0096B9"/>
		<stop  offset="0.46" style="stop-color:#0083AE"/>
		<stop  offset="0.66" style="stop-color:#00679D"/>
		<stop  offset="0.88" style="stop-color:#003E84"/>
		<stop  offset="1" style="stop-color:#002375"/>
	</linearGradient>
	<polygon style="fill:url(#SVGID_00000078041131944911906290000006691384510711892368_);" points="218.4,608.6 232.6,604.5 
		209.2,564.3 	"/>
	
		<linearGradient id="SVGID_00000023985333239076327200000009706581014781831563_" gradientUnits="userSpaceOnUse" x1="401.1856" y1="343.5901" x2="-10.7696" y2="650.817" gradientTransform="matrix(1 3.141588e-03 3.141588e-03 -1 -12.8504 928.0025)">
		<stop  offset="0" style="stop-color:#00C200"/>
		<stop  offset="0.34" style="stop-color:#009CBD"/>
		<stop  offset="1" style="stop-color:#002375"/>
	</linearGradient>
	<polygon style="fill:url(#SVGID_00000023985333239076327200000009706581014781831563_);" points="222.7,444.1 210.7,444.5 
		320.6,550.4 331.5,544.9 	"/>
	
		<linearGradient id="SVGID_00000046340874946507757770000002451509016656742545_" gradientUnits="userSpaceOnUse" x1="408.8091" y1="353.8134" x2="-3.111" y2="661.0402" gradientTransform="matrix(1 3.141588e-03 3.141588e-03 -1 -12.8504 928.0025)">
		<stop  offset="0" style="stop-color:#00C200"/>
		<stop  offset="0.34" style="stop-color:#009CBD"/>
		<stop  offset="1" style="stop-color:#002375"/>
	</linearGradient>
	<polygon style="fill:url(#SVGID_00000046340874946507757770000002451509016656742545_);" points="202.6,436.8 213.4,435.5 
		183.7,408 187.2,421.9 	"/>
	
		<linearGradient id="SVGID_00000014604112293687409530000011760944290231375536_" gradientUnits="userSpaceOnUse" x1="395.7753" y1="336.3529" x2="-16.1449" y2="643.5797" gradientTransform="matrix(1 3.141588e-03 3.141588e-03 -1 -12.8504 928.0025)">
		<stop  offset="0" style="stop-color:#00C200"/>
		<stop  offset="0.34" style="stop-color:#009CBD"/>
		<stop  offset="1" style="stop-color:#002375"/>
	</linearGradient>
	<polygon style="fill:url(#SVGID_00000014604112293687409530000011760944290231375536_);" points="332.6,562.2 345.9,558 
		336.5,549.4 325.7,555.4 	"/>
	
		<linearGradient id="SVGID_00000148633327335332723200000016297717323164156076_" gradientUnits="userSpaceOnUse" x1="407.171" y1="351.6176" x2="-4.7491" y2="658.8444" gradientTransform="matrix(1 3.141588e-03 3.141588e-03 -1 -12.8504 928.0025)">
		<stop  offset="0" style="stop-color:#00C200"/>
		<stop  offset="0.34" style="stop-color:#009CBD"/>
		<stop  offset="1" style="stop-color:#002375"/>
	</linearGradient>
	<polygon style="fill:url(#SVGID_00000148633327335332723200000016297717323164156076_);" points="213.4,435.5 202.6,436.8 
		210.7,444.5 222.7,444.1 	"/>
	
		<linearGradient id="SVGID_00000033332026481211945720000004962980694616660143_" gradientUnits="userSpaceOnUse" x1="409.5835" y1="354.8692" x2="-2.3366" y2="662.0961" gradientTransform="matrix(1 3.141588e-03 3.141588e-03 -1 -12.8504 928.0025)">
		<stop  offset="0" style="stop-color:#00C200"/>
		<stop  offset="0.34" style="stop-color:#009CBD"/>
		<stop  offset="1" style="stop-color:#002375"/>
	</linearGradient>
	<polygon style="fill:url(#SVGID_00000033332026481211945720000004962980694616660143_);" points="183.7,408 177.7,412.8 
		187.2,421.9 	"/>
	
		<linearGradient id="SVGID_00000062161092350586079550000013995088931964807579_" gradientUnits="userSpaceOnUse" x1="395.0139" y1="382.8396" x2="78.6145" y2="248.8013" gradientTransform="matrix(1 3.141588e-03 3.141588e-03 -1 -12.8504 928.0025)">
		<stop  offset="0" style="stop-color:#00C200"/>
		<stop  offset="0.22" style="stop-color:#009CBD"/>
		<stop  offset="1" style="stop-color:#002375"/>
	</linearGradient>
	<polygon style="fill:url(#SVGID_00000062161092350586079550000013995088931964807579_);" points="288.5,576.2 244.5,600.9 
		343.9,573 332.6,562.2 	"/>
	
		<linearGradient id="SVGID_00000151545138771984576420000010295518278452443557_" gradientUnits="userSpaceOnUse" x1="395.8274" y1="380.9294" x2="79.4281" y2="246.8559" gradientTransform="matrix(1 3.141588e-03 3.141588e-03 -1 -12.8504 928.0025)">
		<stop  offset="0" style="stop-color:#00C200"/>
		<stop  offset="0.22" style="stop-color:#009CBD"/>
		<stop  offset="1" style="stop-color:#002375"/>
	</linearGradient>
	<polygon style="fill:url(#SVGID_00000151545138771984576420000010295518278452443557_);" points="343.9,573 345.9,558 332.6,562.2 
			"/>
	
		<linearGradient id="SVGID_00000160890142883557645530000010201742187395597758_" gradientUnits="userSpaceOnUse" x1="412.3055" y1="406.3838" x2="43.1202" y2="249.9588" gradientTransform="matrix(1 3.141588e-03 3.141588e-03 -1 -12.8504 928.0025)">
		<stop  offset="0" style="stop-color:#00C200"/>
		<stop  offset="0.26" style="stop-color:#009CBD"/>
		<stop  offset="0.27" style="stop-color:#0099BB"/>
		<stop  offset="0.51" style="stop-color:#00679D"/>
		<stop  offset="0.72" style="stop-color:#004287"/>
		<stop  offset="0.89" style="stop-color:#002B7A"/>
		<stop  offset="1" style="stop-color:#002375"/>
	</linearGradient>
	<polygon style="fill:url(#SVGID_00000160890142883557645530000010201742187395597758_);" points="325.7,555.4 320.6,550.4 
		239.2,591.8 288.5,576.2 	"/>
	
		<linearGradient id="SVGID_00000013174425253640624250000008247841781048636293_" gradientUnits="userSpaceOnUse" x1="410.8086" y1="409.9699" x2="41.5881" y2="253.5099" gradientTransform="matrix(1 3.141588e-03 3.141588e-03 -1 -12.8504 928.0025)">
		<stop  offset="0" style="stop-color:#00C200"/>
		<stop  offset="0.26" style="stop-color:#009CBD"/>
		<stop  offset="0.27" style="stop-color:#0099BB"/>
		<stop  offset="0.51" style="stop-color:#00679D"/>
		<stop  offset="0.72" style="stop-color:#004287"/>
		<stop  offset="0.89" style="stop-color:#002B7A"/>
		<stop  offset="1" style="stop-color:#002375"/>
	</linearGradient>
	<polygon style="fill:url(#SVGID_00000013174425253640624250000008247841781048636293_);" points="331.5,544.9 336.5,549.4 
		344.1,545.1 341,540 	"/>
	
		<linearGradient id="SVGID_00000108990683820441141070000011437555879765652866_" gradientUnits="userSpaceOnUse" x1="409.7446" y1="412.4879" x2="40.5242" y2="256.0279" gradientTransform="matrix(1 3.141588e-03 3.141588e-03 -1 -12.8504 928.0025)">
		<stop  offset="0" style="stop-color:#00C200"/>
		<stop  offset="0.26" style="stop-color:#009CBD"/>
		<stop  offset="0.27" style="stop-color:#0099BB"/>
		<stop  offset="0.51" style="stop-color:#00679D"/>
		<stop  offset="0.72" style="stop-color:#004287"/>
		<stop  offset="0.89" style="stop-color:#002B7A"/>
		<stop  offset="1" style="stop-color:#002375"/>
	</linearGradient>
	<polygon style="fill:url(#SVGID_00000108990683820441141070000011437555879765652866_);" points="377,526.7 380.2,520.1 
		349.7,535.6 352.8,540.2 	"/>
	
		<linearGradient id="SVGID_00000039096365468956680430000016054869190775138999_" gradientUnits="userSpaceOnUse" x1="411.2174" y1="408.9811" x2="42.0321" y2="252.521" gradientTransform="matrix(1 3.141588e-03 3.141588e-03 -1 -12.8504 928.0025)">
		<stop  offset="0" style="stop-color:#00C200"/>
		<stop  offset="0.26" style="stop-color:#009CBD"/>
		<stop  offset="0.27" style="stop-color:#0099BB"/>
		<stop  offset="0.51" style="stop-color:#00679D"/>
		<stop  offset="0.72" style="stop-color:#004287"/>
		<stop  offset="0.89" style="stop-color:#002B7A"/>
		<stop  offset="1" style="stop-color:#002375"/>
	</linearGradient>
	<polygon style="fill:url(#SVGID_00000039096365468956680430000016054869190775138999_);" points="320.6,550.4 325.7,555.4 
		336.5,549.4 331.5,544.9 	"/>
	
		<linearGradient id="SVGID_00000047046839776466651730000000182049189852256702_" gradientUnits="userSpaceOnUse" x1="414.7428" y1="400.6964" x2="45.5224" y2="244.2363" gradientTransform="matrix(1 3.141588e-03 3.141588e-03 -1 -12.8504 928.0025)">
		<stop  offset="0" style="stop-color:#00C200"/>
		<stop  offset="0.26" style="stop-color:#009CBD"/>
		<stop  offset="0.27" style="stop-color:#0099BB"/>
		<stop  offset="0.51" style="stop-color:#00679D"/>
		<stop  offset="0.72" style="stop-color:#004287"/>
		<stop  offset="0.89" style="stop-color:#002B7A"/>
		<stop  offset="1" style="stop-color:#002375"/>
	</linearGradient>
	<polygon style="fill:url(#SVGID_00000047046839776466651730000000182049189852256702_);" points="239.2,591.8 244.5,600.9 
		288.5,576.2 	"/>
	
		<linearGradient id="SVGID_00000111894935615652443000000005320593234725143223_" gradientUnits="userSpaceOnUse" x1="418.8546" y1="395.2491" x2="10.9058" y2="222.3769" gradientTransform="matrix(1 3.141588e-03 3.141588e-03 -1 -12.8504 928.0025)">
		<stop  offset="0" style="stop-color:#00C200"/>
		<stop  offset="0.34" style="stop-color:#009CBD"/>
		<stop  offset="1" style="stop-color:#002375"/>
	</linearGradient>
	<polygon style="fill:url(#SVGID_00000111894935615652443000000005320593234725143223_);" points="377,526.7 363.5,555 373.6,569.3 
		383.5,523 	"/>
	
		<linearGradient id="SVGID_00000124846330892733877380000015373083066876820128_" gradientUnits="userSpaceOnUse" x1="410.6898" y1="414.535" x2="2.7409" y2="241.6628" gradientTransform="matrix(1 3.141588e-03 3.141588e-03 -1 -12.8504 928.0025)">
		<stop  offset="0" style="stop-color:#00C200"/>
		<stop  offset="0.34" style="stop-color:#009CBD"/>
		<stop  offset="1" style="stop-color:#002375"/>
	</linearGradient>
	<polygon style="fill:url(#SVGID_00000124846330892733877380000015373083066876820128_);" points="383.5,523 380.2,520.1 377,526.7 
			"/>
	
		<linearGradient id="SVGID_00000081610188801086332990000004580293861194891166_" gradientUnits="userSpaceOnUse" x1="416.3568" y1="396.3799" x2="12.836" y2="225.4055" gradientTransform="matrix(1 3.141588e-03 3.141588e-03 -1 -12.8504 928.0025)">
		<stop  offset="0" style="stop-color:#00C200"/>
		<stop  offset="0.31" style="stop-color:#009CBD"/>
		<stop  offset="1" style="stop-color:#002375"/>
	</linearGradient>
	<polygon style="fill:url(#SVGID_00000081610188801086332990000004580293861194891166_);" points="352.8,540.2 344.1,545.1 
		357.7,567.3 363.5,555 	"/>
	
		<linearGradient id="SVGID_00000016037281215273239310000003320950561797397386_" gradientUnits="userSpaceOnUse" x1="388.7328" y1="461.5037" x2="-14.788" y2="290.5292" gradientTransform="matrix(1 3.141588e-03 3.141588e-03 -1 -12.8504 928.0025)">
		<stop  offset="0" style="stop-color:#00C200"/>
		<stop  offset="0.31" style="stop-color:#009CBD"/>
		<stop  offset="1" style="stop-color:#002375"/>
	</linearGradient>
	<polygon style="fill:url(#SVGID_00000016037281215273239310000003320950561797397386_);" points="287.6,448.4 285.7,449.6 341,540 
		349.7,535.6 	"/>
	
		<linearGradient id="SVGID_00000165202189667452259020000005526955559043272377_" gradientUnits="userSpaceOnUse" x1="410.2806" y1="410.6749" x2="6.7598" y2="239.6652" gradientTransform="matrix(1 3.141588e-03 3.141588e-03 -1 -12.8504 928.0025)">
		<stop  offset="0" style="stop-color:#00C200"/>
		<stop  offset="0.31" style="stop-color:#009CBD"/>
		<stop  offset="1" style="stop-color:#002375"/>
	</linearGradient>
	<polygon style="fill:url(#SVGID_00000165202189667452259020000005526955559043272377_);" points="349.7,535.6 341,540 344.1,545.1 
		352.8,540.2 	"/>
	
		<linearGradient id="SVGID_00000029037227707648169780000000654561062299538310_" gradientUnits="userSpaceOnUse" x1="421.3732" y1="384.5229" x2="17.8524" y2="213.5485" gradientTransform="matrix(1 3.141588e-03 3.141588e-03 -1 -12.8504 928.0025)">
		<stop  offset="0" style="stop-color:#00C200"/>
		<stop  offset="0.31" style="stop-color:#009CBD"/>
		<stop  offset="1" style="stop-color:#002375"/>
	</linearGradient>
	<polygon style="fill:url(#SVGID_00000029037227707648169780000000654561062299538310_);" points="357.7,567.3 373.6,569.3 
		363.5,555 	"/>
	<path class="st0" d="M434.1,552v-21.5h2.4V552H434.1z M466.4,552h2.4v-21.5h-2.4V552z M758.2,552h2.4v-21.5h-2.4V552z M826.8,530.5
		h-2.4v21.5h2.4V530.5z M480.7,542v-2.8c-2.3-0.7-3.9-1.4-3.9-3.2s1.7-3.2,3.9-3.5v-2.4c-3.9,0.2-6.6,2.6-6.6,5.8
		C474.1,540,477.6,541.1,480.7,542L480.7,542z M482.1,532.6c1.9,0.2,3.6,0.9,4.6,2.4l0.2,0.4l1.7-1.9l-0.2-0.2
		c-1.5-1.7-3.8-2.8-6.4-3L482.1,532.6L482.1,532.6L482.1,532.6z M480.7,550c-2.8-0.2-4.6-1.9-5.4-2.8l-0.2-0.4l-1.6,1.9l0.2,0.2
		c1.7,2.1,4.3,3.2,7.2,3.4V550L480.7,550L480.7,550z M482.1,539.7v2.8c2.4,0.8,4.3,1.6,4.3,3.8c0,1.7-1.2,3.6-4.3,3.7v2.4
		c5.1-0.2,7-3.4,7-6.2C489.2,541.8,485.4,540.6,482.1,539.7z M515.1,530.5h-2.4v21.5h2.4V530.5z M516.5,532.8h3.9
		c2.6,0,4.3,1.7,4.3,4c0,2.3-1.7,4-4.3,4h-3.9v2.2h5.3c3.4-0.5,5.4-2.9,5.4-6.4c0-3.8-2.7-6.5-6.6-6.5h-4.2
		C516.5,530.3,516.5,532.8,516.5,532.8z M523,544.8h-3l4.7,7.3h3.2L523,544.8L523,544.8z M532,530.5h-3l8.6,12.4v9.2h2.6v-9.6
		L532,530.5z M541,541.4l7.5-10.8h-3l-5.9,8.7L541,541.4L541,541.4z M419.7,548.4l7.3-17.9h-2.6l-6,14.8L419.7,548.4z M410.9,530.5
		h-2.6l8.8,21.5h2.6L410.9,530.5z M426.1,536.7V552h2.6v-21.5l0,0L426.1,536.7z M406.7,530.5L406.7,530.5v21.5h2.4v-15.4
		L406.7,530.5L406.7,530.5z M671.4,548.4l5.4-13.3l1.9-4.6h-2.6l-6,14.8L671.4,548.4z M677.8,536.7V552h2.6v-21.5l0,0L677.8,536.7z
		 M662.5,530.5h-2.6l8.8,21.2l0.1,0.2h2.6L662.5,530.5z M658.4,530.5L658.4,530.5v21.5h2.4v-15.4L658.4,530.5L658.4,530.5z
		 M689,530.5h-2.6l0.2,0.4l8.6,20.9l0.1,0.2h2.6L689,530.5L689,530.5z M697.9,548.4l5.4-13.3l1.9-4.6h-2.6l-6,14.8L697.9,548.4z
		 M704.2,536.7V552h2.6v-21.5l0,0L704.2,536.7z M684.9,530.5L684.9,530.5v21.5h2.4v-15.4L684.9,530.5L684.9,530.5z M497.7,530.5
		h-5.4v2.4h5.4V530.5z M503.1,530.5v2.4h5.3v-2.4H503.1z M499.1,552h2.4v-21.5h-2.4V552z M569.9,550c-4.2-0.5-7-3.8-7-8.7
		s2.8-8.2,7-8.7v-2.3c-5.7,0.5-9.6,4.9-9.6,11c0,6.1,3.9,10.5,9.6,11V550L569.9,550z M571.4,530.3v2.4c4.3,0.2,7.3,3.7,7.3,8.7
		c0,5-2.9,8.5-7.3,8.8v2.3c5.8-0.2,10-4.7,10-11C581.3,535,577.2,530.5,571.4,530.3L571.4,530.3z M589.5,530.5v2.4h10v-2.4H589.5z
		 M588,530.5h-2.4v21.5h2.4V530.5z M589.5,542.2h9.7v-2.4h-9.7V542.2z M629,546.9l-0.2,0.2c-1.3,1.7-3.2,2.8-5.4,2.8v2.4
		c3-0.1,5.4-1.3,7.5-3.8l0.2-0.4C631.1,548.1,629,546.9,629,546.9z M623.5,532.5c2.1,0.1,4.3,1.2,5.4,2.8l0.2,0.2l2.1-1.3l-0.2-0.4
		c-1.9-2.4-4.4-3.6-7.4-3.8v2.4C623.6,532.5,623.5,532.5,623.5,532.5z M621.9,550c-4.3-0.6-7.2-4-7.2-8.7s2.9-8.1,7.2-8.7v-2.4
		c-5.8,0.6-9.8,5.1-9.8,11c0,5.9,3.9,10.5,9.8,11C621.9,552.2,621.9,550,621.9,550z M643.8,550c-4.2-0.5-7-3.8-7-8.7s2.8-8.2,7-8.7
		v-2.3c-5.7,0.5-9.6,4.9-9.6,11c0,6.1,3.9,10.5,9.6,11V550L643.8,550z M645.4,530.3v2.4c4.3,0.2,7.3,3.7,7.3,8.7
		c0,5-2.9,8.5-7.3,8.8v2.3c5.8-0.2,10-4.7,10-11C655.2,535,651.2,530.5,645.4,530.3L645.4,530.3z M841.2,550c-4.2-0.5-7-3.8-7-8.7
		s2.8-8.2,7-8.7v-2.3c-5.7,0.5-9.6,4.9-9.6,11c0,6.1,3.9,10.5,9.6,11V550L841.2,550z M842.6,530.3v2.4c4.3,0.2,7.3,3.7,7.3,8.7
		c0,5-2.9,8.5-7.3,8.8v2.3c5.8-0.2,10-4.7,10-11C852.6,535,848.6,530.5,842.6,530.3L842.6,530.3z M720.4,549.7
		c-3.4-0.2-5.2-2.4-5.2-6.2v-13.1h-2.6v13.2c0,5.2,2.8,8.5,7.8,8.7L720.4,549.7L720.4,549.7L720.4,549.7z M727,530.5v13.1
		c0,3.7-1.9,5.9-5.1,6.2v2.4c4.9-0.2,7.7-3.5,7.7-8.7v-13.2L727,530.5L727,530.5L727,530.5z M775.4,550c-4.3-0.6-7.2-4-7.2-8.7
		s2.9-8.1,7.2-8.7v-2.4c-5.8,0.6-9.8,5.1-9.8,11c0,5.9,3.9,10.5,9.8,11C775.4,552.2,775.4,550,775.4,550z M776.8,532.5
		c2.1,0.1,4.3,1.2,5.4,2.8l0.2,0.2l2.1-1.3l-0.2-0.4c-1.9-2.4-4.4-3.6-7.4-3.8v2.4C776.9,532.5,776.8,532.5,776.8,532.5z
		 M782.5,546.9l-0.2,0.2c-1.3,1.7-3.2,2.8-5.4,2.8v2.4c3-0.1,5.4-1.3,7.5-3.8l0.2-0.4C784.6,548.1,782.5,546.9,782.5,546.9z
		 M445.5,530.5h-3.1l15.2,21.5h3.2L445.5,530.5z M460.3,548.8v-18.3h-2.4v14.8L460.3,548.8z M442.8,533.7V552h2.4v-14.8L442.8,533.7
		z M809.3,530.6h-5.4v2.4h5.4V530.6z M813.4,530.6h-2.6v21.5h2.4L813.4,530.6L813.4,530.6L813.4,530.6z M814.8,530.6v2.4h5.3v-2.4
		H814.8z M752.5,548.9v-18.4h-2.4v14.9L752.5,548.9z M737.6,530.5h-3l15.2,21.5h3.2L737.6,530.5L737.6,530.5z M734.9,533.7V552h2.4
		v-14.8L734.9,533.7z M859.9,530.5h-3l15.2,21.5h3.2L859.9,530.5L859.9,530.5z M874.8,548.9v-18.4h-2.4v14.8L874.8,548.9z
		 M857.3,533.7V552h2.4v-14.8L857.3,533.7z M798.8,543.9h-5.1l-0.9,2.4h7.1L798.8,543.9z M798.3,532.1l-1.3,3.4l6.6,16.4h2.8
		L798.3,532.1z M797.5,530.5h-2.7l-8.6,21l-0.2,0.6h2.8L797.5,530.5L797.5,530.5z"/>
	<path class="st0" d="M886.2,542v-2.8c-2.3-0.7-3.9-1.4-3.9-3.2s1.7-3.2,3.9-3.5v-2.4c-3.9,0.2-6.6,2.6-6.6,5.8
		C879.6,540.1,883,541.1,886.2,542L886.2,542z"/>
	<path class="st0" d="M887.5,532.6c1.9,0.2,3.6,0.9,4.6,2.4l0.2,0.4l1.7-1.9l-0.1-0.2c-1.5-1.7-3.8-2.8-6.4-3L887.5,532.6
		L887.5,532.6L887.5,532.6z"/>
	<path class="st0" d="M886.2,550c-2.8-0.2-4.6-1.9-5.4-2.8l-0.2-0.4l-1.6,1.9l0.2,0.2c1.7,2.1,4.3,3.2,7.2,3.4V550L886.2,550
		L886.2,550z"/>
	<path class="st0" d="M887.5,539.7v2.8c2.4,0.8,4.3,1.6,4.3,3.8c0,1.7-1.2,3.6-4.3,3.7v2.4c5.1-0.2,7-3.4,7-6.2
		C894.6,541.8,890.8,540.6,887.5,539.7z"/>
	<rect x="480.1" y="565.6" class="st0" width="2.4" height="21.5"/>
	<rect x="631.2" y="565.6" class="st0" width="2.4" height="21.5"/>
	<polygon class="st0" points="879.3,565.6 876.3,565.6 884.9,577.9 884.9,587.1 887.3,587.1 887.3,577.5 	"/>
	<polygon class="st0" points="888.4,576.4 896,565.6 893,565.6 887,574.3 	"/>
	<polygon class="st0" points="573.9,565.6 571.4,565.6 571.5,566 580.1,586.9 580.2,587.1 582.8,587.1 	"/>
	<polygon class="st0" points="582.9,583.5 588.3,570.3 590.2,565.6 587.6,565.6 581.6,580.5 	"/>
	<polygon class="st0" points="569.9,565.6 569.9,565.6 569.9,587.1 572.3,587.1 572.3,571.7 	"/>
	<polygon class="st0" points="589.2,571.9 589.2,587.1 591.7,587.1 591.7,565.6 591.7,565.6 	"/>
	<rect x="618.6" y="565.6" class="st0" width="2.4" height="21.5"/>
	<rect x="622.4" y="565.6" class="st0" width="5.3" height="2.4"/>
	<rect x="611.7" y="565.6" class="st0" width="5.4" height="2.4"/>
	<path class="st0" d="M536.2,585c-4.2-0.5-7-3.8-7-8.7s2.8-8.2,7-8.7v-2.3c-5.7,0.5-9.6,4.9-9.6,11c0,6.1,3.9,10.5,9.6,11V585
		L536.2,585z"/>
	<path class="st0" d="M537.7,565.3v2.4c4.3,0.2,7.3,3.7,7.3,8.7c0,5-2.9,8.5-7.3,8.8v2.3c5.8-0.2,10-4.7,10-11
		C547.5,570,543.5,565.5,537.7,565.3L537.7,565.3z"/>
	<path class="st0" d="M647.3,585c-4.2-0.5-7-3.8-7-8.7s2.8-8.2,7-8.7v-2.3c-5.7,0.5-9.6,4.9-9.6,11c0,6.1,3.9,10.5,9.6,11V585
		L647.3,585z"/>
	<path class="st0" d="M648.8,565.3v2.4c4.3,0.2,7.3,3.7,7.3,8.7c0,5-2.9,8.5-7.3,8.8v2.3c5.8-0.2,10-4.7,10-11
		C658.8,570.3,654.7,565.5,648.8,565.3L648.8,565.3z"/>
	<rect x="714.8" y="574.9" class="st0" width="9.7" height="2.4"/>
	<rect x="714.8" y="584.7" class="st0" width="10" height="2.4"/>
	<polygon class="st0" points="417.5,567.3 416.1,570.7 422.6,587.1 425.5,587.1 	"/>
	<polygon class="st0" points="417.9,579.1 412.7,579.1 411.7,581.6 418.9,581.6 	"/>
	<polygon class="st0" points="416.6,565.6 413.9,565.6 405.3,586.6 405.2,587.1 408,587.1 	"/>
	<polygon class="st0" points="445.4,583.9 445.4,565.6 443,565.6 443,580.5 	"/>
	<polygon class="st0" points="430.5,565.6 427.5,565.6 442.6,587.1 445.9,587.1 	"/>
	<polygon class="st0" points="427.9,568.8 427.9,587.1 430.5,587.1 430.5,572.2 	"/>
	<polygon class="st0" points="662.6,568.9 662.6,587.1 665.1,587.1 665.1,572.4 	"/>
	<polygon class="st0" points="680.2,584.1 680.2,565.6 677.7,565.6 677.7,580.5 	"/>
	<polygon class="st0" points="677.3,587.1 680.6,587.1 665.1,565.6 662.2,565.6 677.2,587 	"/>
	<polygon class="st0" points="790.1,583.9 790.1,565.6 787.4,565.6 787.4,580.5 	"/>
	<polygon class="st0" points="775,565.6 772,565.6 787.1,587.1 790.4,587.1 	"/>
	<polygon class="st0" points="772.5,568.9 772.5,587.1 774.9,587.1 774.9,572.4 	"/>
	<polygon class="st0" points="504.9,583.9 504.9,565.6 502.4,565.6 502.4,580.5 	"/>
	<polygon class="st0" points="487.4,568.9 487.4,587.1 489.8,587.1 489.8,572.4 	"/>
	<polygon class="st0" points="502.1,587.1 505.4,587.1 490,565.6 486.8,565.6 502,587 	"/>
	<rect x="450.3" y="565.6" class="st0" width="2.4" height="21.5"/>
	<path class="st0" d="M457.4,565.6h-3v2.4h3c5,0,8.2,3.2,8.2,8.2s-3.2,8.6-8.2,8.6h-3v2.4h3c6.5,0,10.9-4.4,10.9-11
		C468.2,569.9,463.9,565.6,457.4,565.6z"/>
	<rect x="509.7" y="565.6" class="st0" width="2.4" height="21.5"/>
	<rect x="513.7" y="565.6" class="st0" width="10" height="2.4"/>
	<rect x="513.7" y="574.9" class="st0" width="9.7" height="2.4"/>
	<path class="st0" d="M554.9,568h3.9c2.6,0,4.3,1.7,4.3,4c0,2.3-1.7,4-4.3,4h-3.9v2.2h5.3c3.4-0.5,5.4-2.9,5.4-6.4
		c0-3.8-2.7-6.5-6.6-6.5h-4.2C554.9,565.4,554.9,568,554.9,568z"/>
	<polygon class="st0" points="561.3,579.8 558.3,579.8 563.2,587.1 566.3,587.1 	"/>
	<rect x="551" y="565.6" class="st0" width="2.4" height="21.5"/>
	<polygon class="st0" points="607.3,579.1 602.2,579.1 601.1,581.6 608.2,581.6 	"/>
	<polygon class="st0" points="606.9,567.3 605.6,570.6 612.1,587.1 614.8,587.1 	"/>
	<polygon class="st0" points="605.9,565.6 603.4,565.6 594.8,586.6 594.3,587.1 597.3,587.1 	"/>
	<polygon class="st0" points="763.6,577.2 763.6,574.9 752.6,574.9 752.6,565.6 750.2,565.6 750.2,577.2 	"/>
	<rect x="750.2" y="578.7" class="st0" width="2.4" height="8.5"/>
	<path class="st0" d="M867,567.7c2.2,0.1,4.3,1.2,5.4,2.8l0.2,0.2l2.1-1.3l-0.2-0.4c-1.9-2.4-4.5-3.7-7.5-3.8V567.7
		C867,567.7,867,567.7,867,567.7z"/>
	<polygon class="st0" points="865.5,578 874.9,578 874.9,578 874.9,575.9 865.5,575.9 	"/>
	<path class="st0" d="M872.5,579.5v3.2c-1.2,1.3-3.2,2.2-5.4,2.3v2.4c3.2-0.1,5.8-1.3,7.8-3.5l0.1-0.1v-4.3L872.5,579.5
		C872.5,579.5,872.5,579.5,872.5,579.5z"/>
	<path class="st0" d="M865.5,585c-4.3-0.6-7.1-4-7.1-8.7s2.9-8.1,7.1-8.7v-2.4c-5.8,0.6-9.7,5.1-9.7,11s3.9,10.4,9.7,11
		C865.5,587.2,865.5,585,865.5,585z"/>
	<rect x="822.7" y="584.7" class="st0" width="8.6" height="2.4"/>
	<rect x="698.2" y="565.6" class="st0" width="2.4" height="21.5"/>
	<rect x="702.1" y="565.6" class="st0" width="5.3" height="2.4"/>
	<rect x="691.5" y="565.6" class="st0" width="5.4" height="2.4"/>
	<rect x="710.9" y="565.6" class="st0" width="2.4" height="21.5"/>
	<rect x="714.8" y="574.9" class="st0" width="9.7" height="2.4"/>
	<rect x="714.8" y="565.6" class="st0" width="9.7" height="2.4"/>
	<rect x="765.1" y="565.6" class="st0" width="2.4" height="21.5"/>
	<rect x="818.6" y="565.6" class="st0" width="2.4" height="21.5"/>
	<path class="st0" d="M841.2,585c-4.2-0.5-7-3.8-7-8.7s2.8-8.2,7-8.7v-2.3c-5.7,0.5-9.6,4.9-9.6,11c0,6.1,3.9,10.5,9.6,11V585
		L841.2,585z"/>
	<path class="st0" d="M842.6,565.3v2.4c4.3,0.2,7.3,3.7,7.3,8.7c0,5-2.9,8.5-7.3,8.8v2.3c5.8-0.2,10-4.7,10-11
		C852.6,570,848.5,565.5,842.6,565.3L842.6,565.3z"/>
	<path class="st0" d="M803.5,585c-4.2-0.5-7-3.8-7-8.7s2.8-8.2,7-8.7v-2.3c-5.7,0.5-9.6,4.9-9.6,11c0,6.1,3.9,10.5,9.6,11V585
		L803.5,585z"/>
	<path class="st0" d="M805,565.3v2.4c4.3,0.2,7.3,3.7,7.3,8.7c0,5-2.9,8.5-7.3,8.8v2.3c5.8-0.2,10-4.7,10-11
		C814.9,570,810.8,565.5,805,565.3L805,565.3z"/>
	<path class="st0" d="M737.9,585c-4.3-0.6-7.2-4-7.2-8.7s2.9-8.1,7.2-8.7v-2.4c-5.8,0.6-9.8,5.1-9.8,11s3.9,10.5,9.8,11
		C737.9,587.2,737.9,585,737.9,585z"/>
	<path class="st0" d="M739.3,567.7c2.1,0.1,4.3,1.2,5.4,2.8l0.2,0.2l2.1-1.3l-0.2-0.4c-1.9-2.4-4.4-3.6-7.4-3.8v2.4
		C739.4,567.7,739.3,567.7,739.3,567.7z"/>
	<path class="st0" d="M744.9,582l-0.2,0.2c-1.3,1.7-3.2,2.8-5.4,2.8v2.4c3-0.1,5.4-1.3,7.5-3.8l0.2-0.4
		C747,583.2,744.9,582,744.9,582z"/>
	<path class="st0" d="M664.3,459.7c0.7,0.9,0.9,2,0.9,3.6v5.1h2.4v-5.4c0-2-0.6-3.7-1.6-4.9c-1.4-1.7-3-2.3-5.3-2.3h-11v2.4H661
		C662.4,458.2,663.6,458.9,664.3,459.7L664.3,459.7z M748,453.5h-2.4v15.1h2.4V453.5z M802.5,488.6h-2.4v14.9h2.4V488.6z
		 M744.8,448.2h-2.6v3.6h2.6V448.2z M783.7,448.1h-2.4v24.4h2.4V448.1z M762.5,472.5c3.2,0,5.8-0.7,7.7-2.2c2-1.4,2.6-4,2.6-5.8
		v-16.3h-2.4v16c0,2.1-0.6,3.5-1.9,4.4c-1.3,0.9-3,1.4-5,1.4h-9.7l0.2,2.4L762.5,472.5L762.5,472.5L762.5,472.5z M762.6,451.6h-2.4
		v16.8h2.4V451.6z M446.6,451.6h-2.4v16.8h2.4V451.6z M628,493.4l0.2-0.4l-0.2-0.2c-0.5-0.4-0.9-0.7-1.4-1.1l-0.2-0.2l-5,12.1h2.7
		L628,493.4L628,493.4z M648.5,453.4h-2.4v15.1h2.4V453.4z M609.3,491.7c-0.6,0.4-0.9,0.8-1.4,1.2l-0.2,0.2l4.2,10.5h2.8l-5-12.1
		L609.3,491.7L609.3,491.7z M594.9,503.6v-20.2h-2.4v20h2.4V503.6L594.9,503.6z M623.9,493.1l0.9-2.3c-2.4-1.3-4.7-2.1-7-2.1
		c-2.2,0-4.6,0.8-7,2.1l0.9,2.3c2-1.3,3.9-2,6-2C619.9,491.2,622.2,492,623.9,493.1L623.9,493.1z M726,487v-3.6h-2.6v3.6H726z
		 M467.9,448.1h-2.4v20.3h2.4V448.1z M748,469.9H465.4v2.4H748V469.9L748,469.9z M750.9,448.2h-2.6v3.6h2.6V448.2z M849.3,503.6h2.4
		v-14.9h-2.4V503.6z M851.7,483.3h-2.6v3.6h2.6V483.3z M868.7,487v-3.6h-2.6v3.6H868.7z M856.2,448.1h-2.4v24.4h2.4V448.1z
		 M865.8,478.5c4.3,0,4.9-3.4,4.9-6.4v-18.7h-2.4v18.7c0,2.3-0.4,3.8-2.2,3.8c-0.4,0-0.7-0.1-1.1-0.2l-0.5-0.2l-0.9,2.3l0.5,0.2
		C864.5,478.4,865.2,478.5,865.8,478.5z M890.2,472.5L890.2,472.5l0.1-2.4h-0.9c-6.2,0-8.2-3.8-8.2-7c0-4.3,4.3-7,8.2-7h0.9v-2.4
		h-0.1c-7.1,0-11.7,3.7-11.7,9.5C878.5,469,882.8,472.5,890.2,472.5z M870.7,448.3h-2.6v3.6h2.6V448.3z M825.4,472.5L825.4,472.5
		l0.1-2.4h-1.1c-4.7,0-8.1-2.8-8.1-7s4.2-7,8.1-7h1.1v-2.4h-0.1c-6.9,0-11.5,3.9-11.5,9.5C814,467.6,817,472.5,825.4,472.5z
		 M838.9,478.5c4.3,0,4.9-3.4,4.9-6.4v-18.7h-2.4v18.7c0,2.3-0.4,3.8-2.2,3.8c-0.4,0-0.7-0.1-1.1-0.2l-0.5-0.2l-0.9,2.3l0.5,0.2
		C837.6,478.4,838.3,478.5,838.9,478.5z M829.5,472.5v-19h-2.4v19H829.5z M822,503.6v-14.9h-2.4v14.9H822z M823.4,448.3h-2.6v3.6
		h2.6V448.3z M829.5,448.3H827v3.6h2.6V448.3z M843.1,487.1h2.6v-3.6h-2.6V487.1z M840.8,503.7c-1.3-1.3-2.6-3-2.6-5.4
		c0-4.5,4-7,8-7h1.7v-2.4h-0.8c-7,0-11.5,3.6-11.5,9.5c0,2.1,0.6,3.9,1.7,5.4L840.8,503.7L840.8,503.7L840.8,503.7z M822,483.4h-2.6
		v3.6h2.6V483.4z M716.7,498.1c0,4.6,3,9.5,11.5,9.5h0.1v-2.4h-0.9c-4.7,0-8.1-2.8-8.1-7s4.2-7,8.1-7h0.9v-2.4h-0.1
		C721.5,488.6,716.7,492.6,716.7,498.1z M796.6,513.8h2.6v-3.6h-2.6V513.8z M682.9,507.6h2.4v-24.1h-2.4V507.6z M729.7,487.1h2.6
		v-3.6h-2.6V487.1z M729.7,507.6h2.4v-18.9h-2.4V507.6z M657.4,505.2c0.1-0.2,0.2-0.5,0.2-0.7c0-0.1,0.1-0.2,0.1-0.2l0.1-0.2
		c0.1-0.2,0.2-0.4,0.2-0.6c0.2-0.9,0.5-2,0.5-3c0-2-0.6-3.8-1.4-5.4c-0.9-1.6-2.4-2.9-4.2-3.7c-1.2-0.6-2.4-0.8-3.7-0.9v2.4
		c3.9,0.5,6.9,3.5,6.9,7.7c0,4.2-2.8,7.1-6.9,7.5v2.4c1.4-0.1,2.8-0.5,3.9-1.1h0.1c0,0,0.1-0.1,0.2-0.1l0.2-0.1
		c0.2-0.1,0.4-0.2,0.6-0.4l0.2-0.1c0.2-0.2,0.5-0.2,0.6-0.5c0.2-0.1,0.2-0.2,0.5-0.4l0.1-0.1l0.2-0.2c0.6-0.6,1.1-1.3,1.5-2
		L657.4,505.2L657.4,505.2L657.4,505.2z M671.9,503.7h2.4v-20.2h-2.4C671.9,483.5,671.9,503.7,671.9,503.7z M658.8,505.3
		c-0.4,0.6-0.6,1.3-1.1,1.7l-0.4,0.6h17v-2.4h-15.5L658.8,505.3L658.8,505.3z M891.7,507.4v0.2c0,0-0.1,0.2-0.1,0.4
		c-0.2,2.1-1.7,3.4-4.5,3.4c-1.7,0-3.1-0.7-4.6-1.5l-0.5-0.2l-1.2,2.2l0.5,0.2c1.7,0.9,3.4,1.7,5.7,1.7c4.4,0,7.3-2.4,7.3-6.3v-18.7
		h-2.6V507.4L891.7,507.4L891.7,507.4z M890.2,507.6L890.2,507.6l0.1-2.4h-0.9c-6.2,0-8.2-3.7-8.2-7c0-4.3,4.3-7,8.2-7h0.9v-2.4
		h-0.1c-7.1,0-11.7,3.7-11.7,9.5C878.5,504,882.8,507.6,890.2,507.6z M802.8,513.8h2.6v-3.6h-2.6V513.8z M891.7,453.5v19.1h-0.1
		c-0.2,2.1-1.7,3.4-4.5,3.4c-1.7,0-3.1-0.7-4.6-1.5l-0.5-0.2l-1.2,2.2l0.5,0.2c1.7,0.9,3.4,1.7,5.7,1.7c4.4,0,7.3-2.4,7.3-6.4v-18.7
		L891.7,453.5C891.7,453.5,891.7,453.5,891.7,453.5z M733.6,507.6h138.3v-2.4H733.6V507.6z M872.3,487.1h2.6v-3.6h-2.6V487.1z
		 M869.5,503.7h2.4v-14.9h-2.4V503.7z M421.7,483.4v3.6h2.6v-3.6H421.7z M411,468.6c-1.3-0.9-1.9-2.3-1.9-4.4v-7.3h-2.4v7.7
		c0,1.7,0.7,4.4,2.6,5.8c2.1,1.6,4,2.2,7.7,2.2h16.8v-2.4h-17.9C414,470,412.3,469.5,411,468.6L411,468.6z M424.2,448.3h-2.6v3.6
		h2.6V448.3z M431.2,503.7h2.4v-14.9h-2.4V503.7z M431.3,468.6h2.4v-15.1h-2.4V468.6z M418.1,448.3h-2.7v3.6h2.6v-3.6H418.1z
		 M418.1,483.4h-2.7v3.6h2.6v-3.6H418.1z M454.1,470.3c2-1.4,2.6-4,2.6-5.8v-16.3h-2.4v16c0,2.1-0.6,3.5-1.9,4.4
		c-1.1,0.8-2.7,1.3-4.4,1.4h-10.3l0.2,2.4h8.5C449.7,472.5,452.2,471.8,454.1,470.3L454.1,470.3z M411,503.7
		c-1.3-0.9-1.9-2.3-1.9-4.4V492h-2.4v7.7c0,1.7,0.7,4.3,2.6,5.8c2.1,1.6,4,2.2,7.7,2.2h16.7v-2.4h-17.7
		C414,505.2,412.3,504.7,411,503.7L411,503.7z M546.7,507.6L546.7,507.6l0.1-2.4h-1.1c-6.2,0-8.2-3.7-8.2-7c0-4.3,4.3-7,8.2-7h1.1
		v-2.4h-0.1c-7.1,0-11.7,3.7-11.7,9.5S539.4,507.6,546.7,507.6z M548.3,507.4v0.4c-0.2,2.2-1.9,3.5-4.6,3.5c-1.7,0-3.1-0.7-4.6-1.5
		l-0.5-0.2l-1.2,2.2l0.5,0.2c1.7,0.9,3.4,1.7,5.7,1.7c3.6,0,7.3-0.6,7.3-4.9v-20h-2.4L548.3,507.4L548.3,507.4L548.3,507.4z
		 M443,503.6v-20.2h-2.4v20h2.4V503.6L443,503.6z M639.7,495.8L639.7,495.8c-0.7,1.5-1.1,3.1-1.1,4.7c0,5.4,4,9.7,9.3,10v-2.6
		c-3.8-0.2-6.9-3.6-6.9-7.5s2.9-7.3,6.9-7.7v-2.4c-0.7,0-1.5,0.1-2.1,0.4C643.1,491.4,640.9,493.2,639.7,495.8z M638.2,505.3
		l-0.1-0.2h-85.9v2.4h87.5l-0.5-0.6C639,506.5,638.7,506,638.2,505.3L638.2,505.3z M511,505.3l-0.1-0.2h-70.5v2.4h72.1l-0.4-0.6
		C511.8,506.5,511.5,505.8,511,505.3L511,505.3z M525.8,491.2c-1.2-0.6-2.4-0.8-3.7-0.9v2.4c3.9,0.5,6.9,3.5,6.9,7.7
		s-2.8,7.1-6.9,7.5v2.4c1.4-0.1,2.8-0.5,3.9-1.1h0.1c0,0,0.1-0.1,0.2-0.1l0.1-0.1c0.2-0.1,0.5-0.2,0.6-0.4c0,0,0.1-0.1,0.2-0.1
		c0.2-0.2,0.5-0.2,0.6-0.5c0.2-0.1,0.2-0.2,0.6-0.5l0.2-0.2c0.6-0.6,1.1-1.3,1.5-2l0.2-0.6l0,0c0.1-0.2,0.2-0.5,0.2-0.7
		c0-0.1,0.1-0.2,0.1-0.2l0.1-0.1c0.1-0.2,0.2-0.4,0.2-0.6c0.2-0.9,0.5-2,0.5-3c0-2-0.6-3.8-1.4-5.4
		C529,493.4,527.6,492.1,525.8,491.2L525.8,491.2z M512.5,495.8L512.5,495.8c-0.7,1.5-1.1,3.1-1.1,4.7c0,5.4,4,9.7,9.3,10v-2.6
		c-3.8-0.2-6.9-3.6-6.9-7.5s2.9-7.3,6.9-7.7v-2.4c-0.7,0-1.5,0.1-2.1,0.4C516,491.4,513.7,493.2,512.5,495.8z"/>
</g>
</svg>
