<?xml version="1.0" encoding="UTF-8"?>
<svg id="Layer_1" xmlns="http://www.w3.org/2000/svg" version="1.1" viewBox="0 0 1000 1000">
  <!-- Generator: Adobe Illustrator 30.2.1, SVG Export Plug-In . SVG Version: 2.1.1 Build 1)  -->
  <defs>
    <style>
      .st0 {
        fill: #015530;
      }
    </style>
  </defs>
  <g id="Layer_1-2">
    <g>
      <g>
        <g>
          <polygon class="st0" points="351.24 625.31 351.24 625.31 351.24 625.36 351.24 625.31"/>
          <path class="st0" d="M463,623.76c-2.37,0-3.54-1.41-4.75-3s-1.84-3.78-1.84-6.45c0-2.42.63-4.26,1.84-5.52,1.16-1.16,2.67-1.84,4.46-1.89h0c4.22,0,9.26.82,9.26.82v-5.72s-5.04-.82-9.26-.82h0c-1.84,0-3.54.34-5.14.92-1.65.58-3.1,1.45-4.26,2.62-1.21,1.11-2.13,2.52-2.76,4.17-.68,1.65-.97,3.49-.97,5.52,0,.82.1,1.7.34,2.52.19.87.48,1.65.82,2.42.34.78.73,1.5,1.11,2.13.39.63,1.45,1.74,1.84,2.13v.24h-31.5c-.58,0-1.16-.1-1.74-.29s-1.11-.53-1.6-1.02c-.48-.44-.82-1.02-1.11-1.74-.29-.68-.44-1.55-.44-2.52v-30l-6.83,2.67v28.45c0,.87-.15,1.6-.39,2.18-.29.58-.63,1.02-1.02,1.36s-.82.58-1.31.73-.87.19-1.26.19h-5.38v-22.78l-6.83,2.67v20.11h-6.45v5.86h17.98c.63,0,1.31,0,2.13-.1s1.65-.24,2.52-.48c.87-.24,1.74-.58,2.62-1.07.87-.44,1.65-1.07,2.33-1.89.78.97,1.84,1.79,3.25,2.52,1.41.68,2.81,1.02,4.26,1.02h52.49v-5.86h-12.41v-.1Z"/>
          <path class="st0" d="M513.21,618.19v-30l-6.83,2.67v28.45c0,.87-.15,1.6-.39,2.18-.29.58-.63,1.02-1.02,1.36-.39.34-.82.58-1.31.73-.48.15-.87.19-1.26.19h-5.38v-22.78l-6.83,2.67v20.11h-6.45v5.86h17.98c.63,0,1.31,0,2.13-.1s1.65-.24,2.52-.48c.87-.24,1.74-.53,2.62-1.07,2.28-1.36,4.26-3.88,4.26-9.79h-.05Z"/>
          <polygon class="st0" points="528.09 588.19 521.49 590.8 521.49 629.62 528.09 629.62 528.09 588.19"/>
          <path class="st0" d="M568.26,604.76c-1.26-1.21-2.76-2.08-4.51-2.71-1.74-.58-3.73-.92-5.86-.92s-4.12.29-5.86.92c-1.74.58-3.25,1.5-4.51,2.71-1.26,1.21-2.23,2.67-2.91,4.46-.68,1.79-1.02,3.83-1.02,6.2s.34,4.41,1.02,6.2c.68,1.79,1.65,3.25,2.91,4.46s2.76,2.08,4.51,2.71c1.74.58,3.73.92,5.86.92s4.12-.29,5.86-.92c1.74-.63,3.25-1.5,4.51-2.71,1.26-1.21,2.23-2.67,2.91-4.46.68-1.79,1.02-3.83,1.02-6.2s-.34-4.41-1.02-6.2c-.68-1.79-1.65-3.25-2.91-4.46ZM563.56,621.43c-1.26,1.6-3.15,2.37-5.67,2.37s-4.41-.78-5.67-2.37c-1.26-1.6-1.89-3.59-1.89-6.01s.63-4.41,1.89-6.01c1.26-1.6,3.15-2.37,5.67-2.37s4.41.78,5.67,2.37c1.26,1.6,1.89,3.59,1.89,6.01s-.63,4.41-1.89,6.01Z"/>
          <path class="st0" d="M584.84,641.06c1.5-2.28,2.28-5.57,2.28-9.84v-30.1l-6.59,2.62v27.53c0,1.65-.1,3-.29,4.02s-.48,1.79-.82,2.37c-.34.53-.78.92-1.26,1.11s-1.07.29-1.74.29h-4.31v5.52h5.04c3.63,0,6.2-1.16,7.71-3.44v-.1Z"/>
          <polygon class="st0" points="601.99 588.19 595.4 590.9 595.4 629.04 601.99 629.04 601.99 588.19"/>
          <path class="st0" d="M614.74,641.06c1.5-2.28,2.28-5.57,2.28-9.84v-30.05l-6.59,2.62v27.43c0,1.65-.1,3-.29,4.02s-.48,1.79-.82,2.37c-.34.53-.78.92-1.26,1.11s-1.07.29-1.74.29h-4.31v5.52h5.04c3.63,0,6.2-1.16,7.71-3.44v-.05Z"/>
          <polygon class="st0" points="617.02 588.19 617.02 596.13 610.43 593.52 610.43 588.19 617.02 588.19"/>
          <g>
            <polygon class="st0" points="567.44 588.19 567.44 596.13 560.85 593.52 560.85 588.19 567.44 588.19"/>
            <polygon class="st0" points="554.93 588.19 554.93 596.13 548.34 593.52 548.34 588.19 554.93 588.19"/>
          </g>
          <path class="st0" d="M493.92,642.18c-.68,0-1.21-.19-1.6-.63s-.58-1.02-.58-1.74.19-1.26.53-1.7c.34-.39.78-.58,1.31-.58,1.6,0,3.49.29,3.49.29v-2.18s-1.89-.29-3.49-.29c-1.45,0-2.62.34-3.39,1.07-.82.73-1.21,1.74-1.21,3.05,0,.44.1.87.24,1.31.19.44.39.82.68,1.11v.24h-1.99v2.33h10.27v-2.33h-4.26v.05Z"/>
          <path class="st0" d="M651.82,610.96c-.44-2.08-1.21-3.88-2.28-5.33-1.07-1.45-2.47-2.57-4.26-3.34-1.79-.78-3.97-1.11-6.59-1.11s-4.8.39-6.54,1.21-3.1,1.89-4.12,3.25-1.74,2.91-2.13,4.65-.63,4.22-.63,6.11c0,1.99.34,3.83,1.02,5.43.68,1.65,1.65,3.05,2.86,4.22,1.21,1.16,2.67,2.08,4.36,2.71s3.54.92,5.57.92h1.79c1.6-.58,4.46-3,4.46-3-.53,6.69-1.65,12.26-11.1,12.26h-5.48v5.57h6.35c3.25,0,5.96-.44,8.14-1.36,2.18-.87,3.97-2.33,5.33-4.26,1.36-1.99,2.33-5.82,2.91-8.87.58-3.1.87-6.83.87-11.2,0-2.67-.24-5.72-.68-7.8l.15-.05ZM645.61,623.81h-6.49c-2.37,0-4.17-.58-5.28-1.74-1.11-1.16-1.7-3.05-1.7-5.67,0-1.16.1-2.91.34-4.02.19-1.07.58-2.04,1.11-2.81s1.21-1.41,2.08-1.89,1.94-.73,3.25-.73c2.57,0,4.36.92,5.33,2.76s1.45,5.19,1.45,8.72c0,1.99-.05,3.73-.19,5.33l.1.05Z"/>
          <path class="st0" d="M381.24,608.98c-.73-1.74-1.7-3.2-3-4.36s-2.81-2.04-4.56-2.62c-1.74-.58-3.68-.87-5.77-.87s-4.02.29-5.77.92c-1.74.58-3.3,1.5-4.56,2.71-1.31,1.21-2.28,2.67-3,4.36-.73,1.74-1.07,3.59-1.07,5.86,0,1.45.53,4.22,1.45,5.86.48.78,3.93,2.71,4.94,3.05-.87-.1-2.62.1-2.62.1-.44.05-.82.15-1.21.24-.05,0-.15,0-.19.05-1.11.24-2.08.63-2.96,1.07-1.21.63-2.23,1.41-3,2.42-1.55,1.99-2.33,4.51-2.33,7.56v9.11h6.59v-9.16c0-.73.1-1.41.24-2.08.19-.68.48-1.31.97-1.79.48-.53,1.07-.97,1.89-1.26.78-.29,1.79-.44,3.05-.44h7.66c2.18,0,4.12-.29,5.91-.87,1.79-.58,3.3-1.41,4.56-2.57s2.23-2.62,2.91-4.36c.68-1.74,1.02-4.51,1.02-6.88s-.34-4.26-1.07-6.01l-.1-.05ZM373.53,621.72c-1.31,1.5-3.15,2.28-5.62,2.28s-4.36-.78-5.62-2.28c-1.31-1.5-1.94-4.26-1.94-6.74s.63-4.36,1.89-5.91,3.15-2.28,5.67-2.28,4.41.78,5.67,2.28c1.26,1.55,1.89,3.39,1.89,5.91s-.63,5.23-1.94,6.74Z"/>
        </g>
        <g>
          <path class="st0" d="M335.2,666.02v37.75h-6.54v-26.51c-.53,1.41-1.21,3.1-2.37,5.38l-8,15.65h-5.72l-7.85-15.65c-1.21-2.33-2.04-4.02-2.57-5.48v26.61h-6.4v-37.75h7.17l8.58,16.62c1.65,3.2,3.2,6.54,4.02,9.01.82-2.52,2.37-5.86,4.02-9.01l8.63-16.62h7.03Z"/>
          <polygon class="st0" points="340.58 677.99 346.88 677.36 346.88 703.77 340.58 703.77 340.58 677.99"/>
          <path class="st0" d="M375.57,685.16v18.61h-6.3v-16.53c0-3.78-1.07-4.99-4.12-4.99-2.04,0-4.36.68-6.59,1.79v19.77h-6.3v-25.73l6.3-.63v2.52c2.52-1.45,5.67-2.76,9.11-2.76,4.85,0,7.95,2.33,7.95,8.05l-.05-.1Z"/>
          <polygon class="st0" points="380.95 677.99 387.2 677.36 387.2 703.77 380.95 703.77 380.95 677.99"/>
          <path class="st0" d="M392.58,701.01l2.67-4.26c3.1,2.23,6.16,2.96,8.82,2.96,3.1,0,4.65-1.07,4.65-2.91,0-1.5-.97-2.62-5.38-3.78l-1.74-.48c-5.43-1.45-7.85-3.68-7.85-7.71,0-4.6,4.22-7.75,10.08-7.75,3.39,0,6.83.78,10.32,2.81l-2.47,4.22c-3.25-1.7-5.19-2.23-7.75-2.23s-3.78,1.07-3.78,2.57c0,1.41.87,2.04,4.07,2.86l1.84.48c6.35,1.7,8.97,4.26,8.97,8.43,0,4.7-3.63,8.29-10.86,8.29-4.85,0-8.43-1.21-11.63-3.49h.05Z"/>
          <path class="st0" d="M438.04,702.76c-1.55.82-3.83,1.74-6.98,1.74-4.36,0-8-2.42-8-8.29v-13.33h-4.94v-4.94h4.94v-5.82l6.3-.92v6.74h8.05l-.63,4.94h-7.42v12.36c0,2.91,1.11,4.12,3.1,4.12,1.26,0,2.37-.34,3.83-.92l1.74,4.31Z"/>
          <path class="st0" d="M460.43,677.65l-1.07,6.4c-.97-.34-2.08-.68-3.54-.68-1.99,0-4.02.58-6.11,3.63v16.77h-6.3v-25.83l6.3-.58v3.68c1.94-2.62,4.51-3.93,7.32-3.93,1.21,0,2.23.19,3.39.53Z"/>
          <path class="st0" d="M488.44,677.94v.34l-8.92,26.03c-2.67,7.85-5.96,11-11.87,11-2.33,0-4.22-.53-5.43-.92l1.65-4.6c1.11.34,2.13.53,3.25.53,2.42,0,4.41-.63,6.35-5.77l.29-.82h-1.7l-9.79-25.44v-.34h6.64l5.38,15.31c.63,1.79,1.11,3.34,1.45,4.65.39-1.45.87-3.15,1.36-4.65l4.89-15.31h6.45Z"/>
          <polygon class="st0" points="387.3 666.02 387.3 673.92 380.7 671.35 380.7 666.02 387.3 666.02"/>
          <polygon class="st0" points="347.02 666.02 347.02 673.92 340.43 671.35 340.43 666.02 347.02 666.02"/>
          <g>
            <path class="st0" d="M500.22,691.22c0-9.6,6.16-13.76,13.04-13.76,8.43,0,12.75,5.77,12.75,13.91,0,9.6-6.11,13.23-12.99,13.23-8.43,0-12.75-5.23-12.75-13.42l-.05.05ZM520.14,691.37c0-5.23-2.23-8.82-6.93-8.82s-7.22,3.54-7.22,8.63,2.23,8.38,6.93,8.38,7.17-3.05,7.17-8.14l.05-.05Z"/>
            <path class="st0" d="M541.95,676.25v4.51h7.42l-.63,4.94h-6.74v18.17h-6.3v-18.17h-4.31v-4.94h4.31v-4.36c0-6.01,3.49-10.32,9.79-10.32,2.52,0,4.41.39,6.16,1.11l-1.55,4.94c-1.41-.58-2.67-.82-4.07-.82-2.62,0-4.02,1.84-4.02,4.94h-.05Z"/>
          </g>
          <path class="st0" d="M605.34,666.12v37.75h-6.54v-26.51c-.53,1.41-1.21,3.1-2.37,5.38l-8,15.65h-5.72l-7.85-15.65c-1.21-2.33-2.04-4.02-2.57-5.48v26.61h-6.4v-37.75h7.17l8.58,16.62c1.65,3.2,3.2,6.54,4.02,9.01.82-2.52,2.37-5.86,4.02-9.01l8.63-16.62s7.03,0,7.03,0Z"/>
          <path class="st0" d="M634.37,692.19h-17.35c.29,5.48,3.49,7.46,7.03,7.46,3.05,0,5.09-.87,7.61-2.33l2.23,4.07c-2.52,1.74-6.01,3.2-10.32,3.2-7.03,0-12.89-3.54-12.89-13.33,0-8.09,4.36-14.05,12.65-14.05,7.42,0,11.2,4.85,11.2,11.05,0,.97-.05,2.52-.19,3.93h.05ZM617.31,687.83h11.2v-.19c0-4.22-2.08-5.86-5.09-5.86-3.54,0-5.48,2.33-6.11,6.06Z"/>
          <path class="st0" d="M664.37,666.07v37.8h-5.52l-.39-1.94c-2.62,1.7-5.38,2.67-8.09,2.67-7.03,0-10.76-4.85-10.76-13.04,0-9.84,6.35-14.35,13.42-14.35,1.74,0,3.49.29,5.14.78v-11.29l6.3-.63h-.1ZM652.01,699.61c1.99,0,3.93-.58,6.06-1.84v-15.07c-1.36-.48-2.76-.68-4.36-.68-4.31,0-7.56,3.05-7.56,9.55,0,5.67,2.13,8.09,5.86,8.09v-.05Z"/>
          <polygon class="st0" points="669.75 678.14 676.05 677.46 676.05 703.87 669.75 703.87 669.75 678.14"/>
          <path class="st0" d="M704.25,685.79v18.08h-5.48l-.48-2.13c-3.05,2.23-6.06,2.91-9.01,2.91-4.7,0-7.85-2.81-7.85-7.03,0-6.59,7.61-9.4,16.53-9.6v-.97c0-3.25-.97-4.7-4.22-4.7-2.62,0-5.48.92-8.63,2.96l-2.57-4.02c3.63-2.52,7.46-3.97,12.12-3.97,6.15,0,9.55,2.42,9.55,8.58l.05-.1ZM691.31,699.75c2.08,0,4.26-.58,6.64-1.99v-5.57c-6.06.29-9.98,1.84-9.98,4.7,0,1.84,1.16,2.86,3.34,2.86Z"/>
          <polygon class="st0" points="676.19 666.12 676.19 674.02 669.6 671.45 669.6 666.12 676.19 666.12"/>
        </g>
      </g>
      <path class="st0" d="M562.06,352.55c-3.97-13.96-14.78-25.06-28.59-29.42,4.12-1.31,8.53-1.99,13.09-1.99,3.25,0,6.45.34,9.5,1.07.92.19,1.5-.92.87-1.55-1.89-1.84-3.97-3.49-6.16-4.94-6.83-4.51-15.07-7.17-23.89-7.17h-.87c4.17-3.44,9.01-6.11,14.3-7.75.87-.29.82-1.55-.1-1.74-2.96-.63-6.01-.97-9.16-.97-5.43,0-10.61.97-15.36,2.81,1.36-4.36,4.07-8.14,7.61-10.86.73-.53.24-1.7-.63-1.65-7.22.44-13.42,4.41-16.91,9.4-.19-4.8-2.04-9.31-4.75-12.75-.34-.44-1.07-.44-1.41,0-2.76,3.44-4.56,7.95-4.75,12.75-3.54-5.04-9.69-8.97-16.91-9.4-.87-.05-1.36,1.07-.63,1.65,3.54,2.71,6.2,6.49,7.61,10.86-4.8-1.79-9.94-2.81-15.36-2.81-3.15,0-6.2.34-9.16.97-.87.19-.97,1.45-.1,1.74,5.28,1.7,10.13,4.36,14.3,7.75h-.87c-8.82,0-17.01,2.62-23.89,7.17-2.18,1.45-4.26,3.1-6.16,4.94-.68.63,0,1.74.87,1.55,3.05-.68,6.25-1.07,9.5-1.07,4.56,0,8.97.73,13.09,1.99-13.81,4.36-24.62,15.46-28.59,29.42-.24.92.87,1.6,1.55.87,6.98-7.42,16.57-12.36,27.33-13.33-10.95,7.08-20.6,21.03-19.58,38.58.05.97,1.41,1.21,1.79.29,4.51-11.34,13.67-20.36,25.2-24.52-6.83,7.56-11,17.64-11,28.64,0,5.04.87,9.89,2.47,14.39.34.92,1.65.78,1.79-.19,1.5-13.72,9.74-25.44,21.32-31.79l1.5-.87s.48,0,.53.24c.44,2.13,1.94,8,1.94,25.3,0,21.57-1.74,63.29-1.94,65.04,0,.1,0,.19.1.24l8.68,6.35s.24.05.34,0l8.63-6.35s.15-.15.1-.29c-.19-1.79-1.94-43.47-1.94-65.04,0-17.3,1.5-23.17,1.94-25.3.05-.24.34-.39.53-.24l1.5.87c11.58,6.35,19.82,18.03,21.32,31.79.1.97,1.45,1.07,1.79.19,1.6-4.51,2.47-9.35,2.47-14.39,0-11-4.17-21.03-11-28.64,11.53,4.17,20.69,13.13,25.2,24.52.34.92,1.7.68,1.79-.29,1.02-17.54-8.63-31.5-19.58-38.58,10.76.97,20.36,5.91,27.33,13.33.68.68,1.79,0,1.55-.87l-.15.05Z"/>
      <g>
        <path class="st0" d="M529.44,523.1c-.48.48-1.02.92-1.55,1.31-.44.34-.92.58-1.41.78-.44.15-.87.24-1.31.19-.44,0-.82-.19-1.16-.44-.48-.34-.78-.87-1.16-1.31-.53-.68-1.21-1.26-1.99-1.7-.87-.48-1.84-.78-2.81-.87-.92-.1-1.84,0-2.76.29h-.05c-.82.24-1.65.68-2.33,1.21s-1.21,1.16-1.65,1.89c-.39.63-.63,1.31-.82,1.99-.34,1.36-.19,2.86.24,4.22,1.36,4.02,5.77,5.57,9.79,5.28,5.48-.39,11-6.93,11.44-7.46,1.16-1.41,1.26-4.51-.82-7.08-.53.58-1.07,1.16-1.65,1.74v-.05Z"/>
        <path class="st0" d="M489.12,524.5c-.44-.73-.97-1.36-1.65-1.89s-1.45-.97-2.33-1.21h-.05c-.87-.29-1.84-.34-2.76-.29-.97.1-1.94.39-2.81.87-.78.44-1.45,1.02-1.99,1.7-.39.44-.68.97-1.16,1.31-.34.24-.73.39-1.16.44-.44,0-.87-.05-1.31-.19-.53-.19-.97-.48-1.41-.78-.53-.39-1.07-.82-1.55-1.31-.58-.53-1.11-1.11-1.65-1.74-2.13,2.57-1.99,5.67-.82,7.08.44.53,5.96,7.08,11.44,7.46,4.07.29,8.43-1.26,9.79-5.28.44-1.36.58-2.81.24-4.22-.15-.68-.44-1.36-.82-1.99v.05Z"/>
        <path class="st0" d="M631.02,446.28c-49.39-19.43-96.78,2.67-130.85,27.09-34.07-24.47-81.47-46.53-130.85-27.09-1.16.44-.78,2.18.48,2.08,43.33-3.39,77.59,5.96,118.25,34.22-12.21,9.79-22.1,19.14-28.88,25.64-1.07-1.45-2.81-3.73-3.73-4.8-.44-.53-5.96-7.08-11.44-7.46-4.07-.29-8.43,1.26-9.79,5.28-.44,1.36-.58,2.81-.24,4.22.15.68.44,1.36.82,1.99.44.73.97,1.36,1.65,1.89s1.45.97,2.33,1.21h.05c.87.29,1.84.34,2.76.29.97-.1,1.94-.39,2.81-.87.78-.44,1.45-1.02,1.99-1.7.39-.44.68-.97,1.16-1.31.34-.24.73-.39,1.16-.44.44,0,.87.05,1.31.19.53.19.97.48,1.41.78,1.7,1.16,4.7,4.94,5.38,5.86.63.78,1.36,1.7,1.99,2.52.05.1.82,1.07.87,1.16,0,0-6.98-2.57-8.05-1.6-5.14,4.85-9.21,8.68-12.94,12.07-1.07.97-2.23,1.94-3.44,2.76-.97.68-1.99,1.26-3.05,1.79-.87.39-1.79.73-2.71.97-.82.19-1.65.29-2.47.24-.78,0-1.5-.1-2.23-.24s-1.41-.39-2.08-.63-1.31-.58-1.94-.87c-.63-.34-1.26-.68-1.99-.97-.63-.24-1.31-.39-2.04-.44h-1.31c-1.31.15-2.57.58-3.63,1.36-1.11.78-1.99,1.89-2.52,3.1-.53,1.16-.73,2.47-.58,3.78.15,1.31.63,2.62,1.41,3.68.53.78,1.26,1.45,1.99,2.08.82.68,1.74,1.21,2.71,1.65,1.07.48,2.13.87,3.3,1.21,1.21.34,2.47.53,3.73.68,1.36.15,2.71.19,4.02.15.63,0,1.21-.05,1.84-.15,8.72-.87,17.3-8.29,21.71-12.46,18.51-17.45,35.19-31.94,50.74-43.76,15.56,11.83,32.23,26.32,50.74,43.76,4.41,4.17,12.99,11.58,21.71,12.46.58.05,1.21.1,1.84.15,1.36.05,2.71,0,4.02-.15,1.26-.15,2.52-.34,3.73-.68,1.11-.29,2.23-.68,3.3-1.21.97-.44,1.89-1.02,2.71-1.65.78-.58,1.45-1.31,1.99-2.08.78-1.07,1.26-2.37,1.41-3.68.15-1.26-.1-2.57-.58-3.78-.53-1.21-1.45-2.33-2.52-3.1s-2.33-1.21-3.63-1.36c-.44,0-.87-.05-1.31,0-.68.05-1.36.19-2.04.44s-1.31.63-1.99.97c-.63.34-1.26.63-1.94.87-.68.24-1.36.48-2.08.63-.73.15-1.5.24-2.23.24-.82,0-1.65-.1-2.47-.24-.92-.19-1.84-.53-2.71-.97-1.07-.48-2.08-1.11-3.05-1.79-1.21-.82-2.33-1.79-3.44-2.76-3.73-3.39-7.8-7.22-12.94-12.07-1.07-1.02-8.05,1.6-8.05,1.6.05-.1.82-1.07.87-1.16.63-.82,1.36-1.7,1.99-2.52.73-.92,3.73-4.7,5.38-5.86.44-.29.92-.58,1.41-.78.44-.15.87-.24,1.31-.19.44,0,.82.19,1.16.44.48.34.78.87,1.16,1.31.53.68,1.21,1.26,1.99,1.7.87.48,1.84.78,2.81.87.92.1,1.84,0,2.76-.29h.05c.82-.24,1.65-.68,2.33-1.21.63-.53,1.21-1.16,1.65-1.89.39-.63.63-1.31.82-1.99.34-1.36.19-2.86-.24-4.22-1.36-4.02-5.77-5.57-9.79-5.28-5.48.39-11,6.93-11.44,7.46-.92,1.07-2.67,3.3-3.73,4.8-6.79-6.49-16.67-15.85-28.88-25.64,40.71-28.25,74.97-37.61,118.25-34.22,1.26.1,1.65-1.65.48-2.08h.1Z"/>
      </g>
    </g>
  </g>
</svg>