<?xml version="1.0" encoding="UTF-8"?>
<svg id="Layer_1" data-name="Layer 1" xmlns="http://www.w3.org/2000/svg" xmlns:xlink="http://www.w3.org/1999/xlink" viewBox="0 0 1000 1000">
  <defs>
    <style>
      .cls-1 {
        fill: url(#radial-gradient);
      }

      .cls-1, .cls-2 {
        stroke-width: 0px;
      }

      .cls-2 {
        fill: #1d2346;
      }
    </style>
    <radialGradient id="radial-gradient" cx="296.81" cy="381.57" fx="296.81" fy="381.57" r="73.16" gradientUnits="userSpaceOnUse">
      <stop offset="0" stop-color="#e06e0c"/>
      <stop offset="1" stop-color="#e22419"/>
    </radialGradient>
  </defs>
  <g>
    <path class="cls-2" d="M480.06,428.77c7.77-.5,15.53-.08,23.29-.17-7.6,9.69-15.61,19.12-23.38,28.73-2.17,2.67-4.51,5.26-6.43,8.18,8.77.25,17.45,0,26.21.08,5.43.08,10.85-.42,16.2.75,10.1,2,19.45,8.43,24.38,17.62,3.67,6.68,4.76,14.62,3.51,22.13-.5,2.92-1.59,5.68-2.34,8.52h17.53c4.09,0,8.52-.59,11.86-3.34,3.92-3.09,5.34-8.35,5.51-13.19.25-10.86-.08-21.71.17-32.57h21.96v33.9c.08,5.09-.33,10.19-2.17,14.95-2.51,6.43-7.43,11.86-13.53,15.11-7.26,3.92-15.61,5.18-23.71,5.09h-154.54c-7.93,9.27-15.45,18.87-23.29,28.23-.84,1.09-2.25.67-3.42.75h-21.79c7.6-9.86,15.95-19.12,23.38-29.06-10.27-1-20.29-5.18-27.55-12.61-7.52-7.52-11.69-18.12-11.35-28.73,0-10.44,4.59-20.79,12.19-27.98,8.52-8.1,20.46-12.36,32.14-11.86,11.52.33,22.96,5.35,30.73,13.86,7.77,8.35,11.27,20.04,9.94,31.31-.42,5.68-2.67,10.94-5.18,16.03h87.25c3.17,0,6.34-.75,8.85-2.76,7.43-5.51,7.35-18.46-.33-23.72-2.25-1.67-5.01-2.51-7.85-2.51h-61.53c0-5.35-.25-10.69.08-16.03,1.42-2.34,3.34-4.26,5.01-6.35,9.44-11.44,18.7-23.13,28.31-34.49l-.08.08h0ZM378.11,473.45c-5.93,1.5-11.1,5.93-13.27,11.69-3.42,8.77-1.59,20.13,6.18,25.97,7.35,5.84,18.87,5.35,25.63-1.17,9.35-8.68,8.6-26.14-2.09-33.57-4.68-3.43-10.85-4.43-16.45-2.92h0Z"/>
    <path class="cls-2" d="M719.76,446.72c5.76-1.67,12.27,2.34,13.53,8.18,1.5,5.84-2.59,12.28-8.52,13.36-5.76,1.33-12.02-2.76-13.11-8.6-1.25-5.6,2.51-11.61,8.1-12.86v-.08Z"/>
    <path class="cls-2" d="M628.26,465.35c8.6-8.27,20.79-12.61,32.73-11.94,12.02.42,23.8,5.93,31.56,15.2,10.77,12.53,11.94,31.9,3.51,46.01h35.4c4.01,0,8.18-.5,11.44-2.92,4.26-3.09,5.84-8.52,6.01-13.61.17-10.86,0-21.63.08-32.49h21.96c.17,10.86,0,21.63,0,32.49.33,8.1-.92,16.62-6.01,23.13-6.93,9.35-18.95,13.03-30.14,13.36-18.2.17-36.49,0-54.69.17-7.93,9.6-15.7,19.21-23.55,28.81-8.26.25-16.62,0-24.88,0,7.85-9.77,15.86-19.29,23.63-29.06-11.19-.92-22.12-5.93-29.47-14.53-6.43-7.35-9.85-17.04-9.52-26.81,0-10.44,4.51-20.63,12.02-27.81h-.09ZM654.89,473.11c-5.93,1.17-11.19,5.18-13.78,10.69-4.17,9.02-2.51,21.38,5.93,27.39,7.43,5.76,18.95,5.09,25.55-1.59,9.18-8.85,8.26-26.22-2.42-33.41-4.34-3.17-10.02-4.17-15.28-3.09h0Z"/>
    <path class="cls-2" d="M547.52,547.19c5.84-1.42,12.27,2.76,13.19,8.68,1.25,5.76-2.92,11.94-8.77,12.94-5.76,1.25-12.02-3.01-12.94-8.85-1.17-5.68,2.84-11.69,8.52-12.78Z"/>
    <path class="cls-2" d="M349.64,595.71c7.93-7.35,19.12-8.6,29.56-8.43,9.94.17,20.54,1.59,27.89,8.68,5.84,5.51,8.77,13.61,8.85,21.63v48.27c-7.18.25-14.45.08-21.63,0-.17-14.45,0-28.98,0-43.42,0-5.43-1.92-11.61-6.93-14.45-5.26-2.92-12.02-2.92-17.53-.42-5.51,2.67-7.68,9.19-7.68,14.87v43.26c-7.18.42-14.45.17-21.63.17-.17-15.87,0-31.73,0-47.6-.08-8.35,2.92-16.87,9.1-22.63v.08h0Z"/>
    <path class="cls-2" d="M543.68,589.36c11.52-3.43,24.46-3.01,35.24,2.51,9.94,4.84,17.2,13.28,19.54,24.05,2.17,10.19,1.5,21.3-3.51,30.57-5.34,10.36-15.53,17.95-26.8,20.54-9.85,2.34-20.29.92-29.31-3.51-.17,10.36,0,20.71,0,31.07-7.18.17-14.36.17-21.46,0v-65.14c0-6.93.75-13.95,3.17-20.46,3.67-10.27,12.94-16.62,23.21-19.62h-.08,0ZM555.78,605.9c-5.93.67-11.27,4.43-14.19,9.6-5.18,9.52-3.51,23.38,5.84,29.73,7.26,5.26,18.12,4.17,24.29-2.34,7.52-7.77,7.85-21.13,1.5-29.73-4.01-5.26-10.94-8.18-17.45-7.27h0Z"/>
    <path class="cls-2" d="M624.25,596.96c9.27-7.77,21.79-10.69,33.9-9.44,8.52.92,17.11,2.09,24.38,6.85-3.09,5.43-6.18,10.77-9.27,16.2-6.01-2.76-12.53-5.18-19.2-4.51-7.1.67-13.53,5.6-16.11,12.19-2.17,5.6-2.17,11.94-.08,17.54,2.59,6.93,9.44,12.03,16.78,12.44,6.43.42,12.69-1.67,18.37-4.59,3.51,5.26,6.43,10.86,9.52,16.37-7.26,4.59-15.78,7.01-24.38,7.85-14.94,1.33-30.48-4.93-39.83-16.79-5.93-7.43-8.77-17.12-8.1-26.55.5-10.6,5.93-20.79,14.03-27.56h0Z"/>
    <path class="cls-2" d="M720.51,587.77c10.27-1.59,21.12-.92,30.06,4.34,9.52,5.35,16.78,15.78,19.28,26.39,2.34,9.94,1.09,20.88-4.09,29.73-5.68,10.02-15.78,15.95-26.88,18.62-11.52,2.76-24.13,1.09-34.23-5.09-9.6-5.68-16.87-15.45-18.95-26.47-1.67-8.85-.67-18.29,3.51-26.31,6.01-11.94,18.2-19.13,31.31-21.13v-.08h0ZM723.27,606.23c-5.93,1.42-11.19,5.68-13.61,11.27-3.84,9.1-2,21.21,6.43,27.22,7.52,5.76,19.2,4.93,25.88-1.84,9.02-8.85,8.18-26.06-2.42-33.49-4.68-3.34-10.69-4.51-16.28-3.17Z"/>
    <path class="cls-2" d="M428.88,589.44c7.18-.08,14.45,0,21.63,0,.17,14.62,0,28.23.08,42.84.08,5.43,2.09,11.44,7.18,14.11,5.43,2.84,12.36,2.84,17.87,0,5.18-2.84,7.1-9.19,7.1-14.78v-42.09c7.26-.17,14.53-.17,21.79,0-.08,16.03,0,30.98,0,47.02,0,8.6-3.42,17.37-10.1,22.97-9.02,7.52-21.46,9.27-32.81,8.43-10.35-.84-21.29-4.93-27.3-13.86-4.51-6.26-5.51-14.28-5.26-21.8v-42.76l-.17-.08h0Z"/>
  </g>
  <path class="cls-1" d="M271.49,306.6c1-.59,2-1.17,3.09-1.42,1.92.5,3.59,1.75,5.34,2.67,13.36,7.77,26.8,15.53,40.16,23.3,1.09.59,2.17,1.59,2,2.92,0,15.62,0,31.15.08,46.77-.08,1.33.17,3.17-1.17,3.92-1.59,1.17-3.34-.17-4.84-.84-2.84-1.59-5.84-2.92-8.68-4.68-1.09-.5-1.33-1.67-1.33-2.67-.08-11.61.08-23.22-.08-34.82-.92-1.25-2.59-1.75-3.84-2.59-9.27-5.26-18.37-10.77-27.64-16.03-9.94,5.68-19.87,11.52-29.81,17.28-.67.5-1.84.92-1.67,2,0,11.11,0,22.21.08,33.41,6.01,3.59,12.11,7.01,18.12,10.52,1.09.67,2.59,1.42,2.42,2.92.08,4.09.08,8.18,0,12.28.17,2.25-2.76,3.51-4.42,2.09-10.02-5.76-20.04-11.61-30.06-17.45-1.25-.67-2.42-1.75-2.17-3.34v-46.09c.08-1.84-.5-4.43,1.59-5.43,14.2-8.35,28.56-16.54,42.75-24.89l.08.17h0ZM329.94,360.88c.25-1.92,2.84-2.67,4.34-1.5,10.02,5.76,20.04,11.61,30.06,17.45,1.25.67,2.42,1.75,2.17,3.34,0,16.28.17,32.57,0,48.85.25,1.5-1.09,2.51-2.25,3.17-14.28,8.27-28.55,16.54-42.75,24.89-1.25.75-2.76,1.33-4.01.42-14.03-8.1-27.97-16.28-42-24.3-1.5-1-4.01-1.75-3.84-4.01v-48.19c-.33-2.17,2.25-3.84,4.09-2.59,3.59,1.84,7.1,3.59,10.6,5.6,1.75.92,1.09,3.09,1.25,4.68v33.07c10.52,6.1,20.96,12.28,31.56,18.29,10.44-6.1,20.79-12.19,31.31-18.12.17-11.44,0-22.97,0-34.41-6.43-3.84-13.02-7.43-19.45-11.36-1.5-.75-1.17-2.67-1.25-4.09.08-3.67-.17-7.35.17-10.94v-.25h0ZM308.31,390.27c1.5-.25,2.84.84,4.17,1.42,2.84,1.59,5.84,2.92,8.6,4.68,1.17.67.84,2.17,1,3.26,0,3.92.08,7.93-.08,11.86,0,1.84-2.34,2.92-3.92,2-3.59-1.75-7.1-3.59-10.6-5.6-1.5-.75-1.33-2.59-1.33-4.01,0-3.67-.08-7.43,0-11.11,0-1.25.92-2.34,2.17-2.59v.08h0Z"/>
</svg>