<?xml version="1.0" encoding="utf-8"?>
<!-- Generator: Adobe Illustrator 28.1.0, SVG Export Plug-In . SVG Version: 6.00 Build 0)  -->
<svg version="1.1" id="Layer_1" xmlns="http://www.w3.org/2000/svg" xmlns:xlink="http://www.w3.org/1999/xlink" x="0px" y="0px"
	 viewBox="0 0 1000 1000" style="enable-background:new 0 0 1000 1000;" xml:space="preserve">
<style type="text/css">
	.st0{display:none;fill:#808184;}
	.st1{display:none;fill:#EC1C24;}
	.st2{fill:#757A81;}
	.st3{fill:#93A0A7;}
	.st4{fill:#27AFBA;}
	.st5{fill:#81358A;}
	.st6{fill:#CD9C00;}
	.st7{fill:#7D9299;}
	.st8{fill:#5B69B0;}
	.st9{fill:#6B757D;}
	.st10{fill:#BD1622;}
	.st11{fill:#8898A1;}
	.st12{fill:#71B645;}
	.st13{fill:#70777F;}
	.st14{fill:#00859A;}
	.st15{fill:#28316F;}
	.st16{fill:#006633;}
	.st17{fill:#3C3B39;}
	.st18{fill:#B3B0B2;}
</style>
<g>
	<g>
		<g>
			<path class="st2" d="M275,481.4c-9.5,0-13.1-4.4-13.1-11.4c0-6.4,4-12.3,12.9-12.3c5.8,0,10.3,1.7,10.3,1.7v16.8h5v5.1H275z
				 M270.3,448.7c1.8,0,3.2,1.4,3.2,3.2c0,1.8-1.4,3.2-3.2,3.2c-1.9,0-3.2-1.5-3.2-3.2S268.6,448.7,270.3,448.7z M278.9,463.8
				c0,0-1.9-0.9-4.7-0.9c-3.7,0-5.8,2.8-5.8,6.6c0,4.5,2.2,6.9,7.3,6.9h3.1V463.8z M278.2,448.7c1.7,0,3.2,1.4,3.2,3.2
				c0,1.7-1.4,3.2-3.2,3.2c-1.8,0-3.2-1.5-3.2-3.2S276.4,448.7,278.2,448.7z M289.4,476.3h5.9v5.1h-5.9V476.3z M290.7,476.3h5.9v5.1
				h-5.9V476.3z M295.9,476.3h5.9v5.1h-5.9V476.3z M301.1,476.3h5.9v5.1h-5.9V476.3z M306.2,476.3h5.9v5.1h-5.9V476.3z M311.4,476.3
				h5.9v5.1h-5.9V476.3z M316.6,476.3h5.9v5.1h-5.9V476.3z M321.8,481.4c-1,0-2.9-1-2.9-2.5c0-1.5,2-2.5,2.9-2.5h3.8
				c1.7,0,2.7,0.3,2.7,0.3c-1.8-1.3-2.7-3.5-2.7-7c0-6.2,4.3-11.9,12.7-11.9c7.6,0,11.1,4.4,11.1,11.3v12.4H321.8z M343.1,469.8
				c0-4.9-2-7-5.2-7c-3.7,0-5.8,2.8-5.8,6.6c0,4.6,2.3,6.9,7.3,6.9h3.7V469.8z M354.7,476.3h14.5c-0.3-7.2-3.8-11.7-11.6-13.7
				l1.6-5.4c10.1,2.6,15.7,8.2,16.3,19.1h2.7v5.1h-23.5V476.3z M377.5,481.4c-1,0-2.9-1-2.9-2.5c0-1.5,2-2.5,2.9-2.5h17.1
				c0.1-1.2,0.2-2.5,0.2-3.7c0-6.2-2.5-9.4-9.5-9.4c-1.9,0-3.7,0.2-5.5,0.5v-5c1.9-0.3,4-0.5,6.1-0.5c11,0,15.4,4.8,15.4,14.2
				c0,2.4-0.2,5.5-0.8,9.1H377.5z M387.3,448.7c1.8,0,3.4,1.5,3.4,3.4s-1.6,3.4-3.4,3.4c-1.9,0-3.4-1.6-3.4-3.4
				C383.9,450.2,385.5,448.7,387.3,448.7z M431.8,481.4c-7.2,0-9.2,2.4-9.2,5.4c0,2.7,2.4,5.2,8.1,5.2l-0.4,5.1
				c-9.6,0-14.1-4.2-14.1-9.9c0-6.2,4.7-10.9,15.9-10.9h3.3c0.1-1.2,0.2-2.5,0.2-3.7c0-6.2-2.5-9.4-9.6-9.4c-2,0-3.8,0.1-5.6,0.4v-5
				c1.9-0.2,4.2-0.4,6.3-0.4c11,0,15.4,4.8,15.4,14.2c0,1.2,0,2.5-0.2,4h3.1v5.1H431.8z M435,484.7c1.9,0,3.3,1.4,3.3,3.3
				c0,1.9-1.5,3.3-3.3,3.3c-1.9,0-3.3-1.5-3.3-3.3C431.7,486.1,433.1,484.7,435,484.7z M444.2,481.4c-1,0-2.9-1-2.9-2.5
				c0-1.5,2-2.5,2.9-2.5h3.8c1.7,0,2.7,0.3,2.7,0.3c-1.8-1.3-2.7-3.5-2.7-7c0-6.2,4.3-11.9,12.7-11.9c7.6,0,11.1,4.4,11.1,11.3v12.4
				H444.2z M465.4,469.8c0-4.9-2-7-5.2-7c-3.7,0-5.8,2.8-5.8,6.6c0,4.6,2.3,6.9,7.3,6.9h3.7V469.8z M478.8,446.9h6.5v29.4h5v5.1
				h-11.5V446.9z M489.5,481.4c-1,0-2.9-1-2.9-2.5c0-1.5,2-2.5,2.9-2.5h5.8v-17.9h6.5v23H489.5z M498.5,448.7c1.8,0,3.4,1.5,3.4,3.4
				s-1.6,3.4-3.4,3.4c-1.9,0-3.4-1.6-3.4-3.4C495.2,450.2,496.7,448.7,498.5,448.7z M502.6,493.4l0.5-5.1c1.2,0.3,2.4,0.6,4,0.6
				c3.3,0,5.3-1.6,5.3-6.9v-23.5h6.5v17.9h5v5.1h-5v0.2c0,6.3-2.2,12.2-12.1,12.2C505.1,493.9,503.7,493.7,502.6,493.4z
				 M521.9,481.4c-1,0-2.9-1-2.9-2.5c0-1.5,2-2.5,2.9-2.5h5.8v-17.9h6.5v23H521.9z M530.6,484.7c1.9,0,3.3,1.4,3.3,3.3
				c0,1.9-1.5,3.3-3.3,3.3c-1.9,0-3.3-1.5-3.3-3.3C527.3,486.1,528.7,484.7,530.6,484.7z"/>
			<path class="st2" d="M288.4,538.8h5v5.1h-5.3c-1,7.5-5.4,11.3-13.6,11.3c-7.8,0-12.9-4.1-12.9-13.9c0-2.8,0.4-5.9,1.1-8.8
				l6.7-1.2c-0.9,3.1-1.4,6.4-1.4,9.4c0,7.5,3.5,9.4,7,9.4c4.3,0,6.9-2.3,6.9-9.3v-19.9h6.5V538.8z M274.3,521
				c1.8,0,3.4,1.5,3.4,3.4c0,1.9-1.6,3.4-3.4,3.4c-1.9,0-3.4-1.6-3.4-3.4C271,522.5,272.5,521,274.3,521z M300.7,540.1
				c-0.9,2.3-2.8,3.8-7,3.8h-1c-1,0-2.9-1-2.9-2.5c0-1.5,2-2.5,2.9-2.5h0.3c2.9,0,4.8-1.6,4.8-6.7c0-6.2,4.3-11.9,12.7-11.9
				c7.6,0,11.1,4.4,11.1,11.3v7.3h3.9v5.1h-14C304.6,543.9,302.4,542.4,300.7,540.1z M315.4,532.3c0-4.9-2-7-5.2-7
				c-3.7,0-5.8,2.8-5.8,6.6c0,4.6,2.3,6.9,7.3,6.9h3.7V532.3z M324.8,543.9c-1,0-2.9-1-2.9-2.5c0-1.5,2-2.5,2.9-2.5h17.1
				c0.1-1.2,0.2-2.5,0.2-3.7c0-6.2-2.5-9.4-9.5-9.4c-1.9,0-3.7,0.2-5.5,0.5v-5c1.9-0.3,4-0.5,6.1-0.5c11,0,15.4,4.8,15.4,14.2
				c0,2.4-0.2,5.5-0.8,9.1H324.8z M348.3,555.9l0.5-5.1c1.2,0.3,2.4,0.6,4,0.6c3.3,0,5.3-1.6,5.3-6.9v-23.5h6.5v17.9h5v5.1h-5v0.2
				c0,6.3-2.2,12.2-12.1,12.2C350.9,556.4,349.4,556.2,348.3,555.9z M367.6,543.9c-1,0-2.9-1-2.9-2.5c0-1.5,2-2.5,2.9-2.5h5.8v-29.4
				h6.5v34.5H367.6z M387.7,509.4h6.5v34.5h-6.5V509.4z M440,543.9h-10.4c-13.3,0-18-5.5-18-14.5c0-2.6,0.5-5.7,1.3-7.7l7-1.1
				c-1.1,2.3-1.7,5.5-1.7,8.1c0,6.9,3.2,10.1,11.1,10.1h1.6c-1.4-1.3-2.2-3.7-2.2-6.4c0-7,5-12.2,12.4-12.2c7,0,11.4,3.6,11.4,11.4
				C452.5,538.8,447.3,543.9,440,543.9z M440.6,525.4c-2.8,0-5.5,2-5.5,6.6s1.9,6.9,5.4,6.9c3.1,0,5.4-2.3,5.4-6.8
				C446,527.7,444.3,525.4,440.6,525.4z M440.7,511.2c1.8,0,3.4,1.5,3.4,3.4c0,1.9-1.6,3.4-3.4,3.4c-1.9,0-3.4-1.6-3.4-3.4
				C437.3,512.7,438.9,511.2,440.7,511.2z M457.7,555.6l0.4-5.3c0,0,3.8,0.8,7.6,0.8c5.1,0,8.5-1.9,8.5-6.5v-0.7h-3.9
				c-9.5,0-13.1-4.4-13.1-11.4c0-6.4,4-12.3,12.9-12.3c5.8,0,10.3,1.7,10.3,1.7v16.8h5v5.1h-5v0.1c0,6.8-4.4,12.2-15.3,12.2
				C461.5,556.3,457.7,555.6,457.7,555.6z M474.2,526.2c0,0-1.9-0.9-4.7-0.9c-3.7,0-5.8,2.8-5.8,6.6c0,4.5,2.2,6.9,7.3,6.9h3.1
				V526.2z M481.8,541.4c0-1.5,2-2.5,2.9-2.5h5.8v-17.9h6.5v17.9h5v5.1h-17.3C483.8,543.9,481.8,542.9,481.8,541.4z M489.8,547.5
				c1.7,0,3.2,1.4,3.2,3.2c0,1.7-1.4,3.2-3.2,3.2c-1.8,0-3.2-1.5-3.2-3.2C486.6,548.9,488,547.5,489.8,547.5z M497.6,547.5
				c1.7,0,3.2,1.4,3.2,3.2c0,1.7-1.4,3.2-3.2,3.2c-1.8,0-3.2-1.5-3.2-3.2C494.4,548.9,495.9,547.5,497.6,547.5z M501.3,543.9
				c-1,0-2.9-1-2.9-2.5c0-1.5,2-2.5,2.9-2.5h5.8v-17.9h6.5v1.2c0,2.2-0.1,4.9-0.6,7.2h0.1c2.2-5.9,7.2-9.1,12.4-9.1
				c6.8,0,10.3,4.2,10.3,11.1c0,7-4.1,12.5-15,12.5H501.3z M521.4,538.8c6.1,0,7.8-3.1,7.8-7c0-4-1.6-6.4-5-6.4
				c-5.3,0-9.6,6.5-10.6,13.4H521.4z M523.9,511.2c1.8,0,3.4,1.5,3.4,3.4c0,1.9-1.6,3.4-3.4,3.4c-1.9,0-3.4-1.6-3.4-3.4
				C520.5,512.7,522.1,511.2,523.9,511.2z"/>
		</g>
		<g>
			<path class="st3" d="M692.8,506.6c-0.8-0.5-2.3-1.2-4.3-1.8c-2.9-0.9-6.9-1.6-11.7-0.9c-1.6,0.3-3.3,0.7-5.1,1.3
				c-0.2,0.1-0.3,0.1-0.5,0.2c-0.9,0.3-1.8,0.7-2.7,1.2c-0.8,0.4-1.5,0.8-2.3,1.3c-1.7,1-3.4,2.2-5.1,3.5c-1.9-11.4-1-22.1-0.5-27.3
				c0,0,0,0,0.1,0c4,2.6,2.9,9.7,2.1,11.7c0,0,0,0.1,0.1,0c5-6,2.6-12.5,1.5-14.2c0,0,0-0.1,0.1,0c0.7,0.6,1.3,1.2,1.8,1.9
				c1.6,2,2.1,4.2,2.3,6.1c0.1,1,0.1,1.9,0,2.7c0,0.2,0,0.4-0.1,0.6c0,0,0,0,0.1,0c0,0,0,0,0,0c1.4-2.7,2-6.7,0-10.7
				c-0.6-1.1-1.3-2.1-2.3-3.1c-0.3-0.3-0.6-0.6-0.9-0.9c0,0,0-0.1,0-0.1c0.3,0.1,0.6,0.2,0.9,0.3c0.9,0.3,1.6,0.7,2.3,1.2
				c1.5,1.1,2.6,2.7,3.2,4.3c0.5,1.3,0.7,2.7,0.7,3.9c0,0,0.1,0,0.1,0c0.9-3.5,0.4-6.1-0.8-8c-0.9-1.4-2-2.4-3.2-3.1
				c-0.8-0.5-1.6-0.8-2.3-1c-0.4-0.1-0.8-0.2-1.1-0.2c0,0,0-0.1,0-0.1c0.4,0,0.7-0.1,1.1-0.1c0.9,0,1.6,0.1,2.3,0.2
				c1.3,0.2,2.4,0.7,3.2,1.3c1.3,0.9,1.9,1.9,2.1,2.3c0,0,0.1,0,0.1,0c-0.2-1.8-1-3.3-2.2-4.3c-0.9-0.8-2-1.4-3.2-1.7
				c-0.8-0.2-1.5-0.3-2.3-0.3c-1,0-2,0.2-2.9,0.5c0,0-0.1,0,0-0.1c0.7-1.1,1.8-1.7,2.9-2.1c0.8-0.2,1.6-0.3,2.3-0.3
				c0.7,0,1.4,0.2,1.9,0.4c0,0,0.1,0,0-0.1c-0.6-0.7-1.2-1.2-1.9-1.6c-0.7-0.4-1.5-0.7-2.3-0.7c-2-0.2-4.1,0.6-5.5,2.7
				c0,0-0.1,0-0.1,0c-0.3-0.5-0.5-1-0.8-1.6c-0.6-1.3-1-2.7-1.3-4.2c0,0-0.1,0-0.1,0c-0.2,1.4-0.7,2.9-1.3,4.2
				c-0.2,0.5-0.5,1.1-0.8,1.5c0,0,0,0-0.1,0c-2.4-3.7-7-3.6-9.7-0.4c0,0,0,0.1,0,0.1c1.8-0.9,5.3-0.6,7.1,1.9c0,0,0,0.1,0,0.1
				c-2.7-1.1-6.9-0.4-9.1,2.3c-0.8,0.9-1.3,2.1-1.5,3.6c0,0,0.1,0.1,0.1,0c0.2-0.3,0.6-1,1.4-1.7c1.3-1.1,3.6-2.3,7.3-2
				c0,0,0.1,0.1,0,0.1c-1.9,0.2-5.9,2-7.3,5.9c-0.6,1.7-0.8,3.9-0.1,6.5c0,0,0.1,0,0.1,0c0-0.1,0-0.1,0-0.2c0-3.6,2.1-8.3,7.1-9.5
				c0,0,0.1,0,0,0.1c-5.6,4.9-5.1,11-3.2,14.7c0,0,0.1,0,0.1,0c-0.2-2.7-0.4-7.6,4.1-11.3c0,0,0.1,0,0.1,0c-1,1.7-3.5,8.3,1.5,14.2
				c0,0,0.1,0,0.1,0c-0.8-2-2-9.2,2.1-11.7c0,0,0.1,0,0.1,0c0.4,5.2,1.4,15.8-0.5,27.3c-3.3-2.5-6.7-4.7-10.1-6
				c-0.4-0.2-0.8-0.3-1.2-0.4c-3.5-1.2-6.7-1.5-9.5-1.4c-4.5,0.2-7.9,1.5-9.8,2.5c-0.4,0.2-0.7,0.4-1,0.5c-0.1,0.1,0,0.2,0.1,0.2
				c0.3-0.1,0.6-0.2,0.9-0.3c3.5-1,6.7-1.2,9.8-1c3.4,0.3,6.5,1.2,9.5,2.6c4.2,1.9,7.9,4.6,11.3,7.4c-4.8,4.2-8.9,8.3-11.3,9.7
				c-0.1,0.1-0.2,0.1-0.4,0.2c-0.6-0.8-1.6-1.3-2.7-1c-1,0.2-1.8,1-2,2c-0.2,0.9,0,1.8,0.5,2.3c1.3,1.3,2.8,1.4,4.6,0.7
				c3.3-1.4,7.5-5.8,12.5-10.5c0.4-0.4,0.9-0.8,1.3-1.2c0.4,0.4,0.9,0.8,1.3,1.2c2.3,2.1,4.4,4.2,6.3,5.9c0.8,0.7,1.6,1.4,2.3,2
				c1.1,0.9,2.2,1.7,3.2,2.2c1.9,1,3.6,1.2,5.1-0.1c0.1-0.1,0.2-0.1,0.2-0.2c0.3-0.3,0.7-1.4,0.5-2.3c-0.1-0.5-0.4-1-0.7-1.3
				c-0.3-0.3-0.8-0.6-1.2-0.7c-1.1-0.2-2.1,0.2-2.7,1c-0.3-0.2-0.7-0.4-1.1-0.7c-0.9-0.6-2-1.5-3.2-2.6c-0.7-0.6-1.5-1.3-2.3-2.1
				c-1.6-1.4-3.3-3-5.1-4.6c1.6-1.4,3.3-2.7,5.1-3.9c0.7-0.5,1.5-1,2.3-1.5c1-0.6,2.1-1.2,3.2-1.7c1.6-0.8,3.3-1.4,5.1-1.9
				c3.6-1,7.5-1.4,11.7-0.7c1.4,0.2,2.8,0.5,4.2,1C692.8,506.8,692.9,506.7,692.8,506.6"/>
			
				<rect x="653.2" y="570.6" transform="matrix(0.7071 -0.7071 0.7071 0.7071 -214.4106 634.4758)" class="st17" width="10.9" height="10.9"/>
			
				<rect x="595.3" y="525.5" transform="matrix(0.3091 -0.951 0.951 0.3091 -89.7158 936.5504)" class="st17" width="9" height="9"/>
			
				<rect x="621.1" y="449.7" transform="matrix(0.1562 -0.9877 0.9877 0.1562 79.3482 999.8243)" class="st17" width="7.5" height="7.5"/>
			
				<rect x="712.5" y="496.3" transform="matrix(0.7071 -0.7071 0.7071 0.7071 -143.7836 652.871)" class="st17" width="7.5" height="7.5"/>
			
				<rect x="709.6" y="478.5" transform="matrix(0.4539 -0.891 0.891 0.4539 -40.1153 898.995)" class="st17" width="7.5" height="7.5"/>
			
				<rect x="621.1" y="542.8" transform="matrix(0.9877 -0.1562 0.1562 0.9877 -77.7139 104.341)" class="st17" width="7.5" height="7.5"/>
			
				<rect x="688.8" y="449.7" transform="matrix(0.9877 -0.1561 0.1561 0.9877 -62.3117 113.6877)" class="st17" width="7.5" height="7.5"/>
			
				<rect x="637.2" y="551" transform="matrix(0.8911 -0.4539 0.4539 0.8911 -181.9478 351.3347)" class="st17" width="7.5" height="7.5"/>
			
				<rect x="655" y="438.8" transform="matrix(0.7071 -0.7071 0.7071 0.7071 -119.9627 595.3502)" class="st17" width="7.5" height="7.5"/>
			
				<rect x="647.8" y="447.5" transform="matrix(0.5876 -0.8092 0.8092 0.5876 -96.1858 712.499)" class="st17" width="6.2" height="6.2"/>
			
				<rect x="663.4" y="546.3" transform="matrix(0.5876 -0.8092 0.8092 0.5876 -169.6676 765.9049)" class="st17" width="6.2" height="6.2"/>
			
				<rect x="611" y="474.2" transform="matrix(0.951 -0.309 0.309 0.951 -117.4437 213.1573)" class="st17" width="6.2" height="6.2"/>
			
				<rect x="700.2" y="519.6" transform="matrix(0.951 -0.309 0.309 0.951 -127.1133 242.9224)" class="st17" width="6.2" height="6.2"/>
			
				<rect x="606.2" y="504.7" transform="matrix(0.5876 -0.8092 0.8092 0.5876 -159.6327 702.4478)" class="st17" width="6.2" height="6.2"/>
			
				<rect x="725.6" y="518.1" transform="matrix(0.8911 -0.4538 0.4538 0.8911 -157.9669 388.7869)" class="st17" width="10.9" height="10.9"/>
			
				<rect x="608.5" y="556.1" transform="matrix(0.9877 -0.1565 0.1565 0.9877 -80.3241 103.0214)" class="st17" width="10.9" height="10.9"/>
			
				<rect x="698" y="433" transform="matrix(0.9877 -0.1565 0.1565 0.9877 -59.9382 115.4481)" class="st17" width="10.9" height="10.9"/>
			
				<rect x="588.9" y="505.8" transform="matrix(0.5878 -0.809 0.809 0.5878 -168.287 690.4155)" class="st17" width="9" height="9"/>
			
				<rect x="637.2" y="441.6" transform="matrix(0.4539 -0.8911 0.8911 0.4539 -46.7841 814.2714)" class="st17" width="7.5" height="7.5"/>
			
				<rect x="600.3" y="478.5" transform="matrix(0.891 -0.4539 0.4539 0.891 -153.0806 326.6926)" class="st17" width="7.5" height="7.5"/>
			
				<rect x="655" y="553.8" transform="matrix(0.7071 -0.7071 0.7071 0.7071 -201.2959 629.0389)" class="st17" width="7.5" height="7.5"/>
			
				<rect x="700.2" y="474.2" transform="matrix(0.309 -0.951 0.951 0.309 31.9748 998.6046)" class="st17" width="6.2" height="6.2"/>
			<rect x="620.2" y="532.3" class="st17" width="6.2" height="6.2"/>
			
				<rect x="580.9" y="471.1" transform="matrix(0.8909 -0.4542 0.4542 0.8909 -152.451 318.2905)" class="st17" width="10.9" height="10.9"/>
			
				<rect x="580.9" y="518.1" transform="matrix(0.454 -0.891 0.891 0.454 -146.3008 808.2614)" class="st17" width="10.9" height="10.9"/>
			<rect x="624.2" y="436.6" transform="matrix(0.3094 -0.9509 0.9509 0.3094 14.703 902.386)" class="st17" width="9" height="9"/>
			
				<rect x="684.2" y="554.4" transform="matrix(0.3094 -0.9509 0.9509 0.3094 -55.9033 1040.8777)" class="st17" width="9" height="9"/>
			
				<rect x="713.1" y="525.5" transform="matrix(0.9511 -0.309 0.309 0.9511 -128.6555 247.6682)" class="st17" width="9" height="9"/>
			
				<rect x="719.5" y="505.8" transform="matrix(0.8088 -0.588 0.588 0.8088 -161.698 523.2863)" class="st17" width="9" height="9"/>
			
				<rect x="713.1" y="465.5" transform="matrix(0.309 -0.9511 0.9511 0.309 48.9045 1007.2544)" class="st17" width="9" height="9"/>
			<rect x="700.9" y="448.7" class="st17" width="9" height="9"/>
			
				<rect x="624.2" y="554.4" transform="matrix(0.9511 -0.309 0.309 0.9511 -141.9342 221.5859)" class="st17" width="9" height="9"/>
			
				<rect x="664.5" y="560.8" transform="matrix(0.5878 -0.809 0.809 0.5878 -181.5709 774.291)" class="st17" width="9" height="9"/>
			
				<rect x="600.3" y="514" transform="matrix(0.4539 -0.891 0.891 0.4539 -131.5284 820.9327)" class="st17" width="7.5" height="7.5"/>
			<rect x="620.2" y="461.5" class="st17" width="6.2" height="6.2"/>
			
				<rect x="606.2" y="489.1" transform="matrix(0.8092 -0.5876 0.5876 0.8092 -172.92 451.9348)" class="st17" width="6.2" height="6.2"/>
			
				<rect x="678.3" y="452.4" transform="matrix(0.9511 -0.309 0.309 0.9511 -107.3908 232.8584)" class="st17" width="6.2" height="6.2"/>
			
				<rect x="663.4" y="447.5" transform="matrix(0.8089 -0.5879 0.5879 0.8089 -137.5633 477.9648)" class="st17" width="6.2" height="6.2"/>
			
				<rect x="691.3" y="523" transform="matrix(0.9877 -0.1565 0.1565 0.9877 -73.69 115.0468)" class="st17" width="5.1" height="5.1"/>
			
				<rect x="699.6" y="497.4" transform="matrix(0.7071 -0.7071 0.7071 0.7071 -147.89 642.9548)" class="st17" width="5.1" height="5.1"/>
			
				<rect x="725.6" y="471.1" transform="matrix(0.454 -0.891 0.891 0.454 -25.4278 911.4985)" class="st17" width="10.9" height="10.9"/>
			<rect x="700.9" y="542.3" class="st17" width="9" height="9"/>
			
				<rect x="595.2" y="465.5" transform="matrix(0.9509 -0.3095 0.3095 0.9509 -115.9958 208.6648)" class="st17" width="9" height="9"/>
			
				<rect x="684.2" y="436.6" transform="matrix(0.951 -0.3091 0.3091 0.951 -102.6137 234.4998)" class="st17" width="9" height="9"/>
			
				<rect x="643.8" y="430.2" transform="matrix(0.588 -0.8088 0.8088 0.588 -84.4866 703.4755)" class="st17" width="9" height="9"/>
			
				<rect x="709.7" y="514" transform="matrix(0.891 -0.4539 0.4539 0.891 -157.2973 380.2198)" class="st17" width="7.5" height="7.5"/>
			
				<rect x="597.4" y="496.3" transform="matrix(0.7074 -0.7068 0.7068 0.7074 -177.5042 571.1945)" class="st17" width="7.5" height="7.5"/>
			
				<rect x="705" y="504.7" transform="matrix(0.8092 -0.5876 0.5876 0.8092 -163.2629 512.9675)" class="st17" width="6.2" height="6.2"/>
			
				<rect x="632.9" y="541.5" transform="matrix(0.9511 -0.309 0.309 0.9511 -137.1539 223.1877)" class="st17" width="6.2" height="6.2"/>
			<polygon class="st17" points="662.3,543.5 658.7,539.9 655.1,543.5 658.7,547.1 			"/>
			
				<rect x="630.6" y="462.3" transform="matrix(0.1564 -0.9877 0.9877 0.1564 74.9772 1017.4193)" class="st17" width="5.1" height="5.1"/>
			
				<rect x="614.8" y="510.9" transform="matrix(0.4537 -0.8911 0.8911 0.4537 -120.3122 830.6141)" class="st17" width="5.1" height="5.1"/>
			<rect x="607.4" y="448.7" class="st17" width="9" height="9"/>
			
				<rect x="664.5" y="430.2" transform="matrix(0.8089 -0.588 0.588 0.8089 -127.7099 476.4843)" class="st17" width="9" height="9"/>
			
				<rect x="672.7" y="551" transform="matrix(0.4534 -0.8913 0.8913 0.4534 -124.6507 906.1266)" class="st17" width="7.5" height="7.5"/>
			
				<rect x="608.4" y="530.1" transform="matrix(0.1563 -0.9877 0.9877 0.1563 -10.7441 1055.0269)" class="st17" width="7.5" height="7.5"/>
			
				<rect x="701.5" y="462.5" transform="matrix(0.1563 -0.9877 0.9877 0.1563 134.5497 1089.8951)" class="st17" width="7.5" height="7.5"/>
			<rect x="691" y="532.3" class="st17" width="6.2" height="6.2"/>
			
				<rect x="705" y="489.1" transform="matrix(0.5876 -0.8092 0.8092 0.5876 -106.2285 775.9289)" class="st17" width="6.2" height="6.2"/>
			
				<rect x="647.8" y="546.3" transform="matrix(0.8089 -0.5879 0.5879 0.8089 -198.6329 487.6439)" class="st17" width="6.2" height="6.2"/>
			
				<rect x="642.7" y="456.1" transform="matrix(0.4537 -0.8912 0.8912 0.4537 -56.2152 825.5756)" class="st17" width="5.1" height="5.1"/>
			
				<rect x="669.6" y="538.8" transform="matrix(0.4544 -0.8908 0.8908 0.4544 -115.5361 894.0771)" class="st17" width="5.1" height="5.1"/>
			
				<rect x="681.7" y="532.6" transform="matrix(0.1563 -0.9877 0.9877 0.1563 48.6874 1127.3579)" class="st17" width="5.1" height="5.1"/>
			
				<rect x="614.8" y="484" transform="matrix(0.8908 -0.4544 0.4544 0.8908 -153.6853 333.6735)" class="st17" width="5.1" height="5.1"/>
			
				<rect x="697.5" y="510.9" transform="matrix(0.8908 -0.4544 0.4544 0.8908 -156.8656 374.1988)" class="st17" width="5.1" height="5.1"/>
			
				<rect x="620.9" y="523" transform="matrix(0.1563 -0.9877 0.9877 0.1563 6.9294 1059.2305)" class="st17" width="5.1" height="5.1"/>
			
				<rect x="681.7" y="462.3" transform="matrix(0.9877 -0.1563 0.1563 0.9877 -64.2439 112.6664)" class="st17" width="5.1" height="5.1"/>
			
				<rect x="642.7" y="538.8" transform="matrix(0.891 -0.4541 0.4541 0.891 -175.4578 352.0011)" class="st17" width="5.1" height="5.1"/>
			
				<rect x="608.5" y="433" transform="matrix(0.1561 -0.9877 0.9877 0.1561 85.0429 976.4727)" class="st17" width="10.9" height="10.9"/>
			
				<rect x="698" y="556.1" transform="matrix(0.1565 -0.9877 0.9877 0.1565 38.7231 1168.4036)" class="st17" width="10.9" height="10.9"/>
			
				<rect x="653.2" y="418.5" transform="matrix(0.7071 -0.7071 0.7071 0.7071 -106.8497 589.9232)" class="st17" width="10.9" height="10.9"/>
			
				<rect x="588.9" y="485.2" transform="matrix(0.8088 -0.588 0.588 0.8088 -174.5029 442.5078)" class="st17" width="9" height="9"/>
			
				<rect x="719.5" y="485.1" transform="matrix(0.588 -0.8088 0.8088 0.588 -97.7778 787.3351)" class="st17" width="9" height="9"/>
			<rect x="607.4" y="542.3" class="st17" width="9" height="9"/>
			<polygon class="st17" points="642.1,564.3 647.3,571.6 654.6,566.3 649.3,559 			"/>
			
				<rect x="688.8" y="542.8" transform="matrix(0.1568 -0.9876 0.9876 0.1568 44.1119 1144.7205)" class="st17" width="7.5" height="7.5"/>
			
				<rect x="608.4" y="462.5" transform="matrix(0.9876 -0.1569 0.1569 0.9876 -65.551 101.7974)" class="st17" width="7.5" height="7.5"/>
			
				<rect x="701.5" y="530.1" transform="matrix(0.9876 -0.1569 0.1569 0.9876 -75.0045 117.2312)" class="st17" width="7.5" height="7.5"/>
			
				<rect x="672.7" y="441.6" transform="matrix(0.8911 -0.4539 0.4539 0.8911 -128.4246 355.55)" class="st17" width="7.5" height="7.5"/>
			
				<rect x="632.9" y="452.4" transform="matrix(0.3092 -0.951 0.951 0.3092 6.1897 919.3989)" class="st17" width="6.2" height="6.2"/>
			
				<rect x="678.3" y="541.5" transform="matrix(0.309 -0.9511 0.9511 0.309 -47.085 1024.3105)" class="st17" width="6.2" height="6.2"/>
			
				<rect x="611" y="519.6" transform="matrix(0.309 -0.951 0.951 0.309 -72.7842 945.2218)" class="st17" width="6.2" height="6.2"/>
			<rect x="691" y="461.5" class="st17" width="6.2" height="6.2"/>
			
				<rect x="656.1" y="454" transform="matrix(0.7066 -0.7076 0.7076 0.7066 -129.7811 599.9895)" class="st17" width="5.1" height="5.1"/>
			
				<rect x="620.9" y="471.9" transform="matrix(0.9877 -0.1565 0.1565 0.9877 -66.558 103.4068)" class="st17" width="5.1" height="5.1"/>
			
				<rect x="612.6" y="497.4" transform="matrix(0.7071 -0.7071 0.7071 0.7071 -173.3642 581.4547)" class="st17" width="5.1" height="5.1"/>
			
				<rect x="697.5" y="484" transform="matrix(0.4537 -0.8911 0.8911 0.4537 -51.1714 889.6439)" class="st17" width="5.1" height="5.1"/>
			
				<rect x="691.3" y="471.9" transform="matrix(0.1563 -0.9877 0.9877 0.1563 116.783 1085.603)" class="st17" width="5.1" height="5.1"/>
			
				<rect x="630.6" y="532.6" transform="matrix(0.9877 -0.1563 0.1563 0.9877 -75.8708 105.5404)" class="st17" width="5.1" height="5.1"/>
			
				<rect x="669.6" y="456.1" transform="matrix(0.8912 -0.4537 0.4537 0.8912 -134.9255 354.8513)" class="st17" width="5.1" height="5.1"/>
		</g>
	</g>
</g>
</svg>
