<?xml version="1.0" encoding="UTF-8"?>
<svg id="Layer_1" xmlns="http://www.w3.org/2000/svg" version="1.1" viewBox="0 0 1000 1000">
  <!-- Generator: Adobe Illustrator 30.0.0, SVG Export Plug-In . SVG Version: 2.1.1 Build 123)  -->
  <defs>
    <style>
      .st0 {
        fill: #00adbb;
      }

      .st1 {
        fill: none;
        stroke: #e1058c;
        stroke-miterlimit: 10;
        stroke-width: .25px;
      }

      .st2 {
        fill: #54565a;
      }
    </style>
  </defs>
  <line class="st1" x1="424.25" y1="430.28" x2="424.25" y2="433.98"/>
  <line class="st1" x1="532.12" y1="476.53" x2="532.12" y2="480.23"/>
  <path class="st2" d="M241.65,543h-4.65c-.32,0-.48.16-.48.48v4c0,.32.16.48.48.48h4.65c.32,0,.48-.16.48-.48v-4c0-.32-.16-.48-.48-.48"/>
  <path class="st2" d="M308.44,551.17c-.48-1.28-1.28-2.4-2.08-3.2-.97-.8-1.92-1.44-3.21-1.92-1.12-.32-2.56-.48-4-.48-3.91,0-7.53,1.62-8.97,5.45-.48,1.28-.8,2.88-.8,4.65v1.44c0,1.1-.16,2.17-.72,3.14-.54.95-1.53,1.19-2.53,1.19h-31.03c-1.28,0-2.24-.16-2.88-.64-.8-.64-1.12-1.28-1.12-2.24v-7.69c0-.32-.16-.48-.48-.48h-4.49c-.32,0-.48.16-.48.48v14.26c0,2.08-.64,3.68-1.76,4.65-1.12.96-2.57,1.44-4.49,1.44-.64,0-1.44-.16-2.24-.32-.8-.16-1.44-.48-2.08-.96-.64-.64-1.12-1.28-1.44-2.08-.48-.8-.64-1.92-.64-3.21,0-1.44.16-2.72.64-3.85.48-1.28.96-2.24,1.28-3.84l-3.84-1.44c-.32-.16-.64-.16-.8,0-.8,1.28-1.44,2.72-1.92,4.48-.64,1.76-.8,3.52-.8,5.13,0,1.92.16,3.52.8,4.8.64,1.44,1.44,2.57,2.56,3.53.96.8,2.24,1.6,3.69,1.92,1.44.48,3.04.64,4.65.64,1.76,0,3.36-.16,4.8-.64,1.44-.32,2.72-1.12,3.85-1.92.96-.96,1.76-2.08,2.4-3.53.48-1.28.8-2.88.8-4.65v-.64c0,.14.4.46.5.55.97.88,2.35.98,3.6,1.04,2.72.12,5.46.04,8.18.03,1.53,0,3.06-.01,4.59-.01h16.94c.95,0,1.93-.02,2.88-.17.49-.08.98-.2,1.45-.37.46-.17.87-.46,1.28-.73.48-.32.8-.64,1.12-1.12.96.96,1.92,1.6,3.2,2.08,1.28.48,2.72.64,4.33.64s2.88-.16,4.16-.64c1.12-.32,2.24-.96,3.05-1.76.96-.8,1.6-1.92,2.08-3.21.48-1.28.64-2.88.64-4.8s-.16-3.53-.64-4.97M302.68,560.46c-.64.96-1.92,1.44-3.52,1.44-1.44,0-2.57-.48-3.36-1.44-.8-.8-1.13-2.4-1.13-4.32s.32-3.37,1.13-4.33c.8-.96,1.92-1.44,3.36-1.44,3.21,0,4.65,1.92,4.65,5.77,0,1.92-.32,3.36-1.12,4.32"/>
  <path class="st2" d="M328.95,535.13h-5.29c-.1,0-.36-.4-.41-.48-.1-.14-.22-.27-.33-.41-.23-.3-.4-.63-.52-.98-.29-.9-.26-2.02.43-2.74.51-.54,1.3-.71,2.02-.62.79.11,2.02,1.09,2.02,1.09l1.76-1.28c0-.16-.96-1.44-1.76-1.76-1.45-.58-3.22-.71-4.65,0-.86.43-1.57.94-2.1,1.76-.67,1.04-.9,2.28-.62,3.48.08.34.2.67.31,1.01.03.09.24.94.33.94h-2.08v2.26h10.89v-2.26Z"/>
  <path class="st2" d="M365.47,534.19v25.95c0,2.08-.32,3.68-1.28,4.65-.8.96-2.24,1.44-4.32,1.44h-16.02c-1.28,0-2.24-.16-3.2-.48-.96-.32-1.6-.96-2.24-1.92-.48.8-1.13,1.44-1.92,1.76-.96.48-2.08.64-3.53.64h-20.66c-.32,0-.48-.16-.48-.48v-3.85c0-.32.16-.48.48-.48h8.65v-20.5c0-.32.16-.48.48-.48h4.49c.32,0,.48.16.48.48v20.5h4.97c.48,0,.96,0,1.28-.16.32-.16.48-.32.64-.64.16-.48.32-.8.32-1.44v-24.99c0-.32.16-.48.48-.48h4.48c.32,0,.48.16.48.48v24.83c.32,1.6,1.6,2.4,4,2.4h14.74c.8,0,1.44-.16,1.76-.48.32-.32.48-.96.48-1.92v-24.83c0-.32.16-.48.48-.48h4.49c.32,0,.48.16.48.48"/>
  <path class="st2" d="M383.07,561.14c0,1.21.22,2.22.67,3.02.46.81,1.02,1.45,1.74,1.94.71.47,1.5.81,2.41,1,.89.19,1.82.28,2.74.28h9.59c1.86-.01,3.13-.26,3.83-.75.69-.5,1.03-1.11,1.03-1.83,0-.48-.27-.95-.8-1.44-.53-.47-1.21-.97-2.02-1.5-.83-.52-1.7-1.08-2.63-1.69-.94-.61-1.81-1.3-2.63-2.08-.81-.77-1.48-1.62-2.02-2.6-.53-.97-.8-2.1-.8-3.36,0-1.14.22-2.22.67-3.22.46-1,1.08-1.88,1.91-2.64.81-.74,1.8-1.33,2.96-1.77,1.15-.42,2.45-.64,3.89-.64,2.22,0,3.99.34,5.33,1.03,1.33.69,2.46,1.58,3.39,2.69.19.22.14.45-.16.67l-2.59,2.52c-.25.2-.49.19-.67-.05-.67-.66-1.39-1.17-2.16-1.55-.78-.36-1.72-.55-2.85-.55s-2.07.3-2.91.89c-.86.58-1.28,1.45-1.28,2.59,0,.76.27,1.45.81,2.1.55.64,1.24,1.25,2.05,1.86.83.59,1.71,1.22,2.66,1.86.94.63,1.83,1.3,2.65,2.02.81.72,1.5,1.5,2.05,2.35.55.83.81,1.8.81,2.88,0,.95-.17,1.86-.53,2.72-.35.86-.91,1.61-1.69,2.27-.77.64-1.75,1.15-2.97,1.52-1.22.36-2.69.54-4.4.54l-11.22.02c-4.18,0-7.27-.95-9.32-2.86-2.03-1.91-3.05-4.49-3.05-7.77,0-1.71.27-3.42.81-5.14.55-1.72,1.22-3.19,2.02-4.43.17-.3.41-.33.74-.09l3.89,1.52c.16.06.25.16.27.27.01.11-.01.23-.08.36-.52.89-1,1.92-1.47,3.11-.45,1.21-.68,2.5-.68,3.94M389.42,580.39c-.31,0-.49-.16-.49-.47v-4.1c0-.33.17-.48.49-.48h4.05c.31,0,.48.16.48.48v4.1c0,.31-.17.47-.48.47h-4.05ZM395.67,580.39c-.31,0-.47-.16-.47-.47v-4.1c0-.33.16-.48.47-.48l4.05-.02c.31,0,.48.16.48.49v4.1c0,.31-.17.47-.48.47h-4.05Z"/>
  <path class="st2" d="M435.03,558.02c0,1.58-.14,2.89-.44,3.93-.28,1.03-.72,1.88-1.3,2.5-.58.64-1.31,1.08-2.22,1.35-.9.25-1.96.37-3.18.37h-11.17c-.33,0-.48-.16-.48-.47v-3.77c0-.33.16-.48.48-.48h8.95c.87,0,1.56-.06,2.08-.19.51-.13.91-.34,1.17-.64.28-.3.45-.69.53-1.17.08-.47.13-1.07.13-1.77v-3.19c0-2.8-1.64-4.19-4.91-4.19h-5.79c-.31,0-.47-.16-.47-.48v-3.82c0-.31.16-.47.47-.47h7.71c2.57,0,4.62.69,6.13,2.08,1.54,1.38,2.3,3.54,2.3,6.46v3.96Z"/>
  <path class="st2" d="M580.44,533.71h-4.49c-.32,0-.48.16-.48.48v24.67c0,.96-.16,1.6-.64,2.08-.32.32-.8.48-1.6.48h-8.97c-1.28,0-2.24-.16-3.04-.8-.64-.48-.96-1.12-.96-2.08v-11.69c0-.32-.16-.48-.48-.48h-4.48c-.32,0-.48.16-.48.48v9.93c0,.96-.16,1.76-.16,2.4s-.16,1.12-.48,1.44c-.16.32-.48.48-.96.64-.48.16-1.12.16-1.76.16-1.12,0-1.92-.16-2.4-.64-.64-.48-.96-1.28-.96-2.24v-7.85c0-.32-.16-.48-.48-.48h-4.49c-.31,0-.48.16-.48.48v6.09c0,.96,0,1.76-.16,2.4,0,.64-.16,1.12-.32,1.44-.16.32-.64.48-1.12.64-.32.16-.96.16-1.76.16-1.28,0-2.08-.16-2.57-.64-.64-.48-.8-1.28-.8-2.24v-7.85c0-.32-.16-.48-.48-.48h-4.49c-.32,0-.48.16-.48.48v8.17c0,.64-.16,1.12-.32,1.44-.16.48-.32.64-.64.8-.32.32-.8.32-1.28.32h-16.66c-.32,0-.64,0-.96-.16.64-.32,1.28-.8,1.92-1.28.48-.64,1.13-1.28,1.6-2.08.48-.64.8-1.44,1.12-2.24s.48-1.76.48-2.72c0-2.24-.8-4-2.56-5.44-1.6-1.28-4.33-1.92-8.01-1.92-1.44,0-2.72,0-4,.32-1.28.16-2.4.48-3.36.8-1.12.32-1.92.64-2.41,1.12-.64.48-.96.8-.96,1.12v3.69c.16.16.32.48.64.64.64.48,1.28.96,1.92,1.44.64.48,1.28.96,1.77,1.6.48.48.96,1.28,1.44,1.92.48.8.8,1.76,1.12,2.72-.96.32-1.76.32-2.4.48h-39.57v-5.29c0-2.08-.16-3.68-.64-4.97-.48-1.28-1.12-2.4-2.08-3.2-.8-.8-1.92-1.44-3.04-1.92-1.28-.32-2.57-.48-4-.48-1.28,0-2.56.16-3.68.48-1.28.48-2.24,1.12-3.21,1.92-.96.96-1.6,2.08-2.08,3.36-.64,1.44-.96,3.2-.96,5.12,0,1.76.32,3.21.8,4.49.32,1.28.96,2.24,1.76,3.04.8.8,1.76,1.28,3.05,1.77,1.12.32,2.4.48,4,.48h4.8c0,.96-.16,1.77-.32,2.4-.16.64-.48,1.13-.8,1.44-.32.32-.8.64-1.28.8-.64.16-1.28.16-1.92.16h-5.77c-.16,0-.48.16-.48.48v3.84c0,.32.31.48.48.48h6.57c2.88,0,5.13-.64,6.57-2.08,1.6-1.44,2.24-3.52,2.24-6.57v-.96h39.25c.96,0,1.92-.16,3.2-.32,1.12-.32,2.24-.64,3.36-1.28.8.64,1.92.96,2.88,1.28,1.13.16,2.08.32,3.37.32h18.42c1.44,0,2.56-.32,3.52-.64.8-.32,1.44-.96,1.92-1.92.8,1.6,2.4,2.56,4.65,2.56h2.08c1.44,0,2.72-.32,3.52-.64.8-.32,1.44-.96,1.92-1.92.48.8.96,1.44,1.76,1.92.8.32,1.76.64,2.88.64h2.08c1.44,0,2.56-.32,3.52-.64.8-.32,1.44-.96,1.92-1.92.48,1.12,1.28,1.76,2.08,2.08.96.32,2.08.48,3.36.48h10.25c1.92,0,3.36-.48,4.32-1.6.8-.96,1.28-2.4,1.28-4.48v-25.95c0-.32-.16-.48-.48-.48M454.06,561.42h-4.32c-1.45,0-2.72-.32-3.53-1.12-.8-.64-1.12-2.08-1.12-4s.32-3.36,1.12-4.33c.8-1.12,1.92-1.6,3.36-1.6,1.6,0,2.72.48,3.36,1.44.8.96,1.12,2.4,1.12,4.16v5.45ZM509.8,555.65c-.32.64-.64,1.12-.96,1.6-.48.64-.96,1.12-1.44,1.44-.48.48-1.12.96-1.6,1.28-.48-1.92-1.12-3.52-2.24-5.12-.96-1.44-2.24-2.57-3.69-3.52.32-.16.96-.48,1.92-.64.96-.32,2.08-.48,3.36-.48,1.44,0,2.56.32,3.52.8.96.48,1.44,1.44,1.44,2.72,0,.64-.16,1.28-.32,1.92"/>
  <path class="st2" d="M592.39,565.67c0,.31-.16.47-.48.47h-4.47c-.33.02-.48-.14-.48-.45v-31.47c0-.33.16-.5.48-.5h4.47c.33,0,.48.16.48.49v31.47Z"/>
  <path class="st2" d="M623.99,557.99c0,1.58-.14,2.89-.44,3.93-.28,1.03-.72,1.88-1.3,2.5-.58.64-1.31,1.08-2.22,1.35-.89.25-1.95.37-3.18.37h-11.17c-.33,0-.48-.16-.48-.47v-3.77c0-.33.16-.49.48-.49h8.95c.87,0,1.57-.06,2.08-.19.51-.13.91-.34,1.17-.64.28-.3.46-.69.53-1.18.08-.47.12-1.06.12-1.77v-3.19c0-2.8-1.64-4.19-4.91-4.19h-5.79c-.31,0-.47-.16-.47-.48v-3.82c0-.31.16-.47.47-.47h7.71c2.57,0,4.62.69,6.13,2.08,1.53,1.38,2.3,3.53,2.3,6.46v3.96Z"/>
  <path class="st2" d="M731.34,536.59h-4c-.32,0-.48,0-.48.32v4.16c0,.32.16.48.48.48h4c.32,0,.48-.16.48-.48v-4.16c0-.32-.16-.32-.48-.32M725.1,536.59h-4c-.32,0-.48,0-.48.32v4.16c0,.32.16.48.48.48h4c.32,0,.48-.16.48-.48v-4.16c0-.32-.16-.32-.48-.32"/>
  <path class="st2" d="M728.94,546.84v13.3c0,2.08-.48,3.52-1.28,4.49-.96.96-2.4,1.44-4.33,1.44h-16.82c-1.44,0-2.56-.16-3.52-.48-1.13-.32-1.77-1.12-2.41-2.24-.64,1.12-1.44,1.76-2.56,2.24-.96.32-2.4.48-3.85.48h-59.11c-2.08,0-3.52-.48-4.32-1.44-.96-.96-1.44-2.4-1.44-4.49v-25.95c0-.32.16-.48.48-.48h4.49c.32,0,.48.16.48.48v24.67c0,.96.32,1.6.64,2.08.32.32.96.48,1.76.48h54.94c.5,0,1.03-.04,1.53-.1.5-.06,1.01-.19,1.42-.5.47-.36.75-.93.88-1.51.1-.44.12-.9.12-1.34,0-.39.05-.76.03-1.15-.04-.77-.16-1.54-.3-2.29-.16-.8-.48-1.6-.96-2.24-.48-.64-1.12-1.13-1.76-1.44-.8-.48-1.6-.64-2.72-.64s-2.08.32-2.88.64c-.96.48-1.6.96-2.4,1.76-.16.16-.32.16-.64,0l-2.57-2.56c-.16-.32-.16-.48,0-.64.97-1.12,2.24-2.08,3.52-2.88,1.45-.64,3.05-1.12,5.13-1.12s3.84.48,5.29,1.12c1.44.64,2.72,1.44,3.52,2.56.8,1.12,1.44,2.4,1.92,3.85.32,1.44.48,2.88.48,4.48v1.28c0,.8.48,1.44,1.12,1.92.64.48,1.6.8,2.88.8h15.38c.8,0,1.45-.16,1.77-.64.48-.32.64-.96.64-1.92v-12.01c0-.32.16-.48.48-.48h4.48c.32,0,.48.16.48.48"/>
  <path class="st2" d="M748.31,561.4h5.01c.8,0,1.38-.17,1.75-.55.37-.36.56-1.02.56-1.97v-24.7c0-.33.16-.48.47-.48h4.49c.31,0,.47.16.47.48v25.94c0,2.07-.42,3.58-1.3,4.55-.86.97-2.3,1.45-4.33,1.45h-21.13c-.33,0-.49-.16-.49-.47v-3.77c0-.33.16-.48.49-.48h8.57v-20.51c0-.31.16-.47.47-.47h4.49c.31,0,.48.16.48.47v20.51Z"/>
  <path class="st2" d="M772.45,565.66c0,.31-.16.47-.48.47h-4.48c-.33,0-.48-.16-.48-.47v-31.47c0-.33.16-.48.48-.48h4.48c.33,0,.48.16.48.48v31.47Z"/>
  <path class="st2" d="M237.96,584.92h-4.65c-.32,0-.48.16-.48.48v4.16c0,.32.16.48.48.48h4.65c.32,0,.48-.16.48-.48v-4.16c0-.32-.16-.48-.48-.48"/>
  <path class="st2" d="M276.25,584.92h-4.65c-.32,0-.48.16-.48.48v4.16c0,.32.16.48.48.48h4.65c.32,0,.48-.16.48-.48v-4.16c0-.32-.16-.48-.48-.48"/>
  <path class="st2" d="M276.57,595.18v13.3c0,2.08-.32,3.68-1.28,4.65-.8.96-2.24,1.44-4.33,1.44h-1.14c-1.01,0-25.65.04-26.66,0-.94-.04-1.95-.1-2.87-.33-.79-.19-1.44-.71-2-1.27v.96c0,1.6-.16,3.21-.32,4.49-.32,1.28-.8,2.4-1.44,3.21-.64.8-1.6,1.44-2.72,1.92-.96.48-2.4.64-4,.64h-1.76c-.32,0-.48-.16-.48-.48v-3.85c0-.32.16-.48.48-.48h1.12c.8,0,1.6-.16,2.08-.48.48-.32.96-.8,1.12-1.28.32-.64.48-1.44.48-2.4v-20.02c0-.32.16-.48.48-.48h4.49c.32,0,.48.16.48.48v11.69c0,.96.48,1.6,1.12,2.24.8.48,1.77.64,2.89.64h26.59c.8,0,1.44-.16,1.76-.48.32-.32.48-.96.48-1.92v-12.17c0-.32.16-.48.48-.48h4.49c.32,0,.48.16.48.48"/>
  <path class="st2" d="M290.69,614.54c-1.52,0-2.86-.17-4.04-.5-1.17-.33-2.16-.89-2.95-1.67-.8-.77-1.43-1.78-1.85-3.02-.44-1.25-.66-2.77-.66-4.59,0-1.94.27-3.6.8-4.99.53-1.38,1.25-2.5,2.16-3.38.92-.88,1.97-1.5,3.16-1.91,1.19-.39,2.44-.6,3.75-.6,1.45,0,2.77.19,3.98.58,1.2.38,2.24.99,3.11,1.8.86.83,1.53,1.91,2.02,3.25.48,1.33.72,2.96.72,4.9v11.16c0,2.99-.75,5.18-2.25,6.56-1.52,1.36-3.72,2.05-6.6,2.05h-6.51c-.31,0-.48-.16-.48-.49v-3.82c0-.31.17-.47.48-.47h5.63c.64,0,1.24-.06,1.78-.17.55-.11,1.02-.34,1.41-.69.37-.34.67-.84.87-1.47.22-.64.31-1.49.31-2.54h-4.85ZM291.11,598.66c-1.47,0-2.61.53-3.41,1.62-.82,1.08-1.21,2.52-1.21,4.33,0,2,.41,3.36,1.22,4.1.81.74,2,1.1,3.53,1.1h4.29v-5.43c0-1.88-.34-3.3-1.05-4.27-.7-.97-1.83-1.45-3.38-1.45"/>
  <path class="st2" d="M304.16,624.16c-.33,0-.48-.16-.48-.48v-3.82c0-.31.16-.47.48-.47h1.07c1.34,0,2.31-.33,2.91-1,.59-.67.89-1.69.89-3.05v-20.13c0-.31.16-.47.49-.47h4.47c.31,0,.48.16.48.47v20.23c0,5.82-2.85,8.73-8.52,8.73h-1.78Z"/>
  <path class="st2" d="M359.07,582.52v25.95c0,2.08-.48,3.68-1.28,4.65-.96.96-2.41,1.44-4.49,1.44h-5.56c-1.37,0-2.74.03-4.1-.04-.69-.03-1.38-.09-2.07-.18-.61-.09-1.33-.14-1.88-.43-.96-.32-1.76-.96-2.4-2.08-.48,1.12-1.44,1.76-2.4,2.08-1.12.48-2.41.64-4,.64h-10.73c-.32,0-.48-.16-.48-.48v-3.84c0-.32.16-.48.48-.48h8.81c.97,0,1.61,0,2.08-.16.64-.16.96-.32,1.28-.64.16-.32.48-.64.48-1.12.16-.48.16-1.12.16-1.76v-3.21c0-1.44-.48-2.56-1.28-3.2-.8-.64-2.08-.96-3.68-.96h-5.77c-.32,0-.48-.16-.48-.48v-3.84c0-.32.16-.48.48-.48h7.37c2.72,0,4.8.64,6.41,1.92,1.6,1.44,2.4,3.52,2.4,6.57v4.49c0,.96.32,1.6.96,2.08.8.64,1.76.8,2.88.8h8.97c.8,0,1.44-.16,1.76-.48.48-.32.64-.96.64-1.92v-24.83c0-.32.16-.48.48-.48h4.49c.32,0,.48.16.48.48"/>
  <path class="st2" d="M370.49,614.05c0,.31-.16.47-.48.47h-4.47c-.33,0-.49-.16-.49-.47v-31.47c-.01-.33.14-.48.47-.48h4.47c.33,0,.48.16.48.48v31.47Z"/>
  <path class="st2" d="M385.29,614.52c-1.52,0-2.86-.17-4.04-.5-1.17-.33-2.16-.89-2.95-1.67-.8-.77-1.43-1.78-1.85-3.02-.44-1.25-.66-2.77-.66-4.59,0-1.94.27-3.6.8-4.99.53-1.38,1.25-2.5,2.16-3.38.92-.87,1.97-1.5,3.16-1.91,1.19-.39,2.44-.6,3.75-.6,1.45,0,2.77.19,3.98.58,1.2.37,2.24.98,3.11,1.8.86.83,1.53,1.91,2.02,3.25.48,1.33.72,2.97.72,4.91v11.15c0,2.99-.75,5.16-2.25,6.54-1.52,1.36-3.72,2.05-6.6,2.05h-6.51c-.31,0-.48-.16-.48-.48v-3.82c0-.31.17-.47.48-.47h5.63c.64,0,1.24-.06,1.78-.17.55-.11,1.02-.34,1.41-.69.38-.34.67-.84.88-1.47.22-.64.31-1.49.31-2.54h-4.85ZM385.71,598.64c-1.47,0-2.61.53-3.41,1.63-.81,1.08-1.21,2.52-1.21,4.33,0,2,.41,3.36,1.22,4.1s2,1.1,3.53,1.1h4.29v-5.43c0-1.88-.34-3.3-1.05-4.27-.7-.97-1.83-1.45-3.38-1.45"/>
  <path class="st2" d="M424.26,583h-4c-.32,0-.48.16-.48.48v4.16c0,.16.16.32.48.32h4c.32,0,.48-.16.48-.32v-4.16c0-.32-.16-.48-.48-.48M418.01,583h-4.16c-.32,0-.48.16-.48.48l.16,4.16c0,.16.16.32.32.32h4.16c.32,0,.48-.16.48-.32v-4.16c0-.32-.16-.48-.48-.48"/>
  <path class="st2" d="M447.33,618.56h-4.49c-.32,0-.48.16-.48.48v4c0,.32.16.48.48.48h4.49c.32,0,.48-.16.48-.48v-4c0-.32-.16-.48-.48-.48"/>
  <path class="st2" d="M484.33,599.5c-.48-1.28-1.12-2.41-2.08-3.21-.8-.8-1.92-1.44-3.05-1.92-1.28-.32-2.56-.48-4-.48s-2.72.16-3.84.48c-1.28.32-2.24.96-3.21,1.76-.8.8-1.6,1.92-2.08,3.2-.63,1.69-1.13,3.99-.67,6.18.02.17.01.34,0,.5-.09,1.04-.34,2.02-1.1,2.77-.32.32-.64.64-.96.8-.32.16-.64.16-.96.16h-2.72c-1.28,0-2.24-.16-2.89-.64-.64-.48-1.12-1.12-1.12-2.08v-1.12c0-1.6-.16-3.21-.48-4.65-.48-1.44-1.12-2.72-1.92-3.85-.8-1.12-2.08-1.92-3.52-2.56-1.45-.64-3.21-.96-5.29-.96s-3.68.32-5.13,1.12c-1.28.64-2.56,1.6-3.52,2.72-.16.16-.16.32.16.64l2.41,2.56c.32.16.48.16.64,0,.8-.64,1.44-1.28,2.4-1.76.8-.32,1.76-.48,2.88-.48s1.92.16,2.73.48c.64.32,1.28.8,1.76,1.44.48.64.8,1.44.97,2.24.16.96.32,1.92.32,2.89,0,.8-.16,1.44-.16,1.92-.16.48-.32.96-.64,1.28-.32.32-.64.48-1.13.64-.64.16-1.28.16-2.08.16h-15.22c-.8,0-1.44-.16-1.77-.48-.32-.32-.48-1.12-.48-2.08v-15.38c0-.32-.16-.48-.48-.48h-4.48c-.32,0-.48.16-.48.48v2.08h-4.8c-1.28,0-2.41.16-3.53.48-1.12.32-2.08.8-3.04,1.6-.8.64-1.6,1.76-2.08,2.88-.48,1.28-.8,2.88-.8,4.65,0,1.6.32,3.04.64,4.16.48,1.12,1.28,1.92,2.08,2.72.8.8,1.76,1.28,2.89,1.6,1.12.32,2.24.48,3.52.48.96,0,1.92,0,2.88-.32.96-.32,1.77-.8,2.4-1.28.32,1.28.96,2.24,1.76,2.88.96.48,2.08.8,3.69.8h19.38c1.61,0,2.88-.32,3.85-.64,1.12-.32,1.92-1.12,2.57-2.24.64,1.12,1.44,1.92,2.4,2.24.96.48,2.08.64,3.52.64h1.6c.48,0,.96-.16,1.44-.16.64,0,1.12-.16,1.6-.32.48-.16.96-.48,1.44-.8.32-.32.8-.64,1.12-1.12.8.96,1.92,1.6,3.2,2.08,1.28.32,2.72.64,4.32.64,1.44,0,2.89-.16,4-.64,1.28-.32,2.24-.96,3.21-1.76.8-.8,1.44-1.92,1.92-3.21.48-1.28.8-2.88.8-4.8s-.32-3.53-.8-4.97M423.14,602.7c0,1.6-.32,2.88-1.12,3.85-.8.8-1.92,1.28-3.36,1.28s-2.41-.32-3.21-1.12c-.8-.64-1.12-1.77-1.12-3.21,0-1.92.32-3.21,1.12-3.85.96-.64,2.08-.96,3.36-.96h4.33v4ZM478.73,608.79c-.8.8-1.92,1.28-3.53,1.28s-2.72-.48-3.36-1.28c-.8-.96-1.12-2.4-1.12-4.32s.32-3.37,1.12-4.33c.64-.96,1.77-1.44,3.36-1.44,3.05,0,4.65,1.92,4.65,5.77,0,1.92-.48,3.36-1.12,4.32"/>
  <path class="st2" d="M513.01,618.56h-4.65c-.32,0-.48.16-.48.48v4c0,.32.16.48.48.48h4.65c.32,0,.48-.16.48-.48v-4c0-.32-.16-.48-.48-.48"/>
  <path class="st2" d="M528.06,582.52v25.95c0,2.08-.48,3.52-1.28,4.49-.8,1.12-2.24,1.6-4.32,1.6h-4.65c-.96,0-2.08-.16-2.88-.48-.96-.32-1.6-.96-2.24-2.08-.48.96-1.12,1.6-1.92,1.92-.96.32-2.08.64-3.69.64h-4c-1.12,0-2.08-.16-2.88-.32-.8-.16-1.44-.64-1.92-1.28v.8c0,1.76-.16,3.21-.48,4.49-.32,1.44-.8,2.4-1.44,3.36-.64.8-1.6,1.44-2.56,1.92-1.12.32-2.57.64-4.16.64h-1.77c-.32,0-.48-.16-.48-.48v-3.85c0-.32.16-.48.48-.48h1.12c.96,0,1.61-.16,2.08-.48.64-.32.96-.8,1.28-1.44.16-.64.32-1.28.32-2.24,0-.8.16-1.92.16-3.05v-16.98c0-.32.16-.48.48-.48h4.49c.32,0,.48.16.48.48v11.69c0,.96.32,1.6.96,2.08.8.64,1.76.8,3.05.8h3.36c.48,0,.96,0,1.28-.16.32-.16.64-.48.64-.8.16-.32.32-.8.32-1.44v-12.17c0-.32.16-.48.48-.48h4.49c.32,0,.48.16.48.48v11.69c0,.96.48,1.6,1.12,2.08.8.64,1.76.8,2.88.8h3.04c.8,0,1.28-.16,1.76-.48.32-.48.48-1.12.48-2.08v-24.67c0-.32.16-.48.48-.48h4.49c.32,0,.48.16.48.48"/>
  <path class="st2" d="M539.55,614.02c0,.31-.16.47-.48.47h-4.47c-.33,0-.48-.16-.48-.47v-31.47c-.01-.33.14-.49.47-.49h4.47c.33,0,.48.16.48.49v31.47Z"/>
  <path class="st2" d="M554.34,614.49c-1.52,0-2.86-.17-4.04-.5-1.17-.33-2.16-.89-2.95-1.67-.8-.77-1.43-1.78-1.85-3.02-.44-1.25-.66-2.77-.66-4.59,0-1.94.27-3.6.8-4.99.53-1.38,1.25-2.5,2.16-3.38.93-.88,1.97-1.5,3.16-1.91,1.19-.39,2.44-.6,3.75-.6,1.45,0,2.77.19,3.98.58,1.2.38,2.24.99,3.11,1.8.86.83,1.53,1.91,2.02,3.25.48,1.33.72,2.98.72,4.92v11.15c0,2.99-.76,5.16-2.25,6.54-1.52,1.36-3.72,2.05-6.6,2.05h-6.51c-.31,0-.48-.16-.48-.49v-3.82c0-.31.17-.47.48-.47h5.63c.64,0,1.24-.06,1.78-.17.55-.11,1.01-.34,1.41-.69.38-.34.67-.84.88-1.47.22-.64.31-1.49.31-2.54h-4.85ZM554.77,598.61c-1.47,0-2.61.53-3.41,1.62-.81,1.08-1.21,2.52-1.21,4.33,0,2,.41,3.36,1.22,4.1s2,1.1,3.53,1.1h4.29v-5.43c0-1.88-.34-3.3-1.05-4.27-.7-.97-1.83-1.45-3.38-1.45"/>
  <path class="st2" d="M599.83,627.37h-4c-.32,0-.48.16-.48.48v4.16c0,.32.16.48.48.48h4c.32,0,.48-.16.48-.48v-4.16c0-.32-.16-.48-.48-.48M593.58,627.37h-4c-.32,0-.48.16-.48.48v4.16c0,.32.16.48.48.48h4c.32,0,.48-.16.48-.48v-4.16c0-.32-.16-.48-.48-.48"/>
  <path class="st2" d="M623.22,584.92h-4.65c-.32,0-.48.16-.48.48v4c0,.32.16.48.48.48h4.65c.32,0,.48-.16.48-.48v-4c0-.32-.16-.48-.48-.48"/>
  <path class="st2" d="M623.54,595.18v13.3c0,2.08-.32,3.52-1.28,4.49-.8.96-2.25,1.44-4.33,1.44h-8.01c.16.32.32.8.48,1.28.32.64.32,1.12.32,1.76,0,.96-.16,1.76-.48,2.56-.32.8-.96,1.44-1.6,2.08-.8.64-1.76,1.12-3.04,1.44-1.13.32-2.57.64-4.33.64h-11.05c-4.16,0-7.21-.96-9.29-2.88-2.08-1.92-3.04-4.48-3.04-7.85,0-.8.16-1.76.32-2.57.16-.96.32-1.92.64-2.72.32-.8.64-1.6.96-2.4.32-.64.8-1.44,1.28-1.92.16-.32.32-.32.64-.16l3.85,1.92c.16.16.16.48,0,.64-.48.96-.96,1.92-1.44,3.21-.48,1.12-.64,2.4-.64,3.52,0,1.28.16,2.24.64,3.04.32.8.96,1.44,1.6,1.92.8.48,1.6.8,2.4.96.96.32,1.92.32,2.72.32h9.45c1.92,0,3.21-.16,4-.64.64-.48.96-1.12.96-1.92,0-.48-.16-.96-.48-1.44-.32-.48-.96-.96-1.76-1.28-.8-.32-1.76-.8-2.88-1.28-1.28-.32-2.72-.96-4.32-1.44-.32-.16-.48-.32-.32-.64l1.28-3.69c.16-.32.32-.48.64-.48.96.48,1.92.8,2.88,1.28.96.32,1.92.64,2.72.96.96.32,1.76.64,2.72.8.8.16,1.76.32,2.72.32h7.37c.8,0,1.44-.16,1.76-.48.32-.48.48-1.12.48-2.08v-12.01c0-.32.16-.48.48-.48h4.49c.32,0,.48.16.48.48"/>
  <path class="st2" d="M634.33,614c0,.31-.16.47-.48.47h-4.47c-.33,0-.48-.16-.48-.47v-31.47c-.01-.33.14-.48.47-.48h4.47c.33,0,.48.16.48.48v31.47Z"/>
  <path class="st2" d="M689.32,618.4h-4.65c-.32,0-.48.16-.48.64v4c0,.32.16.48.48.48h4.65c.32,0,.48-.16.48-.48v-4.16c0-.32-.16-.48-.48-.48"/>
  <path class="st2" d="M701.17,618.56h-4.01c-.32,0-.48.16-.48.48v4.16c0,.32.16.48.48.48h4.01c.32,0,.48-.16.48-.48v-4.16c0-.32-.16-.48-.48-.48M707.42,618.56h-4c-.32,0-.48.16-.48.48v4.16c0,.32.16.48.48.48h4c.32,0,.48-.16.48-.48v-4.16c0-.32-.16-.48-.48-.48"/>
  <path class="st2" d="M760.92,582.52v25.95c0,2.08-.32,3.52-1.28,4.49-.8.96-2.24,1.44-4.32,1.44h-4.49c-1.28,0-2.24-.16-3.2-.32-.96-.32-1.6-.96-2.24-2.08-.48.96-1.12,1.6-1.92,1.92-.8.32-1.92.48-3.36.48h-2.08c-1.13,0-2.08-.16-2.88-.64-.8-.32-1.44-.96-1.76-1.76-.48.96-1.13,1.6-2.08,1.92-.8.32-1.92.48-3.37.48h-2.08c-2.4,0-3.84-.8-4.8-2.4-.32.8-.96,1.44-1.92,1.92-.8.32-1.92.48-3.37.48h-6.4c-.96,0-1.77-.16-2.41-.32-.96-.32-1.76-.96-2.24-2.08-.48.96-1.13,1.6-2.08,1.92-.96.32-2.08.48-3.69.48h-4.48c-1.28,0-2.24-.16-3.21-.32-.96-.32-1.76-.96-2.24-2.08-.48.96-1.12,1.6-2.08,1.92-.8.32-2.08.48-3.53.48h-30.54c-1.12,0-2.08,0-2.72-.16-.8-.16-1.44-.64-2.08-1.28v.8c0,1.76-.16,3.21-.48,4.49-.16,1.44-.64,2.4-1.44,3.36-.64.8-1.44,1.44-2.57,1.92-1.12.32-2.4.64-4,.64h-1.76c-.32,0-.48-.16-.48-.48v-3.85c0-.32.16-.48.48-.48h.96c.96,0,1.76-.16,2.24-.48.48-.32.8-.8,1.12-1.44.16-.64.32-1.28.48-2.24v-20.02c0-.32.16-.48.48-.48h4.48c.32,0,.48.16.48.48v11.69c0,.8.32,1.6,1.12,2.08.64.48,1.6.8,2.88.8h29.9c.48,0,.96-.16,1.28-.16.32-.16.48-.48.64-.8.16-.32.32-.8.32-1.44v-12.17c0-.32.16-.48.48-.48h4.49c.32,0,.48.16.48.48v11.53c0,.96.32,1.76,1.12,2.24.64.48,1.6.8,2.89.8h4c.48,0,.96-.16,1.28-.32.32-.16.48-.48.64-.8.16-.32.32-.8.32-1.44v-12.01c0-.16.16-.32.32-.48h4.65c.32,0,.48.16.48.48v11.53c0,.96.32,1.76,1.12,2.24.64.48,1.6.8,2.88.8h4.65c.64,0,1.12-.16,1.44-.32.16-.16.48-.48.64-.8.16-.32.16-.8.16-1.44v-8.33c0-.32.16-.48.48-.48h4.49c.32,0,.48.16.48.48v7.85c0,1.12.32,1.76.8,2.24.64.48,1.44.8,2.57.8.8,0,1.44,0,1.92-.16.48-.16.8-.32.96-.64.32-.48.49-.96.49-1.44v-8.65c0-.32.16-.48.48-.48h4.49c.32,0,.48.16.48.48v8.01c0,.96.32,1.76.96,2.24.64.32,1.44.64,2.4.64.8,0,1.44,0,1.76-.16.48-.16.8-.32,1.12-.64.16-.32.32-.8.48-1.44v-12.33c0-.32.16-.48.48-.48h4.49c.32,0,.48.16.48.48v11.53c0,.96.32,1.76,1.12,2.24.64.48,1.76.8,2.89.8h3.2c.8,0,1.44-.16,1.76-.64.32-.32.48-.96.48-1.92v-24.67c0-.32.16-.48.48-.48h4.49c.32,0,.48.16.48.48"/>
  <path class="st2" d="M772.45,613.99c0,.31-.16.47-.48.47h-4.48c-.33,0-.48-.16-.48-.47v-31.47c-.01-.33.14-.49.47-.49h4.47c.33,0,.48.16.48.49v31.47Z"/>
  <path class="st2" d="M235.89,668.79c-.83,0-1.63-.08-2.43-.24-.78-.16-1.54-.37-2.24-.64-.71-.27-1.37-.59-1.97-.96-.59-.37-1.12-.77-1.55-1.2-.17-.18-.19-.35-.06-.5l2.04-2.43c.14-.19.3-.19.45-.04.36.3.75.58,1.2.88.45.3.93.56,1.44.78.51.23,1.06.41,1.62.56.58.14,1.17.23,1.81.23,1.34,0,2.36-.31,3.09-.94.73-.61,1.1-1.41,1.1-2.38,0-.83-.3-1.51-.88-2.04-.59-.53-1.65-.91-3.19-1.14l-1.17-.16c-2.18-.32-3.82-1.01-4.99-2.08-1.15-1.07-1.73-2.56-1.73-4.47,0-1.03.17-1.98.51-2.84.36-.86.85-1.59,1.51-2.19.66-.61,1.45-1.07,2.38-1.4.93-.33,1.98-.49,3.13-.49,1.4,0,2.74.21,3.98.62,1.26.42,2.34.97,3.23,1.67.16.13.17.3.06.48l-1.57,2.49c-.13.18-.28.22-.47.1-.92-.61-1.79-1.05-2.65-1.35-.85-.29-1.75-.44-2.69-.44-1.13,0-2.01.29-2.61.86-.59.58-.9,1.31-.9,2.21,0,.78.31,1.45.92,1.98.62.53,1.68.9,3.19,1.13l1.18.17c2.16.32,3.81,1.01,4.95,2.08,1.13,1.07,1.71,2.59,1.71,4.57,0,1.01-.19,1.96-.53,2.84-.36.87-.89,1.62-1.59,2.26-.71.63-1.6,1.13-2.64,1.48-1.04.37-2.25.54-3.64.54"/>
  <path class="st2" d="M252.22,645.8c.06-.23.2-.34.42-.34h3.02c.22,0,.36.11.44.34l7.52,22.28c.08.23,0,.33-.21.33h-3.22c-.22,0-.36-.11-.42-.33l-1.48-4.46h-8.4s-1.46,4.46-1.46,4.46c-.08.23-.21.33-.43.33h-3.17c-.22,0-.3-.11-.23-.33l7.64-22.29ZM257.1,660.07l-2.95-8.91h-.1l-2.98,8.91h6.03Z"/>
  <path class="st2" d="M272.65,665.2c1.29,0,2.35-.43,3.16-1.27.81-.85,1.21-2.06,1.21-3.66v-14.48c0-.22.11-.33.33-.33h3.21c.21,0,.33.11.33.33v14.55c0,1.32-.2,2.51-.62,3.56-.41,1.04-.98,1.93-1.71,2.65-.73.72-1.6,1.27-2.61,1.65-1,.38-2.1.57-3.28.57s-2.25-.19-3.25-.57c-1-.38-1.87-.93-2.6-1.65-.73-.72-1.31-1.6-1.71-2.65-.42-1.05-.62-2.24-.62-3.56v-14.55c0-.22.11-.33.33-.33h3.21c.22,0,.33.11.33.33v14.48c0,1.6.4,2.82,1.21,3.66.81.84,1.85,1.27,3.11,1.27"/>
  <path class="st2" d="M284.22,645.8c0-.23.11-.34.33-.34h7.96c3.89,0,6.38,1.69,7.45,5.09.08.3.16.61.22.93.08.33.12.73.19,1.21.05.47.09,1.05.11,1.74.03.68.03,1.52.03,2.51s0,1.83-.03,2.52c-.01.68-.06,1.26-.11,1.73-.06.47-.11.87-.19,1.2-.06.33-.14.64-.22.93-1.07,3.4-3.56,5.1-7.45,5.1h-7.96c-.22,0-.33-.11-.33-.33v-22.28ZM288.1,664.63c0,.13.06.2.19.2h3.31c1.24,0,2.26-.23,3-.68.76-.45,1.29-1.19,1.62-2.22.08-.16.13-.36.17-.59.05-.24.08-.54.11-.91.03-.37.06-.84.09-1.41.01-.56.03-1.26.03-2.09s-.01-1.52-.03-2.09c-.03-.56-.06-1.03-.09-1.41-.03-.38-.06-.68-.11-.91-.04-.23-.09-.42-.17-.58-.33-1.03-.85-1.77-1.62-2.22-.74-.45-1.76-.68-3-.68h-3.31c-.12,0-.19.06-.19.2v15.39Z"/>
  <path class="st2" d="M303.27,645.79c0-.23.11-.33.33-.33h3.22c.22,0,.33.11.33.33v22.28c0,.23-.11.33-.33.33h-3.22c-.22,0-.33-.11-.33-.33v-22.28Z"/>
  <path class="st2" d="M316.91,645.79c0-.23.11-.33.33-.33h13.97c.22,0,.33.11.33.33v2.9c0,.23-.11.34-.33.34h-10.23c-.12,0-.19.06-.19.2v5.84c0,.13.06.2.19.2h8.63c.22,0,.33.11.33.33v2.9c0,.23-.11.34-.33.34h-8.63c-.12,0-.19.06-.19.2v9.01c0,.23-.11.33-.33.33h-3.22c-.22,0-.33-.11-.33-.33v-22.28Z"/>
  <path class="st2" d="M333.85,645.79c0-.23.11-.33.33-.33h13.97c.22,0,.33.1.33.33v2.9c0,.22-.11.34-.33.34h-10.23c-.13,0-.19.07-.19.21v5.6c0,.14.06.2.19.2h8.63c.21,0,.33.11.33.33v2.9c0,.23-.11.33-.33.33h-8.63c-.13,0-.19.08-.19.21v5.81c0,.13.06.2.19.2h10.23c.22,0,.33.1.33.33v2.91c0,.23-.11.33-.33.33h-13.97c-.22,0-.33-.1-.33-.33v-22.28Z"/>
  <path class="st2" d="M351.09,645.78c0-.23.11-.33.33-.33h7.96c3.89,0,6.38,1.7,7.45,5.09.08.29.16.6.22.93.08.33.12.73.19,1.2.05.47.09,1.05.11,1.74.03.68.03,1.52.03,2.51s0,1.83-.03,2.52c-.02.68-.06,1.26-.11,1.73-.06.48-.11.87-.19,1.2-.06.33-.14.64-.22.93-1.07,3.4-3.56,5.09-7.45,5.09h-7.96c-.22,0-.33-.11-.33-.33v-22.28ZM354.97,664.61c0,.13.06.2.19.2h3.31c1.24,0,2.25-.23,3-.68.76-.45,1.29-1.19,1.62-2.22.08-.16.13-.36.17-.59.04-.24.08-.54.11-.91.03-.37.06-.84.09-1.41.01-.56.03-1.26.03-2.09s-.02-1.52-.03-2.09c-.03-.56-.06-1.03-.09-1.41-.03-.38-.06-.68-.11-.91-.05-.23-.1-.42-.17-.57-.33-1.04-.85-1.77-1.62-2.22-.74-.45-1.75-.68-3-.68h-3.31c-.13,0-.19.06-.19.2v15.39Z"/>
  <path class="st2" d="M370.13,645.78c0-.23.11-.33.33-.33h13.97c.22,0,.33.11.33.33v2.9c0,.22-.11.34-.33.34h-10.23c-.13,0-.19.06-.19.2v5.6c0,.14.06.2.19.2h8.63c.21,0,.33.11.33.34v2.9c0,.23-.11.33-.33.33h-8.63c-.13,0-.19.07-.19.2v5.81c0,.13.06.2.19.2h10.23c.22,0,.33.11.33.33v2.91c0,.23-.11.33-.33.33h-13.97c-.22,0-.33-.11-.33-.33v-22.28Z"/>
  <path class="st2" d="M400.02,668.38c-.25,0-.4-.11-.5-.34l-4.26-8.95h-3.84c-.12,0-.19.08-.19.22v8.74c0,.23-.11.34-.33.34h-3.22c-.22,0-.33-.11-.33-.34v-22.27c0-.23.11-.34.33-.34h8.62c1.03,0,1.97.16,2.85.5.85.33,1.6.8,2.24,1.4.64.6,1.13,1.31,1.49,2.16.36.84.54,1.77.54,2.78,0,1.51-.39,2.81-1.15,3.91-.76,1.1-1.79,1.9-3.08,2.39l4.68,9.35c.06.11.08.21.01.3-.05.09-.14.13-.25.13h-3.62ZM396.18,655.52c1.03,0,1.85-.29,2.47-.87.62-.59.93-1.38.93-2.37s-.31-1.81-.93-2.39c-.62-.59-1.45-.88-2.47-.88h-4.76c-.12,0-.19.07-.19.21v6.1c0,.14.06.2.19.2h4.76Z"/>
  <path class="st2" d="M411.98,645.77c.06-.23.2-.33.42-.33h3.02c.22,0,.36.11.44.33l7.53,22.28c.08.23,0,.33-.22.33h-3.22c-.22,0-.36-.11-.42-.33l-1.48-4.46h-8.39l-1.46,4.46c-.08.23-.22.33-.44.33h-3.17c-.22,0-.3-.11-.23-.33l7.64-22.28ZM416.86,660.05l-2.95-8.91h-.09l-2.99,8.91h6.03Z"/>
  <path class="st2" d="M427.96,668.38c-.22,0-.33-.11-.33-.33v-18.83c0-.14-.06-.2-.19-.2h-5.84c-.22,0-.33-.12-.33-.34v-2.9c0-.23.11-.33.33-.33h15.94c.22,0,.33.11.33.33v2.9c0,.23-.11.34-.33.34h-5.83c-.14,0-.2.06-.2.2v18.83c0,.23-.11.33-.33.33h-3.22Z"/>
  <path class="st2" d="M439.61,645.77c0-.23.11-.33.33-.33h3.22c.22-.01.33.1.33.33v22.28c0,.22-.11.33-.33.33h-3.22c-.21,0-.33-.1-.33-.33v-22.28Z"/>
  <path class="st2" d="M454.76,668.75c-1.93,0-3.58-.47-4.96-1.4-1.37-.93-2.35-2.32-2.91-4.13-.11-.36-.2-.73-.28-1.08-.08-.36-.14-.78-.19-1.25-.03-.47-.08-1.03-.09-1.67-.01-.65-.03-1.42-.03-2.32s.02-1.67.03-2.31c.01-.64.06-1.2.09-1.67.05-.47.11-.88.19-1.24.08-.37.17-.72.28-1.08.56-1.83,1.54-3.21,2.91-4.14,1.38-.93,3.03-1.4,4.96-1.4s3.59.47,4.98,1.4c1.37.93,2.35,2.31,2.92,4.14.11.36.19.71.26,1.08.08.36.14.77.19,1.24.05.47.08,1.04.1,1.67.03.64.03,1.41.03,2.31s0,1.67-.03,2.32c-.02.64-.05,1.2-.1,1.67-.04.47-.11.89-.19,1.25-.08.36-.16.72-.26,1.08-.58,1.82-1.56,3.2-2.92,4.13-1.38.93-3.04,1.4-4.98,1.4M454.76,665.17c1.1,0,2.01-.26,2.68-.79.68-.53,1.18-1.27,1.48-2.22.06-.2.13-.44.17-.71.05-.27.08-.61.11-1.01.03-.41.06-.9.08-1.47.03-.57.04-1.26.04-2.08s-.01-1.5-.04-2.08c-.02-.57-.05-1.06-.08-1.46-.03-.4-.06-.75-.11-1.02-.04-.27-.11-.51-.17-.71-.3-.94-.79-1.68-1.48-2.21-.67-.53-1.57-.79-2.68-.79s-2.01.26-2.68.79c-.67.53-1.15,1.27-1.46,2.21-.06.2-.12.44-.17.71-.06.27-.11.61-.14,1.02-.03.4-.04.89-.06,1.46-.02.57-.02,1.27-.02,2.08s0,1.51.02,2.08c.01.57.03,1.06.06,1.47.03.4.08.74.14,1.01.05.27.11.5.17.71.31.95.8,1.69,1.46,2.22.67.53,1.56.79,2.68.79"/>
  <path class="st2" d="M466.05,645.76c0-.23.11-.33.33-.33h3.02c.23,0,.42.11.56.33l9.08,15.83h.13v-15.83c0-.23.11-.33.33-.33h2.85c.22,0,.34.11.34.33v22.28c0,.23-.13.33-.34.33h-2.97c-.25,0-.44-.11-.56-.33l-9.11-15.8h-.12v15.8c0,.23-.11.33-.34.33h-2.85c-.21,0-.33-.11-.33-.33v-22.28Z"/>
  <path class="st2" d="M492.44,645.76c0-.23.11-.33.33-.33h13.97c.22,0,.33.11.33.33v2.9c0,.23-.11.34-.33.34h-10.23c-.13,0-.19.06-.19.2v5.84c0,.13.06.2.19.2h8.63c.22,0,.33.11.33.33v2.9c0,.23-.11.34-.33.34h-8.63c-.13,0-.19.06-.19.2v9.01c0,.23-.11.33-.33.33h-3.22c-.22,0-.33-.11-.33-.33v-22.28Z"/>
  <path class="st2" d="M517.18,668.74c-1.93,0-3.58-.47-4.96-1.4-1.37-.93-2.35-2.32-2.91-4.13-.11-.36-.2-.73-.28-1.08-.08-.36-.14-.78-.19-1.24-.03-.47-.08-1.03-.09-1.67-.01-.65-.03-1.42-.03-2.32s.02-1.67.03-2.31c.01-.64.06-1.2.09-1.67.05-.47.11-.88.19-1.24.08-.37.17-.72.28-1.08.56-1.83,1.54-3.21,2.91-4.14,1.38-.93,3.03-1.4,4.96-1.4s3.59.47,4.97,1.4c1.37.93,2.35,2.31,2.92,4.14.11.36.19.71.27,1.08.08.36.14.77.19,1.24.05.47.08,1.03.09,1.67.03.64.03,1.41.03,2.31s0,1.67-.03,2.32c-.01.64-.04,1.2-.09,1.67-.04.47-.11.89-.19,1.24-.08.36-.16.73-.27,1.08-.57,1.82-1.55,3.2-2.92,4.13-1.38.93-3.03,1.4-4.97,1.4M517.18,665.16c1.1,0,2.01-.27,2.68-.79.68-.53,1.18-1.27,1.48-2.22.06-.2.12-.44.17-.71.05-.27.08-.61.11-1.01.03-.41.06-.9.08-1.47.03-.57.05-1.26.05-2.08s-.01-1.5-.05-2.08c-.01-.57-.04-1.06-.08-1.46-.03-.4-.06-.75-.11-1.02-.05-.27-.11-.51-.17-.71-.3-.94-.79-1.68-1.48-2.21-.67-.53-1.57-.79-2.68-.79s-2.01.26-2.68.79c-.67.53-1.15,1.27-1.46,2.21-.06.2-.12.44-.17.71-.06.27-.11.61-.14,1.02-.03.4-.04.89-.06,1.46-.02.57-.02,1.27-.02,2.08s0,1.51.02,2.08c.01.57.03,1.06.06,1.47.03.4.08.74.14,1.01.05.27.11.5.17.71.31.95.8,1.69,1.46,2.22.67.53,1.55.79,2.68.79"/>
  <path class="st2" d="M541.15,668.36c-.25,0-.4-.11-.5-.34l-4.26-8.95h-3.84c-.12,0-.19.08-.19.22v8.74c0,.23-.11.34-.33.34h-3.22c-.22,0-.33-.11-.33-.34v-22.27c0-.23.11-.34.33-.34h8.62c1.03,0,1.97.16,2.85.5.85.33,1.6.8,2.24,1.4.64.6,1.13,1.31,1.49,2.16.36.84.54,1.77.54,2.78,0,1.51-.39,2.82-1.15,3.91-.76,1.1-1.79,1.9-3.08,2.39l4.68,9.35c.06.11.08.21.01.3-.04.09-.14.13-.25.13h-3.62ZM537.31,655.5c1.03,0,1.85-.29,2.47-.87.62-.59.93-1.38.93-2.37s-.31-1.81-.93-2.39c-.62-.59-1.45-.88-2.47-.88h-4.76c-.12,0-.19.07-.19.21v6.1c0,.14.06.2.19.2h4.76Z"/>
  <path class="st2" d="M553.56,663.09c-.11-.36-.2-.71-.28-1.07-.08-.35-.14-.75-.19-1.21-.03-.46-.08-1-.09-1.62-.01-.62-.03-1.39-.03-2.32s.01-1.67.03-2.29c.01-.63.06-1.17.09-1.63.05-.47.11-.87.19-1.21.08-.35.17-.71.28-1.07.56-1.89,1.52-3.31,2.86-4.24,1.35-.93,2.97-1.4,4.87-1.4,1.79,0,3.35.44,4.63,1.31,1.31.88,2.27,2.08,2.91,3.62.06.2.01.33-.17.4l-2.78,1.38c-.19.11-.34.06-.42-.17-.37-.81-.88-1.51-1.52-2.09-.66-.58-1.53-.88-2.65-.88s-1.93.27-2.57.81c-.65.54-1.12,1.28-1.43,2.23-.06.25-.13.49-.17.74-.06.25-.11.57-.14.97-.03.39-.05.87-.06,1.43-.01.57-.01,1.26-.01,2.1s0,1.56.01,2.11c.01.55.03,1.02.06,1.41.03.4.08.73.14.98.05.26.11.5.17.72.31.95.78,1.69,1.43,2.23.64.54,1.49.81,2.57.81s1.99-.3,2.65-.88c.64-.58,1.15-1.28,1.52-2.09.08-.23.23-.28.42-.17l2.78,1.38c.19.07.23.2.17.4-.64,1.53-1.6,2.74-2.91,3.61-1.29.88-2.84,1.32-4.63,1.32-1.9,0-3.51-.47-4.87-1.4-1.34-.93-2.3-2.35-2.86-4.24"/>
  <path class="st2" d="M575.75,668.36c-.23,0-.34-.11-.34-.33v-9.05l-6.45-13.22c-.08-.23,0-.33.26-.33h3.31c.22,0,.37.11.47.33l4.36,8.91h.09l4.4-8.91c.08-.23.23-.33.45-.33h3.17c.27-.01.36.1.27.33l-6.45,13.23v9.05c0,.23-.11.33-.33.33h-3.2Z"/>
  <path class="st2" d="M587.15,645.74c0-.22.11-.33.33-.33h8.29c2.36,0,4.1.55,5.26,1.67,1.13,1.11,1.7,2.59,1.7,4.43,0,1.31-.25,2.35-.76,3.12-.51.78-1.12,1.35-1.82,1.74v.07c.34.13.7.35,1.04.64.36.3.67.66.95,1.1.28.44.53.95.7,1.52.19.58.28,1.21.28,1.91,0,2.29-.66,4-1.99,5.09-1.34,1.1-3.22,1.65-5.68,1.65h-7.96c-.22,0-.33-.11-.33-.33v-22.28ZM595.67,654.96c.98,0,1.76-.27,2.34-.83.56-.55.84-1.28.84-2.18s-.28-1.67-.84-2.22c-.58-.54-1.35-.83-2.34-.83h-4.46c-.13,0-.19.07-.19.2v5.64c0,.13.06.2.19.2h4.46ZM591.02,664.64c0,.13.06.2.19.2h4.66c1.09,0,1.93-.3,2.5-.88.58-.58.87-1.36.87-2.33s-.3-1.71-.87-2.29c-.57-.58-1.41-.88-2.5-.88h-4.66c-.13,0-.19.07-.19.2v5.98Z"/>
  <path class="st2" d="M605.61,645.74c0-.23.11-.33.33-.33h13.97c.22,0,.33.11.33.33v2.9c0,.23-.11.34-.33.34h-10.23c-.13,0-.19.06-.19.2v5.6c0,.14.06.2.19.2h8.63c.22,0,.33.11.33.34v2.9c0,.23-.11.33-.33.33h-8.63c-.13,0-.19.07-.19.2v5.81c0,.13.06.2.19.2h10.23c.22,0,.33.11.33.33v2.91c0,.23-.11.33-.33.33h-13.97c-.22,0-.33-.11-.33-.33v-22.28Z"/>
  <path class="st2" d="M635.5,668.34c-.25,0-.41-.11-.5-.34l-4.26-8.95h-3.84c-.12.01-.19.08-.19.22v8.74c0,.22-.11.33-.33.33h-3.22c-.22,0-.33-.11-.33-.33v-22.28c0-.23.11-.34.33-.34h8.62c1.03,0,1.97.16,2.84.5.85.33,1.6.8,2.24,1.4.64.6,1.14,1.31,1.5,2.16.36.84.54,1.77.54,2.78,0,1.51-.39,2.82-1.15,3.91-.76,1.1-1.79,1.91-3.08,2.39l4.68,9.35c.06.11.08.21.01.3-.05.09-.14.13-.25.13h-3.62ZM631.66,655.48c1.03,0,1.85-.29,2.47-.87.62-.59.93-1.38.93-2.37s-.31-1.81-.93-2.39c-.62-.59-1.45-.88-2.47-.88h-4.76c-.12,0-.19.07-.19.21v6.11c0,.14.06.2.19.2h4.76Z"/>
  <path class="st2" d="M648.7,668.72c-.83,0-1.63-.08-2.43-.24-.78-.16-1.54-.37-2.24-.64-.71-.27-1.37-.59-1.97-.97-.59-.37-1.12-.77-1.55-1.2-.17-.18-.19-.35-.06-.51l2.04-2.42c.14-.19.3-.2.45-.04.36.3.75.58,1.2.88.45.3.93.56,1.44.78.51.22,1.06.41,1.62.55.58.15,1.17.23,1.81.23,1.34,0,2.36-.31,3.09-.93.73-.61,1.1-1.41,1.1-2.38,0-.83-.3-1.51-.88-2.04-.59-.53-1.65-.91-3.19-1.13l-1.17-.17c-2.18-.32-3.82-1.01-4.99-2.07-1.15-1.07-1.72-2.56-1.72-4.47,0-1.04.17-1.98.51-2.84.36-.86.85-1.59,1.51-2.19.66-.61,1.45-1.07,2.38-1.4.93-.33,1.98-.49,3.13-.49,1.4,0,2.74.21,3.98.62,1.26.42,2.33.97,3.23,1.67.16.13.17.29.06.47l-1.57,2.49c-.13.18-.28.22-.47.1-.92-.6-1.79-1.05-2.65-1.35-.85-.29-1.75-.44-2.69-.44-1.13,0-2.01.29-2.61.86-.59.58-.9,1.31-.9,2.21,0,.78.31,1.45.92,1.98.62.53,1.68.9,3.19,1.13l1.18.17c2.16.32,3.81,1.01,4.95,2.08,1.13,1.07,1.71,2.59,1.71,4.57,0,1.01-.19,1.96-.53,2.84-.36.87-.89,1.62-1.59,2.26-.71.63-1.6,1.13-2.64,1.48-1.04.37-2.25.54-3.64.54"/>
  <path class="st2" d="M659.48,645.73c0-.23.11-.33.33-.33h13.97c.22,0,.33.11.33.33v2.9c0,.23-.11.34-.33.34h-10.23c-.12,0-.19.06-.19.2v5.6c0,.14.06.2.19.2h8.63c.22,0,.33.11.33.34v2.9c0,.23-.11.33-.33.33h-8.63c-.12,0-.19.07-.19.2v5.81c0,.13.06.2.19.2h10.23c.22,0,.33.11.33.33v2.91c0,.23-.11.33-.33.33h-13.97c-.22,0-.33-.11-.33-.33v-22.28Z"/>
  <path class="st2" d="M676.66,663.08c-.11-.36-.2-.71-.28-1.07-.08-.35-.14-.76-.19-1.21-.03-.46-.08-1-.09-1.62-.01-.62-.03-1.39-.03-2.32s.02-1.66.03-2.29c.01-.63.06-1.18.09-1.64.05-.47.11-.87.19-1.21.08-.35.17-.71.28-1.07.56-1.89,1.52-3.31,2.86-4.25,1.35-.93,2.97-1.4,4.87-1.4,1.79,0,3.35.43,4.63,1.31,1.31.88,2.27,2.08,2.91,3.62.06.2.01.33-.17.4l-2.78,1.38c-.19.11-.34.06-.42-.17-.37-.81-.88-1.51-1.52-2.1-.65-.58-1.52-.88-2.64-.88s-1.93.27-2.57.81c-.66.54-1.12,1.28-1.43,2.23-.06.25-.12.49-.17.74-.06.25-.11.57-.14.97-.03.39-.04.87-.06,1.43-.02.57-.02,1.26-.02,2.09s0,1.57.02,2.12c.01.55.03,1.02.06,1.41.03.4.08.72.14.98.05.26.11.5.17.72.31.95.78,1.69,1.43,2.23.64.54,1.49.81,2.57.81s1.99-.29,2.64-.88c.64-.58,1.15-1.28,1.52-2.09.08-.23.23-.28.42-.17l2.78,1.38c.19.07.23.2.17.4-.64,1.53-1.6,2.74-2.91,3.61-1.29.88-2.85,1.32-4.63,1.32-1.9,0-3.51-.47-4.87-1.4-1.34-.93-2.3-2.34-2.86-4.23"/>
  <path class="st2" d="M702.18,665.13c1.29,0,2.35-.43,3.16-1.27.81-.85,1.21-2.06,1.21-3.66v-14.48c0-.23.11-.33.33-.33h3.21c.21,0,.33.11.33.33v14.55c0,1.32-.2,2.51-.62,3.56-.41,1.04-.98,1.93-1.71,2.65-.73.72-1.6,1.27-2.61,1.65-1,.38-2.1.58-3.28.58s-2.25-.2-3.25-.58c-1-.38-1.87-.93-2.6-1.65-.73-.72-1.31-1.6-1.71-2.65-.42-1.05-.62-2.24-.62-3.56v-14.55c0-.23.11-.33.33-.33h3.21c.22,0,.33.11.33.33v14.48c0,1.6.4,2.82,1.21,3.66.81.84,1.85,1.27,3.11,1.27"/>
  <path class="st2" d="M726.41,668.33c-.25,0-.4-.11-.5-.34l-4.26-8.94h-3.84c-.12,0-.19.07-.19.21v8.74c0,.23-.11.34-.33.34h-3.22c-.22,0-.33-.11-.33-.34v-22.27c0-.23.11-.34.33-.34h8.62c1.03,0,1.97.16,2.85.5.86.33,1.6.8,2.24,1.4.64.6,1.13,1.31,1.49,2.16.36.84.54,1.77.54,2.78,0,1.51-.39,2.81-1.15,3.91-.76,1.1-1.79,1.9-3.08,2.39l4.68,9.35c.06.11.08.21.01.3-.05.09-.14.13-.25.13h-3.62ZM722.57,655.48c1.03,0,1.85-.29,2.47-.88.62-.59.93-1.38.93-2.37s-.31-1.81-.93-2.39c-.62-.58-1.45-.87-2.47-.87h-4.76c-.12,0-.19.06-.19.2v6.1c0,.14.06.2.19.2h4.76Z"/>
  <path class="st2" d="M732.6,645.72c0-.23.11-.33.33-.33h3.22c.22,0,.33.11.33.33v22.28c0,.23-.11.33-.33.33h-3.22c-.21,0-.33-.11-.33-.33v-22.28Z"/>
  <path class="st2" d="M771.24,645.71l-6.53,13.22v9.08c0,.16,0,.32-.32.32h-3.18c-.16,0-.32-.16-.32-.32v-9.08l-4.98-10.03h-7.28c-.16,0-.16.16-.16.32v18.79c0,.16-.16.32-.31.32h-3.19c-.32,0-.48-.16-.48-.32v-18.79c0-.16,0-.32-.16-.32h-5.73q-.32,0-.32-.32v-2.86c0-.16,0-.32.32-.32h19.43c.16,0,.32.16.48.32l4.3,8.92h.16l4.46-8.92c0-.16.16-.32.32-.32h3.18c.32,0,.48.16.32.32"/>
  <path class="st2" d="M768.72,664.55c0-.23.11-.33.33-.33h3.08c.22,0,.33.1.33.33v3.68c0,.18,0,.31-.03.4-.01.09-.08.19-.19.3l-2.72,2.91c-.16.17-.31.24-.47.24-.22,0-.33-.12-.33-.34v-7.18Z"/>
  <path class="st2" d="M314.87,711.27c-.22,0-.33-.11-.33-.34v-22.41c-.01-.23.09-.33.31-.33h8.41c1.07,0,2.07.17,2.97.52.93.35,1.69.84,2.35,1.47.64.62,1.16,1.37,1.52,2.25.36.88.55,1.86.55,2.93s-.19,2.06-.55,2.95c-.36.88-.88,1.64-1.52,2.26-.66.62-1.42,1.11-2.35,1.45-.91.35-1.91.53-2.97.53h-4.66c-.13,0-.19.07-.19.21v8.18c.01.23-.09.34-.31.34h-3.24ZM323.04,698.91c1.15,0,2.08-.32,2.74-.96.66-.65.99-1.52.99-2.59s-.33-1.92-.99-2.58c-.66-.66-1.58-.98-2.74-.98h-4.43c-.13,0-.19.06-.19.2v6.72c0,.14.06.2.19.2h4.43Z"/>
  <path class="st2" d="M346.66,711.26c-.25,0-.41-.11-.5-.34l-4.3-8.99h-3.86c-.13,0-.19.07-.19.21v8.79c.01.23-.09.34-.31.34h-3.24c-.22,0-.33-.11-.33-.34v-22.41c-.01-.23.09-.34.31-.34h8.67c1.03,0,1.99.16,2.86.5.86.34,1.61.81,2.25,1.41.64.6,1.14,1.33,1.5,2.18.36.84.55,1.78.55,2.8,0,1.51-.39,2.83-1.16,3.93-.77,1.11-1.8,1.91-3.1,2.41l4.72,9.41c.06.11.08.21.02.3-.05.09-.14.13-.25.13h-3.65ZM342.78,698.34c1.03,0,1.86-.3,2.49-.88.63-.59.94-1.38.94-2.38s-.31-1.82-.94-2.41c-.63-.6-1.45-.88-2.49-.88h-4.79c-.13,0-.19.06-.19.2v6.14c0,.14.06.2.19.2h4.79Z"/>
  <path class="st2" d="M361.87,711.64c-1.94,0-3.6-.47-4.99-1.41-1.38-.94-2.36-2.33-2.94-4.16-.11-.36-.2-.73-.28-1.09s-.14-.78-.19-1.25c-.03-.48-.08-1.04-.09-1.68-.01-.65-.03-1.42-.03-2.33s.01-1.68.03-2.32c.01-.64.06-1.2.09-1.68.05-.48.11-.89.19-1.25.08-.37.17-.73.28-1.09.56-1.84,1.55-3.22,2.92-4.16,1.4-.94,3.05-1.41,4.99-1.41s3.61.47,5,1.41c1.38.94,2.36,2.32,2.94,4.16.11.36.19.72.27,1.09.08.36.14.77.19,1.25.04.48.08,1.04.09,1.68.03.65.03,1.43.03,2.32s0,1.68-.03,2.33c-.01.64-.05,1.21-.09,1.68-.05.47-.11.89-.19,1.25-.08.36-.16.73-.27,1.09-.56,1.83-1.55,3.22-2.92,4.16-1.39.94-3.05,1.41-5.01,1.41M361.87,708.04c1.11,0,2.02-.27,2.68-.8.69-.53,1.19-1.28,1.48-2.23.06-.21.13-.44.17-.71.05-.27.08-.61.11-1.02.03-.41.06-.9.08-1.48.03-.57.04-1.27.04-2.09s-.01-1.51-.04-2.09c-.02-.57-.05-1.06-.08-1.47-.03-.41-.06-.75-.11-1.03-.05-.27-.11-.51-.17-.71-.3-.95-.8-1.69-1.48-2.22-.67-.53-1.58-.8-2.69-.8s-2.02.27-2.69.8c-.67.53-1.16,1.27-1.47,2.22-.07.2-.13.44-.17.71-.06.27-.11.62-.14,1.03-.03.41-.05.9-.06,1.47-.01.58-.01,1.28-.01,2.09s0,1.52.01,2.09c.01.58.03,1.07.06,1.48.03.41.08.75.14,1.02.05.27.11.51.17.71.31.95.8,1.7,1.47,2.23.69.53,1.58.8,2.71.8"/>
  <path class="st2" d="M374.27,706.07c-.11-.36-.2-.73-.28-1.09s-.14-.78-.19-1.25c-.03-.48-.08-1.04-.09-1.68-.01-.65-.03-1.43-.03-2.33s.02-1.67.03-2.32c.01-.64.06-1.2.09-1.68.05-.48.11-.89.19-1.25.08-.37.17-.73.28-1.09.56-1.84,1.55-3.22,2.93-4.16,1.39-.94,3.08-1.41,5.08-1.41,1.05,0,2.02.14,2.86.41.86.28,1.62.63,2.28,1.07.66.44,1.21.96,1.64,1.56.44.6.78,1.22,1.02,1.85.09.2.05.36-.13.48l-2.77,1.25c-.2.07-.34.01-.42-.17-.52-.93-1.11-1.64-1.81-2.13-.71-.48-1.61-.73-2.71-.73s-2.06.26-2.74.8c-.69.53-1.17,1.28-1.49,2.22-.06.2-.13.44-.17.71-.06.28-.11.62-.14,1.03-.03.41-.05.9-.06,1.47-.01.58-.01,1.27-.01,2.09s0,1.52.01,2.09c.01.58.03,1.07.06,1.48.03.4.08.75.14,1.01.04.27.11.51.17.71.31.95.8,1.7,1.49,2.23.69.53,1.61.8,2.75.8.98,0,1.86-.24,2.61-.73.78-.48,1.31-1.21,1.62-2.15.11-.36.19-.79.27-1.27.06-.48.09-1.05.09-1.71,0-.14-.06-.2-.2-.2h-3.69c-.22,0-.33-.12-.33-.35v-2.71c0-.23.11-.34.33-.34h7.41c.22,0,.33.1.33.33v2c0,.95-.03,1.88-.13,2.8-.09.93-.22,1.68-.39,2.27-.53,1.8-1.51,3.21-2.91,4.19-1.4.99-3.05,1.48-4.99,1.48s-3.69-.47-5.09-1.41c-1.37-.94-2.36-2.33-2.94-4.16"/>
  <path class="st2" d="M407.42,711.26c-.25,0-.41-.11-.5-.34l-4.3-9h-3.86c-.13,0-.19.07-.19.21v8.79c.01.23-.1.34-.31.34h-3.24c-.22,0-.33-.11-.33-.34v-22.41c-.01-.23.09-.34.31-.34h8.67c1.03,0,1.98.17,2.86.51.86.34,1.61.81,2.25,1.41.64.6,1.14,1.32,1.5,2.17.36.85.55,1.78.55,2.8,0,1.52-.39,2.83-1.15,3.93-.77,1.11-1.8,1.92-3.1,2.41l4.72,9.41c.06.11.08.21.02.3-.05.09-.14.13-.25.13h-3.65ZM403.54,698.32c1.03,0,1.86-.29,2.49-.88.63-.59.94-1.38.94-2.38s-.31-1.82-.94-2.41c-.63-.59-1.45-.88-2.49-.88h-4.79c-.13,0-.19.06-.19.2v6.14c0,.14.06.2.19.2h4.79Z"/>
  <path class="st2" d="M420.56,688.51c.06-.23.2-.34.42-.34h3.04c.22,0,.36.11.44.34l7.59,22.41c.08.23,0,.34-.22.34h-3.24c-.22,0-.36-.11-.42-.34l-1.5-4.48h-8.45l-1.45,4.48c-.08.23-.22.34-.44.34h-3.19c-.22,0-.3-.11-.24-.34l7.67-22.41ZM425.47,702.87l-2.97-8.96h-.09l-3.01,8.96h6.07Z"/>
  <path class="st2" d="M434.77,688.51c0-.23.11-.34.33-.34h2.94c.28,0,.47.1.56.33l6.16,14.23h.13l6.07-14.23c.08-.23.26-.34.56-.34h2.89c.22,0,.33.11.33.34v22.41c.01.23-.09.34-.31.34h-2.86c-.22,0-.33-.11-.33-.34l-.02-14.12h-.14l-4.74,10.86c-.13.3-.33.44-.61.44h-1.92c-.28,0-.48-.14-.64-.44l-4.74-10.86h-.12v14.12c.01.23-.1.34-.33.34h-2.86c-.22,0-.33-.11-.33-.34v-22.41Z"/>
  <path class="st2" d="M459.36,688.5c0-.23.11-.34.33-.34h2.94c.28,0,.47.11.57.34l6.16,14.23h.12l6.07-14.23c.08-.23.26-.34.56-.34h2.9c.22,0,.33.11.33.34v22.41c.01.23-.09.34-.31.34h-2.86c-.22,0-.33-.11-.33-.34l-.02-14.13h-.14l-4.74,10.86c-.12.3-.33.44-.61.44h-1.92c-.28,0-.48-.14-.64-.44l-4.74-10.86h-.13v14.13c.01.23-.09.34-.33.34h-2.86c-.22,0-.33-.11-.33-.34v-22.41Z"/>
  <path class="st2" d="M483.95,688.5c0-.23.11-.34.33-.34h3.24c.22,0,.33.1.33.33l.02,22.41c0,.23-.11.34-.33.34h-3.24c-.22,0-.33-.1-.33-.33v-22.41Z"/>
  <path class="st2" d="M492.46,688.49c0-.23.11-.34.33-.34h3.04c.23,0,.42.11.56.34l9.13,15.93h.13v-15.93c0-.23.11-.34.33-.34h2.86c.22,0,.34.11.34.34v22.41c.01.23-.11.34-.33.34h-2.99c-.25,0-.44-.11-.56-.34l-9.18-15.89h-.13v15.89c.01.23-.09.34-.33.34h-2.86c-.22,0-.33-.11-.33-.34v-22.41Z"/>
  <path class="st2" d="M513.72,706.05c-.11-.36-.2-.73-.28-1.09s-.14-.78-.19-1.25c-.03-.48-.08-1.04-.09-1.68-.02-.65-.03-1.43-.03-2.33s.01-1.67.03-2.32c.01-.64.06-1.2.09-1.68.05-.48.11-.89.19-1.25.08-.37.17-.73.28-1.09.56-1.84,1.55-3.22,2.92-4.16,1.4-.94,3.08-1.41,5.09-1.41,1.05,0,2.02.14,2.86.41.86.28,1.63.63,2.28,1.07.66.44,1.21.96,1.64,1.56.44.6.78,1.22,1.02,1.85.09.2.04.36-.13.48l-2.77,1.25c-.2.07-.34.01-.42-.17-.52-.93-1.11-1.64-1.82-2.13-.7-.48-1.61-.73-2.71-.73s-2.07.26-2.74.8c-.69.53-1.17,1.28-1.49,2.22-.06.2-.13.44-.17.71-.06.27-.11.61-.14,1.02-.03.41-.05.9-.06,1.47-.01.58-.01,1.27-.01,2.09s0,1.52.01,2.09c.01.58.03,1.07.06,1.48.03.4.08.75.14,1.01.04.27.11.51.17.71.31.95.8,1.7,1.49,2.23.69.53,1.61.8,2.75.8.98,0,1.86-.24,2.61-.73.78-.48,1.31-1.21,1.63-2.15.11-.36.19-.79.27-1.27.06-.48.09-1.05.09-1.71,0-.14-.06-.2-.2-.2h-3.69c-.22,0-.33-.12-.33-.35v-2.71c0-.23.11-.34.33-.34h7.41c.22,0,.33.11.33.34v2c0,.95-.03,1.88-.13,2.8-.09.92-.22,1.67-.39,2.26-.53,1.8-1.51,3.21-2.91,4.19-1.39.99-3.05,1.48-4.99,1.48s-3.69-.47-5.09-1.41c-1.38-.94-2.36-2.33-2.94-4.16"/>
  <path class="st2" d="M541.19,705.43c0-1.22.31-2.38.94-3.5.63-1.11,1.72-2.3,3.32-3.56-.47-.61-.86-1.15-1.17-1.61-.33-.46-.58-.9-.78-1.31-.19-.41-.34-.8-.42-1.17-.1-.37-.14-.77-.14-1.21,0-.77.16-1.48.44-2.12.28-.65.67-1.21,1.19-1.68.5-.48,1.1-.85,1.78-1.11.67-.26,1.39-.39,2.18-.39s1.55.14,2.24.42c.67.28,1.25.67,1.74,1.14.47.47.83,1.02,1.1,1.65.26.64.39,1.29.39,1.97,0,.53-.06,1.01-.19,1.48-.14.46-.36.93-.66,1.39-.31.46-.72.95-1.2,1.44-.5.5-1.11,1.03-1.83,1.6l3.49,4.62,2.24-2.74c.14-.16.3-.17.47-.03l1.81,1.6c.17.13.2.29.06.47l-2.63,3.29.78,1.02c.21.27.41.46.64.57.22.11.47.17.72.17h.5c.22,0,.33.12.33.34v2.72c0,.23-.11.34-.33.34h-1.08c-.38,0-.71-.03-1-.09-.28-.06-.55-.15-.78-.29-.25-.13-.48-.31-.74-.54-.23-.23-.48-.53-.75-.88l-.57-.71c-.94,1.02-1.86,1.75-2.77,2.21-.91.45-1.92.68-3.06.68-1.03,0-1.94-.16-2.72-.46-.78-.3-1.43-.74-1.94-1.29-.51-.56-.91-1.21-1.17-1.96-.28-.76-.4-1.58-.4-2.47M544.61,705.22c0,.93.27,1.68.81,2.24.55.57,1.3.85,2.27.85.61,0,1.19-.16,1.74-.46.51-.31,1.16-.87,1.91-1.68l-3.96-5.23c-1.08.86-1.81,1.63-2.19,2.31-.39.68-.58,1.34-.58,1.97M548.13,696.29c.53-.41.95-.77,1.28-1.09.31-.31.56-.59.73-.84.17-.25.3-.48.36-.71.06-.23.09-.46.09-.71,0-.57-.19-1.05-.58-1.44-.41-.39-.89-.6-1.48-.6-.64,0-1.16.2-1.55.6-.4.4-.59.89-.59,1.48,0,.2.01.4.06.58.05.18.13.39.25.63.11.24.3.53.52.87.23.34.55.76.91,1.25"/>
  <path class="st2" d="M569.99,688.49c0-.23.11-.34.33-.34h8.01c3.91,0,6.41,1.7,7.49,5.12.08.3.16.61.22.93.08.33.13.74.19,1.21.05.47.09,1.05.11,1.74.03.69.03,1.53.03,2.53s0,1.84-.03,2.53c-.01.69-.06,1.27-.11,1.75-.06.47-.11.87-.19,1.2-.06.33-.14.64-.22.94-1.06,3.42-3.57,5.12-7.48,5.13h-8.01c-.22,0-.33-.11-.33-.34v-22.41ZM573.88,707.43c0,.13.06.2.19.2h3.33c1.25,0,2.27-.23,3.02-.68.77-.45,1.3-1.21,1.63-2.24.08-.17.12-.36.17-.6.05-.24.08-.55.11-.92.03-.37.06-.84.1-1.41.01-.56.03-1.27.03-2.1s-.01-1.53-.03-2.11c-.03-.56-.06-1.04-.1-1.42-.03-.38-.06-.69-.11-.91-.05-.23-.09-.43-.17-.58-.33-1.04-.86-1.78-1.63-2.23-.75-.46-1.77-.68-3.02-.68h-3.33c-.13,0-.19.06-.19.2v15.48Z"/>
  <path class="st2" d="M603.01,711.22c-.25,0-.41-.11-.5-.34l-4.3-9h-3.86c-.13,0-.19.07-.19.21v8.79c.01.23-.1.34-.31.34h-3.24c-.22,0-.33-.11-.33-.34v-22.41c-.01-.23.1-.34.31-.34h8.67c1.03,0,1.98.16,2.86.51.86.34,1.61.81,2.25,1.41.64.6,1.14,1.32,1.5,2.17.36.84.55,1.78.55,2.8,0,1.52-.39,2.83-1.15,3.93-.77,1.11-1.8,1.91-3.1,2.41l4.72,9.41c.06.11.08.21.01.31-.05.09-.14.13-.25.13h-3.65ZM599.13,698.29c1.03,0,1.86-.29,2.49-.88.63-.59.94-1.38.94-2.38s-.31-1.82-.94-2.41c-.63-.6-1.45-.88-2.49-.88h-4.79c-.13,0-.19.06-.19.2v6.14c0,.14.06.2.19.2h4.79Z"/>
  <path class="st2" d="M618.22,711.6c-1.94,0-3.6-.47-4.99-1.41-1.37-.94-2.36-2.33-2.94-4.16-.11-.36-.2-.73-.28-1.08s-.14-.78-.19-1.25c-.03-.47-.08-1.04-.09-1.68-.01-.65-.03-1.42-.03-2.33s.02-1.67.03-2.32c.01-.64.06-1.21.09-1.68.05-.47.11-.89.19-1.25.08-.37.17-.73.28-1.09.56-1.84,1.55-3.22,2.92-4.16,1.39-.94,3.05-1.41,4.99-1.41s3.61.47,5,1.41c1.38.94,2.36,2.32,2.94,4.16.11.36.19.72.26,1.09.08.36.14.77.19,1.25.05.48.08,1.04.1,1.68.03.65.03,1.42.03,2.32s0,1.68-.03,2.33c-.02.64-.05,1.21-.1,1.68-.05.47-.11.9-.19,1.25s-.16.73-.26,1.08c-.57,1.83-1.55,3.22-2.93,4.16-1.39.94-3.05,1.41-5,1.41M618.22,708c1.11,0,2.02-.27,2.68-.8.68-.53,1.18-1.27,1.48-2.23.06-.2.13-.44.17-.71.05-.27.08-.61.11-1.02.03-.41.06-.9.08-1.48.03-.57.05-1.27.05-2.09s-.02-1.51-.05-2.09c-.01-.57-.05-1.06-.08-1.47-.03-.41-.06-.75-.11-1.03-.04-.27-.11-.51-.17-.71-.3-.95-.8-1.69-1.48-2.22-.67-.53-1.58-.8-2.69-.8s-2.02.27-2.69.8c-.67.53-1.16,1.27-1.47,2.22-.06.2-.13.44-.17.71-.06.27-.11.62-.14,1.03-.03.41-.05.9-.06,1.47-.01.58-.01,1.28-.01,2.09s0,1.52.01,2.09c.01.58.03,1.07.06,1.48.03.41.08.75.14,1.02.04.27.11.51.17.71.31.95.8,1.7,1.47,2.23.69.53,1.58.8,2.71.8"/>
  <path class="st2" d="M630.68,688.47c0-.23.11-.34.33-.34h3.04c.23,0,.42.11.56.34l9.13,15.93h.13v-15.93c0-.23.11-.34.33-.34h2.86c.22,0,.34.11.34.34v22.41c.01.23-.11.34-.33.34h-2.99c-.25,0-.44-.11-.56-.34l-9.18-15.89h-.13v15.89c.01.23-.09.34-.33.34h-2.86c-.22,0-.33-.11-.33-.34v-22.41Z"/>
  <path class="st2" d="M652.02,688.47c0-.23.11-.34.33-.34h14.05c.22,0,.33.11.33.34v2.92c0,.23-.11.34-.33.34h-10.29c-.13,0-.19.06-.19.2v5.63c0,.14.06.2.19.2h8.68c.22,0,.33.11.33.34v2.92c0,.23-.11.34-.33.34h-8.68c-.13,0-.19.07-.19.2v5.84c0,.13.06.2.19.2h10.29c.22,0,.34.11.34.34v2.92c0,.23-.11.34-.33.34h-14.05c-.22,0-.33-.11-.33-.34v-22.41Z"/>
  <path class="st2" d="M677.55,711.58c-.83,0-1.64-.07-2.44-.23-.78-.16-1.55-.37-2.25-.64-.72-.27-1.38-.59-1.99-.97-.59-.37-1.13-.77-1.56-1.2-.17-.18-.19-.35-.06-.51l2.04-2.44c.14-.19.3-.2.45-.04.36.3.75.58,1.2.88.46.3.94.56,1.45.78.52.23,1.07.41,1.64.56.58.15,1.17.22,1.82.22,1.34,0,2.38-.31,3.09-.94.74-.62,1.11-1.41,1.11-2.39,0-.84-.3-1.51-.89-2.05-.6-.53-1.66-.91-3.21-1.14l-1.17-.16c-2.19-.32-3.85-1.01-5.02-2.09-1.16-1.08-1.74-2.57-1.74-4.5,0-1.04.17-2,.52-2.86.36-.86.86-1.59,1.52-2.2.66-.61,1.45-1.08,2.39-1.41.94-.33,1.98-.49,3.14-.5,1.41,0,2.75.21,4,.63,1.27.42,2.35.98,3.25,1.68.16.13.17.3.06.47l-1.58,2.51c-.13.18-.28.22-.47.1-.92-.61-1.8-1.06-2.66-1.36-.86-.29-1.77-.44-2.71-.44-1.14,0-2.02.3-2.63.88-.59.58-.91,1.31-.91,2.22,0,.79.31,1.45.93,1.99.63.53,1.69.91,3.21,1.13l1.19.17c2.18.32,3.83,1.02,4.97,2.09,1.14,1.07,1.72,2.6,1.72,4.6,0,1.02-.19,1.97-.53,2.85-.34.88-.88,1.64-1.58,2.27-.72.64-1.61,1.14-2.66,1.5-1.05.37-2.27.55-3.66.55"/>
  <path class="st2" d="M528.91,499.16c1.3.44.97,2.37-.4,2.37-.59,0-1.18-.04-1.78-.11l-32.93-4.07c-.37-.04-.75.08-1.02.35l-4.43,4.44c-.41.41-1.05.48-1.53.16-1.58-1.04-3.15-2.11-4.7-3.23-3.99-2.87-7.84-5.97-11.26-9.12-1.03-.94.08-2.57,1.35-2,4.97,2.26,10.59,3.62,16.43,4.59h0c10.25,1.69,21.21,2.15,30.63,4.04,3.54.71,6.73,1.58,9.63,2.57"/>
  <path class="st0" d="M531.52,477.58c1.33,1.32-.05,3.52-1.83,2.93-.04-.01-.07-.02-.11-.04-2.03-.66-4.25-1.19-6.75-1.62-3.57-.62-7.7-1.07-12.64-1.5-21.61-1.89-40.73-1.68-59.55-8.22-.04-.01-.07-.03-.11-.04-6.5-2.26-12.01-6.7-15.72-12.49-.21-.33-.43-.67-.64-1h0c-2.95-4.6-5.99-9.36-9.07-14.16-.88-1.38.41-3.11,1.99-2.66,1.63.46,3.29.89,4.96,1.31,13.4,3.28,28.02,5.1,42.46,8.63,24,5.86,40.44,14.54,52,24.28,1.75,1.48,3.39,2.98,4.93,4.5.03.02.05.05.07.07"/>
  <path class="st2" d="M555.5,458.3c.71,1.13-.68,2.39-1.74,1.57-5.08-3.95-11.26-7.08-18.94-9.69-30.66-10.42-82.18-15.19-122.12-40.33-4.17-2.62-8.32-5.35-12.11-8.57-.83-.7-2.91-2.96-4.09-4.52-13.09-17.33-20.46-31.86-21.1-32.92-.69-1.16-2.7-6.34-2.27-9.76.12-.97,1.28-1.38,2-.72,1.51,1.41,3.05,2.77,4.63,4.08,26.24,21.72,62.6,29.6,103.77,47.63,46.53,20.38,59.93,34.19,71.97,53.22"/>
  <path class="st0" d="M559.68,431.31c.55,1.21-1.07,2.22-1.91,1.2-7.36-9.01-16.91-15.68-30.43-22.9-49.67-26.55-104.12-32.49-144.06-74.48-.49-.51-.98-1.04-1.47-1.57-1.84-1.99-1.3-5.21,1.11-6.44,1.98-1.01,4.21-1.57,6.56-1.57.13,0,.25,0,.38,0l5.94.16c3.31.09,6.61-.52,9.67-1.78.68-.28.92-1.11.5-1.71l-1.79-2.55c-.65-.92-1.18-1.9-1.59-2.92-1.34-3.33,2.44-6.38,5.42-4.38.07.05.14.1.21.14,39.25,26.38,83.75,45.16,119.59,76.88,16.16,14.31,25.58,28.22,31.88,41.94"/>
  <path class="st2" d="M609.91,466.87l-41.11,10.39c-3.24.82-6.06-2.35-4.87-5.47l.03-.09c2.2-5.77,4.83-11.77,7.56-18.1,10.92-25.21-.4-41.81-15.15-57.6-35.13-37.59-88.17-64.77-131.69-96.03-2.75-1.97-2.13-6.22,1.07-7.33l10.04-3.48c1.54-.54,3.15-.8,4.74-.8,2.72,0,5.43.77,7.78,2.27l58.48,37.25c.53.34,1.12.55,1.74.62l25.31,3c4.06.48,7.7,2.65,10.06,5.94l47.31,63.7c.7.95,1.78,1.55,2.96,1.65l26.19,2.28c.2.02.41.04.61.07,1.43.19,2.64,1.14,3.22,2.45,2.8,6.35,4.56,13.08,4.93,20.19.76,15.05-6.56,28.44-17.5,38.19-.49.44-1.08.74-1.72.9"/>
</svg>