<?xml version="1.0" encoding="utf-8"?>
<!-- Generator: Adobe Illustrator 23.0.1, SVG Export Plug-In . SVG Version: 6.00 Build 0)  -->
<svg version="1.1" id="Layer_1" xmlns="http://www.w3.org/2000/svg" xmlns:xlink="http://www.w3.org/1999/xlink" x="0px" y="0px"
	 viewBox="0 0 1000 1000" style="enable-background:new 0 0 1000 1000;" xml:space="preserve">
<style type="text/css">
	.st0{fill:#00C18B;}
	.st1{fill:#006098;}
</style>
<g>
	<path class="st0" d="M480.8,539.9c-8.4,0-16.6-4.3-21.2-11.8L438.3,493c-2.6-4.3-1.2-9.8,3-12.4c4.3-2.6,9.8-1.2,12.4,3l21.4,35.1
		c1.8,2.9,5.6,4,8.7,2.5l80-40.7c4.4-2.3,9.9-0.5,12.1,4c2.3,4.4,0.5,9.9-4,12.1l-80,40.7C488.4,539.1,484.6,539.9,480.8,539.9"/>
	<path class="st1" d="M619.7,434.2c-3.5-4.8-8.8-8-14.6-8.8l-21.4-2.9c-1.6-0.2-3-1-4-2.2l-37-44.1c-3.9-4.6-9.3-7.6-15.3-8.5
		l-26-3.7c-1-0.1-2-0.5-2.9-1.2l-33.5-24.5c-2.6-1.9-5.5-3.2-8.6-4l-24.2-6c-9.2-2.3-18.9,1-24.9,8.4L381.6,369
		c-6.4,8-7.2,19.3-1.8,28l41.1,67.5c0,0.1,0.1,0.1,0.1,0.1c0.1,0.1,0.2,0.3,0.3,0.4c0.1,0.1,0.2,0.2,0.3,0.3
		c0.1,0.1,0.2,0.2,0.3,0.3c0.1,0.1,0.2,0.2,0.3,0.4c0.1,0.1,0.2,0.2,0.3,0.3c0.1,0.1,0.3,0.2,0.4,0.3c0.1,0.1,0.2,0.1,0.3,0.2
		c0.1,0.1,0.3,0.2,0.4,0.3c0.1,0.1,0.2,0.1,0.3,0.2c0.1,0.1,0.3,0.2,0.4,0.2c0.1,0.1,0.3,0.1,0.4,0.2c0.1,0.1,0.2,0.1,0.4,0.2
		c0.2,0.1,0.3,0.1,0.5,0.2c0.1,0,0.2,0.1,0.3,0.1c0.2,0.1,0.3,0.1,0.5,0.1c0.1,0,0.2,0.1,0.4,0.1c0.2,0,0.3,0.1,0.5,0.1
		c0.1,0,0.3,0,0.4,0.1c0.1,0,0.3,0,0.4,0c0.2,0,0.3,0,0.5,0c0.1,0,0.1,0,0.2,0h26.3c4.2,0,7.9-3,8.8-7.1l5.9-27l14.8,49.6
		c1.1,3.7,4.5,6.3,8.4,6.5c0.1,0,0.2,0,0.3,0c3.8,0,7.2-2.4,8.5-6l10-27.7l1.4,4.5c1.2,3.8,4.7,6.4,8.6,6.4h30c5,0,9-4,9-9
		c0-5-4-9-9-9h-23.3l-7.3-24.2c-1.1-3.7-4.5-6.3-8.4-6.4c-3.9-0.1-7.4,2.3-8.7,6l-9.9,27.5l-16.9-56.9c-1.2-4-4.9-6.6-9-6.5
		c-4.1,0.2-7.6,3.1-8.5,7.1l-11.8,54.1h-13.9l-38.5-63.1c-1.4-2.3-1.2-5.2,0.5-7.3l25.9-32.1c1.5-1.9,4.1-2.8,6.5-2.2l24.2,6
		c0.8,0.2,1.6,0.5,2.2,1l33.5,24.5c3.2,2.4,7,3.9,11,4.5l26,3.7c1.6,0.2,3,1,4,2.2l37,44.1c3.9,4.6,9.4,7.7,15.4,8.5l21.4,2.9
		c1.3,0.2,2.1,1,2.4,1.5c0.3,0.5,0.9,1.5,0.6,2.8l-2.3,12.3c-0.1,0.3-0.3,0.6-0.6,0.8l-11.6,5.9c-4.4,2.3-6.2,7.7-4,12.1
		c1.6,3.1,4.8,4.9,8.1,4.9c1.4,0,2.8-0.3,4.1-1l11.6-5.9c5.3-2.7,9.1-7.8,10.2-13.6l2.3-12.3C624.5,445,623.2,439,619.7,434.2"/>
	<path class="st1" d="M99.9,654.7h2.9l0.4,3.9c1.8,0.5,4.3,0.8,6.2,0.8c4.9,0,7.7-2,7.7-6.4c0-4.2-2.5-5.4-7.3-7
		c-4.9-1.6-9.8-3.4-9.8-9.8c0-6.1,4.4-9.3,11.4-9.3c3,0,6.2,0.6,8.6,1.3l-0.1,6.4h-2.9l-0.4-4c-1.4-0.3-3.6-0.6-5.3-0.6
		c-4.8,0-7.2,2.2-7.2,6c0,4.1,2.8,5.2,7.2,6.7c5.1,1.7,9.9,3.4,9.9,10.1c0,6-3.9,9.7-11.7,9.7c-3.4,0-7.2-0.7-9.7-1.5L99.9,654.7"/>
	<path class="st1" d="M139.2,660.1c-2,1.3-4.2,2.4-7.1,2.4c-4.3,0-7.3-2.4-7.3-7c0-5.5,4-7.1,9.3-7.1c1.6,0,3.7,0.2,4.7,0.3v-2.6
		c0-3.3-0.9-5-5.3-5c-2,0-4.2,0.4-6.3,0.8l-0.5-2.8c2.4-0.5,4.7-0.9,7.2-0.9c5.9,0,8.5,2,8.5,7.4v13.8l2.5,0.5v2.2h-5.5L139.2,660.1
		 M138.9,651.3c-1-0.1-3.1-0.2-4.3-0.2c-4.2,0-6,1.2-6,4.3c0,2.7,1.6,4.3,4.5,4.3c2,0,4-0.8,5.8-1.9V651.3z"/>
	<path class="st1" d="M150.2,641.4l-2.6-0.5v-2.2h6.3v15.6c0,2.9,0.7,5.3,4,5.3c1.9,0,4.2-0.9,6.7-2.2v-16.1l-2.6-0.5v-2.2h6.3v20.7
		l2.6,0.5v2.2h-5.7l-0.4-2c-2.6,1.4-5.1,2.5-8,2.5c-5,0-6.6-3.2-6.6-7.8V641.4"/>
	<path class="st1" d="M190.1,660.3c-2.2,1.3-4.5,2.2-7.2,2.2c-6.9,0-8-6.2-8-11.8c0-6.8,1.7-12.6,8.7-12.6c1.9,0,4.2,0.5,6.2,1.6
		v-9.6l-2.6-0.5v-2.2h6.3v31.9l2.6,0.5v2.2h-5.7L190.1,660.3 M189.8,642.3c-2.1-0.9-4-1.3-5.5-1.3c-4.2,0-5.7,3-5.7,9.5
		c0,5.1,0.9,9.1,5.2,9.1c1.8,0,3.9-0.7,5.9-1.9V642.3z"/>
	<path class="st1" d="M199.2,659.9l2.6-0.5v-18l-2.6-0.5v-2.2h6.3v20.7l2.6,0.5v2.2h-8.9V659.9 M201.8,627.5h3.7v5.5h-3.7V627.5z"/>
	<path class="st1" d="M246.2,661.5c-2.9,0.7-6,1.1-9,1.1c-11.7,0-13.7-7.1-13.7-17.5c0-10.8,2.1-18.1,13.8-18.1
		c3.1,0,6.3,0.5,8.8,1.2l-0.2,6.6H243l-0.4-4.2c-1.5-0.3-3.4-0.5-5.1-0.5c-8.9,0-10,5.2-10,14.9c0,8.7,0.9,14.3,10.2,14.3
		c2.6,0,5.3-0.5,7.8-0.9L246.2,661.5"/>
	<path class="st1" d="M250.8,650.6c0-7.8,1.8-12.3,9.7-12.3c8.1,0,9.7,4.7,9.7,12c0,7.8-1.8,12.3-9.7,12.3
		C252.4,662.6,250.8,657.8,250.8,650.6 M266.4,650.3c0-5.6-0.5-9.2-6-9.2c-5.4,0-6,3.5-6,9.4c0,5.6,0.5,9.2,6,9.2
		C265.8,659.7,266.4,656.2,266.4,650.3z"/>
	<path class="st1" d="M274.5,659.9l2.6-0.5v-18l-2.6-0.5v-2.2h5.6l0.3,1.6c2-1.1,4.4-2.1,7.1-2.1s4.3,1,5.2,2.4
		c2.1-1.2,4.8-2.4,7.8-2.4c5,0,6.3,3.3,6.3,7.3v13.9l2.9,0.5v2.2h-6.5v-15.6c0-3-0.6-5.3-3.8-5.3c-2,0-4,0.8-5.9,1.7
		c0.2,0.8,0.3,1.8,0.3,2.7v13.9l2.8,0.5v2.2h-6.5v-15.6c0-3-0.6-5.3-3.8-5.3c-1.8,0-3.8,0.7-5.6,1.5v16.8l2.6,0.5v2.2h-8.9V659.9"/>
	<path class="st1" d="M312.5,659.9l2.6-0.5v-18l-2.6-0.5v-2.2h5.6l0.3,1.6c2-1.1,4.4-2.1,7.1-2.1c2.7,0,4.3,1,5.2,2.4
		c2.1-1.2,4.8-2.4,7.8-2.4c5,0,6.3,3.3,6.3,7.3v13.9l2.9,0.5v2.2h-6.5v-15.6c0-3-0.6-5.3-3.8-5.3c-2,0-4,0.8-5.9,1.7
		c0.2,0.8,0.3,1.8,0.3,2.7v13.9l2.8,0.5v2.2h-6.5v-15.6c0-3-0.6-5.3-3.8-5.3c-1.8,0-3.8,0.7-5.6,1.5v16.8l2.6,0.5v2.2h-8.9V659.9"/>
	<path class="st1" d="M350.5,659.9l2.6-0.5v-18l-2.6-0.5v-2.2h6.3v20.7l2.6,0.5v2.2h-8.9V659.9 M353.1,627.5h3.7v5.5h-3.7V627.5z"/>
	<path class="st1" d="M363.5,656h2.6l0.4,3.3c1.3,0.3,2.8,0.5,4.3,0.5c3.6,0,5.6-1.1,5.6-3.8s-2-3.3-5.2-4.2c-4-1.2-7.8-2.3-7.8-6.9
		c0-4.5,3.7-6.6,8.9-6.6c2.4,0,5,0.5,6.8,1l-0.2,5.5h-2.7l-0.3-3.4c-1.1-0.2-2.4-0.3-3.5-0.3c-3.7,0-5.3,1.3-5.3,3.6
		c0,2.4,1.9,3.1,5.3,4.1c3.7,1.1,7.6,2.2,7.6,7c0,4.4-3.3,6.9-9.2,6.9c-2.7,0-5.4-0.5-7.5-1.1L363.5,656"/>
	<path class="st1" d="M384.7,656h2.6l0.4,3.3c1.3,0.3,2.8,0.5,4.3,0.5c3.6,0,5.6-1.1,5.6-3.8s-2-3.3-5.2-4.2c-4-1.2-7.8-2.3-7.8-6.9
		c0-4.5,3.7-6.6,8.9-6.6c2.4,0,5,0.5,6.8,1l-0.2,5.5h-2.7l-0.3-3.4c-1.1-0.2-2.4-0.3-3.5-0.3c-3.7,0-5.3,1.3-5.3,3.6
		c0,2.4,1.9,3.1,5.3,4.1c3.7,1.1,7.6,2.2,7.6,7c0,4.4-3.3,6.9-9.2,6.9c-2.7,0-5.4-0.5-7.5-1.1L384.7,656"/>
	<path class="st1" d="M405,659.9l2.6-0.5v-18l-2.6-0.5v-2.2h6.3v20.7l2.6,0.5v2.2H405V659.9 M407.6,627.5h3.7v5.5h-3.7V627.5z"/>
	<path class="st1" d="M417.9,650.6c0-7.8,1.8-12.3,9.7-12.3c8.1,0,9.7,4.7,9.7,12c0,7.8-1.8,12.3-9.7,12.3
		C419.5,662.6,417.9,657.8,417.9,650.6 M433.6,650.3c0-5.6-0.5-9.2-6-9.2c-5.4,0-6,3.5-6,9.4c0,5.6,0.5,9.2,6,9.2
		C433,659.7,433.6,656.2,433.6,650.3z"/>
	<path class="st1" d="M441.6,659.9l2.6-0.5v-18l-2.6-0.5v-2.2h5.6l0.4,2.1c2.2-1.2,5-2.6,8.3-2.6c5,0,6.3,3.3,6.3,7.3v13.9l2.9,0.5
		v2.2h-6.5v-15.6c0-3-0.6-5.3-3.8-5.3c-2.3,0-4.7,1.1-6.8,2.1v16.1l2.6,0.5v2.2h-8.9V659.9"/>
	<path class="st1" d="M479.3,659.9l2.6-0.5v-17.8h-3.5v-2.2l3.5-0.7v-5.2c0-4.6,2.4-6.5,7.1-6.5c1.1,0,2.4,0.1,3.6,0.3l-0.3,2.8
		c-0.9-0.2-2.1-0.3-2.9-0.3c-3.2,0-3.8,1.4-3.8,3.7v5.2h5.4v2.9h-5.4v17.8l3.3,0.5v2.2h-9.6V659.9"/>
	<path class="st1" d="M494.2,650.6c0-7.8,1.8-12.3,9.7-12.3c8.1,0,9.7,4.7,9.7,12c0,7.8-1.8,12.3-9.7,12.3
		C495.8,662.6,494.2,657.8,494.2,650.6 M509.9,650.3c0-5.6-0.5-9.2-6-9.2c-5.4,0-6,3.5-6,9.4c0,5.6,0.5,9.2,6,9.2
		C509.3,659.7,509.9,656.2,509.9,650.3z"/>
	<path class="st1" d="M517.9,659.9l2.6-0.5v-18l-2.6-0.5v-2.2h5.6l0.5,3.2c2.3-2.4,4.3-3.6,6.8-3.6c0.6,0,1.1,0.1,1.6,0.2l-0.2,3.3
		c-0.6-0.2-1.1-0.2-1.6-0.2c-2.3,0-4.4,1.1-6.4,2.9v14.9l3.3,0.5v2.2h-9.6V659.9"/>
	<polyline class="st1" points="546.3,659.9 549.3,659.4 549.3,630.2 546.3,629.7 546.3,627.5 556.2,627.5 556.2,629.7 553.3,630.2 
		553.3,642.7 569.3,642.7 569.3,630.2 566.4,629.7 566.4,627.5 576.3,627.5 576.3,629.7 573.3,630.2 573.3,659.4 576.3,659.9 
		576.3,662.1 566.4,662.1 566.4,659.9 569.3,659.4 569.3,645.8 553.3,645.8 553.3,659.4 556.2,659.9 556.2,662.1 546.3,662.1 
		546.3,659.9 	"/>
	<path class="st1" d="M598.2,661.4c-2.3,0.7-5.2,1.2-7.8,1.2c-7,0-9.5-4.3-9.5-11.7c0-7.4,1.8-12.6,9.4-12.6c6.5,0,8.5,3.6,8.5,10.2
		v3.1h-14.2c0.1,5.4,1.6,8.1,6.5,8.1c2,0,4.4-0.5,6.6-1.1L598.2,661.4 M595.1,648.9c0-4.7-0.5-7.8-5.1-7.8c-3.9,0-5.3,2.2-5.6,7.8
		H595.1z"/>
	<path class="st1" d="M617.3,660.1c-2,1.3-4.2,2.4-7.1,2.4c-4.3,0-7.3-2.4-7.3-7c0-5.5,4-7.1,9.3-7.1c1.6,0,3.7,0.2,4.7,0.3v-2.6
		c0-3.3-0.9-5-5.3-5c-2,0-4.2,0.4-6.3,0.8l-0.5-2.8c2.4-0.5,4.7-0.9,7.2-0.9c5.9,0,8.5,2,8.5,7.4v13.8l2.5,0.5v2.2h-5.5L617.3,660.1
		 M616.9,651.3c-1-0.1-3.1-0.2-4.3-0.2c-4.2,0-6,1.2-6,4.3c0,2.7,1.6,4.3,4.5,4.3c2,0,4-0.8,5.8-1.9V651.3z"/>
	<polyline class="st1" points="626,659.9 628.6,659.4 628.6,630.2 626,629.7 626,627.5 632.2,627.5 632.2,659.4 634.8,659.9 
		634.8,662.1 626,662.1 626,659.9 	"/>
	<path class="st1" d="M640.8,641.6h-3.5v-2.2l3.7-0.7l0.8-6.2h2.7v6.2h6v2.9h-6V656c0,2.3,0.8,3.8,3.3,3.8c0.8,0,1.6-0.2,2.4-0.3
		l0.4,2.7c-1.2,0.3-2.2,0.5-3.6,0.5c-4.2,0-6.3-1.7-6.3-6.2V641.6"/>
	<path class="st1" d="M653,659.9l2.6-0.5v-29.2l-2.6-0.5v-2.2h6.3v13.1c2.2-1.2,4.9-2.4,8-2.4c5,0,6.3,3.3,6.3,7.3v13.9l2.9,0.5v2.2
		h-6.5v-15.6c0-3-0.6-5.3-3.8-5.3c-2.3,0-4.7,1.1-6.8,2.1v16.1l2.6,0.5v2.2H653V659.9"/>
	<path class="st1" d="M690.9,654.7h2.9l0.4,3.9c1.8,0.5,4.3,0.8,6.2,0.8c4.9,0,7.7-2,7.7-6.4c0-4.2-2.5-5.4-7.3-7
		c-4.9-1.6-9.8-3.4-9.8-9.8c0-6.1,4.4-9.3,11.4-9.3c3,0,6.2,0.6,8.6,1.3l-0.1,6.4h-2.9l-0.4-4c-1.4-0.3-3.6-0.6-5.3-0.6
		c-4.8,0-7.2,2.2-7.2,6c0,4.1,2.8,5.2,7.2,6.7c5.1,1.7,9.9,3.4,9.9,10.1c0,6-3.9,9.7-11.7,9.7c-3.4,0-7.2-0.7-9.7-1.5L690.9,654.7"
		/>
	<path class="st1" d="M715.5,670.1l2.6-0.5v-28.2l-2.6-0.5v-2.2h5.6l0.3,1.8c2.2-1.4,4.6-2.3,7.3-2.3c6.7,0,7.9,6,7.9,11.8
		c0,6.7-1.6,12.5-8.7,12.5c-1.9,0-4.2-0.5-6.1-1.5v8.6l2.7,0.5v2.2h-9V670.1 M721.7,658.5c2.1,0.9,3.9,1.3,5.5,1.3
		c4.3,0,5.6-3,5.6-9.5c0-5-0.8-9.1-5.2-9.1c-1.7,0-3.9,0.7-5.9,1.8V658.5z"/>
	<path class="st1" d="M759.2,661.4c-2.3,0.7-5.2,1.2-7.8,1.2c-7,0-9.5-4.3-9.5-11.7c0-7.4,1.8-12.6,9.4-12.6c6.5,0,8.5,3.6,8.5,10.2
		v3.1h-14.2c0.1,5.4,1.6,8.1,6.5,8.1c2,0,4.4-0.5,6.6-1.1L759.2,661.4 M756.2,648.9c0-4.7-0.5-7.8-5.1-7.8c-3.9,0-5.3,2.2-5.6,7.8
		H756.2z"/>
	<path class="st1" d="M781.5,661.5c-1.8,0.6-4.9,1.1-7.5,1.1c-7.5,0-9.3-4.6-9.3-12c0-7.5,1.8-12.3,9.7-12.3c2.4,0,5.3,0.5,6.9,0.9
		l-0.2,5.7h-2.9l-0.3-3.4c-1.1-0.2-2.3-0.4-3.5-0.4c-5.3,0-6.2,3.3-6.2,9.2c0,6.1,0.9,9.4,6.4,9.4c2,0,4.3-0.5,6.2-1L781.5,661.5"/>
	<path class="st1" d="M785.3,659.9l2.6-0.5v-18l-2.6-0.5v-2.2h6.3v20.7l2.6,0.5v2.2h-8.9V659.9 M787.9,627.5h3.7v5.5h-3.7V627.5z"/>
	<path class="st1" d="M811.9,660.1c-2,1.3-4.2,2.4-7.1,2.4c-4.3,0-7.3-2.4-7.3-7c0-5.5,4-7.1,9.3-7.1c1.6,0,3.7,0.2,4.7,0.3v-2.6
		c0-3.3-0.9-5-5.3-5c-2,0-4.2,0.4-6.3,0.8l-0.5-2.8c2.4-0.5,4.7-0.9,7.2-0.9c5.9,0,8.5,2,8.5,7.4v13.8l2.5,0.5v2.2h-5.5L811.9,660.1
		 M811.6,651.3c-1-0.1-3.1-0.2-4.3-0.2c-4.2,0-6,1.2-6,4.3c0,2.7,1.6,4.3,4.5,4.3c2,0,4-0.8,5.8-1.9V651.3z"/>
	<polyline class="st1" points="820.6,659.9 823.2,659.4 823.2,630.2 820.6,629.7 820.6,627.5 826.9,627.5 826.9,659.4 829.5,659.9 
		829.5,662.1 820.6,662.1 820.6,659.9 	"/>
	<path class="st1" d="M835.5,641.6H832v-2.2l3.7-0.7l0.8-6.2h2.7v6.2h6v2.9h-6V656c0,2.3,0.8,3.8,3.3,3.8c0.8,0,1.6-0.2,2.4-0.3
		l0.4,2.7c-1.2,0.3-2.2,0.5-3.6,0.5c-4.2,0-6.3-1.7-6.3-6.2V641.6"/>
	<path class="st1" d="M847.8,659.9l2.6-0.5v-18l-2.6-0.5v-2.2h6.3v20.7l2.6,0.5v2.2h-8.9V659.9 M850.4,627.5h3.7v5.5h-3.7V627.5z"/>
	<path class="st1" d="M878.1,661.4c-2.3,0.7-5.2,1.2-7.8,1.2c-7,0-9.5-4.3-9.5-11.7c0-7.4,1.8-12.6,9.4-12.6c6.5,0,8.5,3.6,8.5,10.2
		v3.1h-14.2c0.1,5.4,1.6,8.1,6.5,8.1c2,0,4.4-0.5,6.6-1.1L878.1,661.4 M875.1,648.9c0-4.7-0.5-7.8-5.1-7.8c-3.9,0-5.3,2.2-5.6,7.8
		H875.1z"/>
	<path class="st1" d="M883.6,656h2.6l0.4,3.3c1.3,0.3,2.8,0.5,4.3,0.5c3.6,0,5.6-1.1,5.6-3.8s-2-3.3-5.2-4.2c-4-1.2-7.8-2.3-7.8-6.9
		c0-4.5,3.7-6.6,8.9-6.6c2.4,0,5,0.5,6.8,1l-0.2,5.5h-2.7l-0.3-3.4c-1.1-0.2-2.4-0.3-3.5-0.3c-3.7,0-5.3,1.3-5.3,3.6
		c0,2.4,1.9,3.1,5.3,4.1c3.7,1.1,7.6,2.2,7.6,7c0,4.4-3.3,6.9-9.2,6.9c-2.7,0-5.5-0.5-7.5-1.1L883.6,656"/>
	<path class="st1" d="M190.5,587v13.8h5v3.6h-19.2c-3.8-0.1-5.8-1.8-6-5.2c0-0.6-0.1-1.3-0.1-2.1c0-0.8,0-1.6,0-2.5
		c0-0.8,0.1-1.7,0.1-2.5c0-0.8,0.1-1.5,0.2-2.1c0.2-1.6,0.8-3,1.8-4c0.9-1.1,2.2-1.9,3.8-2.3c1.9-0.5,3.8-0.6,5.6-0.3
		c1.8,0.4,3.5,1.2,5.1,2.5v-2.5h5.3v3.6H190.5 M186.9,591.1c0-0.3-0.2-0.7-0.6-1.2c-0.4-0.5-1-0.9-1.6-1.3c-0.7-0.4-1.4-0.8-2.2-1.1
		c-0.8-0.3-1.6-0.5-2.4-0.6c-2-0.1-3.5,0.3-4.5,1.2c-1,0.9-1.5,2.5-1.6,4.7v4.7c0,0.7,0,1.2,0.1,1.7c0.1,0.4,0.2,0.8,0.5,1
		c0.2,0.2,0.6,0.4,1,0.5c0.4,0.1,1,0.1,1.6,0.1h9.8V591.1z M175.7,575.7h3.7v3.7h-3.7V575.7z M181.3,575.7h3.7v3.7h-3.7V575.7z"/>
	<path class="st1" d="M211.2,604.3h-4.1c-1.5,0-2.7-0.4-3.7-1.1c-0.9,0.7-2.1,1.1-3.7,1.1h-4.6v-3.6h3.4c0.6,0,1.1,0,1.4-0.1
		c0.4-0.1,0.7-0.2,0.9-0.4c0.2-0.2,0.4-0.5,0.5-0.9c0.1-0.4,0.1-0.8,0.2-1.4v-12.3h3.7v12.3c0,0.6,0.1,1.1,0.2,1.4
		c0.1,0.4,0.2,0.7,0.5,0.9c0.2,0.2,0.5,0.4,0.9,0.4c0.4,0.1,0.8,0.1,1.4,0.1h3V604.3 M199.2,607.9h3.7v3.7h-3.7V607.9z M204.8,607.9
		h3.7v3.7h-3.7V607.9z"/>
	<path class="st1" d="M211,600.8h19.5V593c0-1.1-0.2-2-0.6-2.8s-0.9-1.4-1.6-1.9c-0.7-0.5-1.4-0.8-2.4-0.9c-0.9-0.1-1.9-0.1-2.9,0.1
		c-0.7,0.2-1.5,0.4-2.3,0.6c-0.8,0.3-1.7,0.6-2.4,0.9c-0.8,0.3-1.5,0.6-2.1,0.9c-0.6,0.3-1.1,0.5-1.4,0.7l-1.5-3.6
		c1.4-0.8,3-1.6,4.6-2.2c1.7-0.6,3.4-1,5.1-1.3c1.6-0.2,3.1-0.2,4.5,0.2c1.4,0.3,2.6,0.9,3.6,1.6c1,0.8,1.8,1.8,2.4,3
		c0.6,1.2,0.9,2.6,0.9,4.1v8.3h5v3.6H211L211,600.8"/>
	<path class="st1" d="M239.1,600.8h3.7v-9.9h-1.7v-3.6h5.3v2.7c0.5-0.6,1.1-1.1,1.8-1.6c0.7-0.5,1.4-1,2.2-1.4
		c0.8-0.4,1.5-0.8,2.3-1.2c0.8-0.4,1.6-0.7,2.3-0.9c0.7-0.3,1.4-0.5,2-0.7c0.6-0.2,1.2-0.3,1.6-0.4c1.1-0.2,2.2-0.3,3.3-0.2
		c1.1,0,2.2,0.2,3.3,0.4c0.9,0.2,1.8,0.5,2.6,1c0.8,0.5,1.5,1.1,2,1.8c0.6,0.7,1,1.6,1.3,2.5c0.3,0.9,0.5,1.9,0.5,2.9
		c0,0.6,0,1.2,0,1.6c0,0.4,0,0.7,0,1c0,0.3,0,0.5,0,0.8c0,0.2,0,0.5,0,0.8c0,0.3,0,0.6,0,1c0,0.4,0,0.9,0,1.5c0,0.7-0.1,1.4-0.2,2
		h5.3v3.6h-37.8V600.8 M263.8,587.3c-1.3-0.3-2.6-0.3-3.9,0c-1.4,0.3-2.7,0.7-4,1.2c-1.3,0.6-2.5,1.2-3.7,1.9
		c-1.2,0.7-2.2,1.4-3,2.1c-0.9,0.7-1.6,1.3-2.1,1.8c-0.5,0.5-0.8,0.8-0.8,0.8v5.5h19.6c0.7,0,1.2-0.2,1.6-0.6
		c0.3-0.4,0.5-0.9,0.5-1.6c0-0.6,0-1.1,0-1.4c0-0.4,0-0.7,0-0.9c0-0.2,0-0.5,0-0.6c0-0.2,0-0.4,0-0.6c0-0.2,0-0.5,0-0.9
		c0-0.4,0-0.8,0-1.4c-0.1-1.5-0.5-2.7-1.2-3.5C266.3,588.2,265.3,587.6,263.8,587.3z"/>
	<path class="st1" d="M276.6,600.8h2.1c0.6,0,1.1,0,1.4-0.1c0.4-0.1,0.7-0.2,0.9-0.4c0.2-0.2,0.4-0.5,0.5-0.9
		c0.1-0.4,0.1-0.8,0.2-1.4v-22.8H280v-3.6h5.3v27.3c0,1.8-0.5,3.2-1.5,4.1c-0.9,0.9-2.3,1.4-4,1.5h-3.2V600.8"/>
	<polyline class="st1" points="295.5,604.3 292,604.3 292,575 290.3,575 290.3,571.5 295.5,571.5 295.5,604.3 	"/>
	<path class="st1" d="M318.2,585.7c-0.8,1-1.4,2.2-1.9,3.3c-0.5,1.2-0.8,2.5-1,4c-0.2,2.4,0.2,4.3,1.3,5.7c1.1,1.4,2.9,2.1,5.3,2.1
		h23.6c0.6,0,1.1,0,1.4-0.1s0.7-0.2,0.9-0.4c0.2-0.2,0.4-0.5,0.5-0.9c0.1-0.4,0.1-0.8,0.2-1.4v-10.8h-1.7v-3.6h5.3v15.3
		c0,1.8-0.5,3.2-1.5,4.1c-0.9,0.9-2.3,1.4-4,1.5H321c-1.2,0-2.4-0.2-3.4-0.6c-1-0.4-1.9-0.9-2.7-1.6c-0.8-0.7-1.4-1.5-1.9-2.5
		c-0.5-1-0.8-2.1-1-3.4c-0.1-0.9-0.2-1.9-0.2-2.9c0-1,0.1-1.9,0.3-2.9c0.3-1.3,0.6-2.6,1.2-3.8c0.5-1.2,1.2-2.3,2-3.3L318.2,585.7
		 M328.1,579.7h3.7v3.7h-3.7V579.7z M333.7,579.7h3.7v3.7h-3.7V579.7z"/>
	<path class="st1" d="M367.8,604.3h-5.1c-1.7,0-3.1-0.5-4-1.5c-0.9-0.9-1.4-2.3-1.5-4.1v-27.3h5.3v3.6h-1.7v22.8
		c0,0.6,0.1,1.1,0.2,1.4c0.1,0.4,0.2,0.7,0.5,0.9c0.2,0.2,0.5,0.4,0.9,0.4c0.4,0.1,0.8,0.1,1.4,0.1h4V604.3"/>
	<path class="st1" d="M367.5,600.8h3.7v-9.9h-1.7v-3.6h5.3v2.7c0.5-0.6,1.1-1.1,1.8-1.6c0.7-0.5,1.4-1,2.2-1.4
		c0.8-0.4,1.5-0.8,2.3-1.2c0.8-0.4,1.6-0.7,2.3-0.9c0.7-0.3,1.4-0.5,2-0.7c0.6-0.2,1.2-0.3,1.6-0.4c1.1-0.2,2.2-0.3,3.3-0.2
		c1.1,0,2.2,0.2,3.3,0.4c0.9,0.2,1.8,0.5,2.6,1c0.8,0.5,1.5,1.1,2,1.8c0.6,0.7,1,1.6,1.3,2.5c0.3,0.9,0.5,1.9,0.5,2.9
		c0,0.6,0,1.2,0,1.6c0,0.4,0,0.7,0,1c0,0.3,0,0.5,0,0.8c0,0.2,0,0.5,0,0.8c0,0.3,0,0.6,0,1c0,0.4,0,0.9,0,1.5c0,0.7-0.1,1.4-0.2,2
		h5.3v3.6h-37.8V600.8 M392.3,587.3c-1.3-0.3-2.6-0.3-3.9,0c-1.4,0.3-2.7,0.7-4,1.2c-1.3,0.6-2.5,1.2-3.7,1.9
		c-1.2,0.7-2.2,1.4-3,2.1c-0.9,0.7-1.6,1.3-2.1,1.8c-0.5,0.5-0.8,0.8-0.8,0.8v5.5h19.6c0.7,0,1.2-0.2,1.6-0.6
		c0.3-0.4,0.5-0.9,0.5-1.6c0-0.6,0-1.1,0-1.4c0-0.4,0-0.7,0-0.9c0-0.2,0-0.5,0-0.6c0-0.2,0-0.4,0-0.6c0-0.2,0-0.5,0-0.9
		c0-0.4,0-0.8,0-1.4c-0.1-1.5-0.5-2.7-1.2-3.5C394.7,588.2,393.7,587.6,392.3,587.3z"/>
	<path class="st1" d="M405,600.8h3.7v-9.9H407v-3.6h5.3v2.7c0.5-0.6,1.1-1.1,1.8-1.6c0.7-0.5,1.4-1,2.2-1.4c0.8-0.4,1.5-0.8,2.3-1.2
		c0.8-0.4,1.6-0.7,2.3-0.9c0.7-0.3,1.4-0.5,2-0.7c0.6-0.2,1.2-0.3,1.6-0.4c1.1-0.2,2.2-0.3,3.3-0.2c1.1,0,2.2,0.2,3.3,0.4
		c0.9,0.2,1.8,0.5,2.6,1c0.8,0.5,1.5,1.1,2,1.8c0.6,0.7,1,1.6,1.3,2.5c0.3,0.9,0.5,1.9,0.5,2.9c0,0.6,0,1.2,0,1.6c0,0.4,0,0.7,0,1
		c0,0.3,0,0.5,0,0.8c0,0.2,0,0.5,0,0.8c0,0.3,0,0.6,0,1c0,0.4,0,0.9,0,1.5c0,0.7-0.1,1.4-0.2,2h5.3v3.6H405V600.8 M429.8,587.3
		c-1.3-0.3-2.6-0.3-3.9,0c-1.4,0.3-2.7,0.7-4,1.2c-1.3,0.6-2.5,1.2-3.7,1.9c-1.2,0.7-2.2,1.4-3,2.1c-0.9,0.7-1.6,1.3-2.1,1.8
		c-0.5,0.5-0.8,0.8-0.8,0.8v5.5H432c0.7,0,1.2-0.2,1.6-0.6c0.3-0.4,0.5-0.9,0.5-1.6c0-0.6,0-1.1,0-1.4c0-0.4,0-0.7,0-0.9
		c0-0.2,0-0.5,0-0.6c0-0.2,0-0.4,0-0.6c0-0.2,0-0.5,0-0.9c0-0.4,0-0.8,0-1.4c-0.1-1.5-0.5-2.7-1.2-3.5
		C432.2,588.2,431.2,587.6,429.8,587.3z"/>
	<path class="st1" d="M442.6,600.8H462V593c0-1.1-0.2-2-0.6-2.8c-0.4-0.8-0.9-1.4-1.6-1.9c-0.7-0.5-1.4-0.8-2.4-0.9
		c-0.9-0.1-1.9-0.1-2.9,0.1c-0.7,0.2-1.5,0.4-2.3,0.6c-0.8,0.3-1.7,0.6-2.4,0.9c-0.8,0.3-1.5,0.6-2.1,0.9c-0.6,0.3-1.1,0.5-1.4,0.7
		l-1.5-3.6c1.4-0.8,3-1.6,4.6-2.2c1.7-0.6,3.4-1,5.1-1.3c1.6-0.2,3.1-0.2,4.5,0.2c1.4,0.3,2.6,0.9,3.6,1.6c1,0.8,1.8,1.8,2.4,3
		c0.6,1.2,0.9,2.6,0.9,4.1v8.3h5v3.6h-28.3L442.6,600.8 M450,575.7h3.7v3.7H450V575.7z"/>
	<path class="st1" d="M486.7,604.3h-4.1c-1.5,0-2.7-0.4-3.7-1.1c-0.9,0.7-2.1,1.1-3.7,1.1h-4.5v-3.6h3.4c0.6,0,1.1,0,1.4-0.1
		c0.4-0.1,0.7-0.2,0.9-0.4c0.2-0.2,0.4-0.5,0.5-0.9c0.1-0.4,0.1-0.8,0.2-1.4v-12.3h3.7v12.3c0,0.6,0.1,1.1,0.2,1.4
		c0.1,0.4,0.2,0.7,0.5,0.9c0.2,0.2,0.5,0.4,0.9,0.4s0.8,0.1,1.4,0.1h3V604.3 M474.4,575.7h3.7v3.7h-3.7V575.7z M480,575.7h3.7v3.7
		H480V575.7z"/>
	<path class="st1" d="M500.6,604.3h-3.4c-1.5,0-2.7-0.4-3.7-1.1c-0.9,0.7-2.1,1.1-3.7,1.1h-3.4v-3.6h2.3c0.6,0,1.1,0,1.4-0.1
		c0.4-0.1,0.7-0.2,0.9-0.4c0.2-0.2,0.4-0.5,0.5-0.9c0.1-0.4,0.1-0.8,0.2-1.4v-26.4h3.7v26.4c0,0.6,0.1,1.1,0.2,1.4
		c0.1,0.4,0.2,0.7,0.5,0.9c0.2,0.2,0.5,0.4,0.9,0.4c0.4,0.1,0.8,0.1,1.4,0.1h2.3V604.3"/>
	<path class="st1" d="M500.3,600.8h2.1c0.6,0,1.1,0,1.4-0.1c0.4-0.1,0.7-0.2,0.9-0.4c0.2-0.2,0.4-0.5,0.5-0.9
		c0.1-0.4,0.1-0.8,0.2-1.4v-22.8h-1.7v-3.6h5.3v27.3c0,1.8-0.5,3.2-1.5,4.1c-0.9,0.9-2.3,1.4-4,1.5h-3.2V600.8"/>
	<path class="st1" d="M545.5,587v13.8h5v3.6h-19.2c-3.8-0.1-5.8-1.8-6-5.2c0-0.6-0.1-1.3-0.1-2.1c0-0.8,0-1.6,0-2.5
		c0-0.8,0.1-1.7,0.1-2.5c0-0.8,0.1-1.5,0.2-2.1c0.2-1.6,0.8-3,1.8-4c0.9-1.1,2.2-1.9,3.8-2.3c1.9-0.5,3.8-0.6,5.6-0.3
		c1.8,0.4,3.5,1.2,5.1,2.5v-2.5h5.3v3.6H545.5 M541.9,591.1c0-0.3-0.2-0.7-0.6-1.2c-0.4-0.5-1-0.9-1.6-1.3c-0.7-0.4-1.4-0.8-2.2-1.1
		c-0.8-0.3-1.6-0.5-2.4-0.6c-2-0.1-3.5,0.3-4.5,1.2c-1,0.9-1.5,2.5-1.6,4.7v4.7c0,0.7,0,1.2,0.1,1.7c0.1,0.4,0.2,0.8,0.5,1
		c0.2,0.2,0.6,0.4,1,0.5c0.4,0.1,1,0.1,1.6,0.1h9.8V591.1z M530.7,575.7h3.7v3.7h-3.7V575.7z M536.3,575.7h3.7v3.7h-3.7V575.7z"/>
	<path class="st1" d="M550.2,600.8h6.9c0.6,0,1.1,0,1.4-0.1c0.4-0.1,0.7-0.2,0.9-0.4c0.2-0.2,0.4-0.5,0.5-0.9
		c0.1-0.4,0.1-0.8,0.2-1.4v-10.8h-1.7v-3.6h5.3v15.3c0,1.8-0.5,3.2-1.5,4.1c-0.9,0.9-2.3,1.4-4,1.5h-8V600.8 M553,607.9h3.7v3.7H553
		V607.9z M558.6,607.9h3.7v3.7h-3.7V607.9z"/>
	<path class="st1" d="M569.7,588.2v-4.8h14.4c2.2,0,3.8,0.5,4.9,1.5c1,1,1.5,2.6,1.5,4.8v14.5h-21.9v-3.6h18.2v-10.3
		c0-0.7-0.1-1.2-0.2-1.7c-0.1-0.4-0.3-0.8-0.5-1c-0.2-0.2-0.6-0.4-1-0.5c-0.4-0.1-1-0.1-1.6-0.1h-10.1v1.1H569.7"/>
	<path class="st1" d="M612.2,604.3h-10.6c-3.8-0.1-5.8-1.8-6-5.2c0-0.6-0.1-1.3-0.1-2.1c0-0.8,0-1.6,0-2.5c0-0.8,0.1-1.7,0.1-2.5
		c0-0.8,0.1-1.5,0.2-2.1c0.2-1.6,0.8-3,1.8-4c0.9-1.1,2.2-1.9,3.8-2.3c1.9-0.5,3.8-0.6,5.6-0.3c1.8,0.4,3.5,1.2,5.1,2.5v-2.5h5.3
		v3.6h-1.7v13.8h5v3.6h-5v3.2c0,1.5-0.3,2.9-0.9,4.1c-0.6,1.2-1.3,2.2-2.3,2.9c-1,0.8-2.2,1.4-3.5,1.7c-1.4,0.3-2.8,0.4-4.5,0.3
		c-0.7-0.1-1.4-0.2-2.1-0.3c-0.7-0.1-1.3-0.3-2-0.6l0.4-3.7c0.2,0.1,0.6,0.2,1.1,0.3c0.5,0.1,1,0.2,1.6,0.3c0.5,0.1,1.1,0.2,1.6,0.3
		c0.5,0.1,0.9,0.1,1.1,0.1c2,0,3.4-0.5,4.4-1.4c1-0.9,1.5-2.3,1.7-4.3V604.3 M612.2,591.1c0-0.3-0.2-0.7-0.6-1.2
		c-0.4-0.5-1-0.9-1.6-1.3c-0.7-0.4-1.4-0.8-2.2-1.1c-0.8-0.3-1.6-0.5-2.4-0.6c-2-0.1-3.5,0.3-4.5,1.2c-1,0.9-1.5,2.5-1.6,4.7v4.7
		c0,0.7,0,1.2,0.1,1.7c0.1,0.4,0.2,0.8,0.5,1c0.2,0.2,0.6,0.4,1,0.5c0.4,0.1,1,0.1,1.6,0.1h9.8V591.1z"/>
	<path class="st1" d="M646,600.8v3.6h-25.5v-3.6h7.4c-3.3-4.6-5.1-7.6-5.3-8.9c-0.1-0.8-0.2-1.5-0.2-2.1c0-0.6,0.1-1.2,0.2-1.7
		c0.1-0.5,0.3-0.9,0.6-1.3c0.2-0.4,0.5-0.8,0.9-1.1c1.4-1.4,3.8-2.1,7.1-2.1h3.3c3.3,0,5.7,0.7,7.1,2.1c0.3,0.3,0.7,0.7,0.9,1.2
		c0.3,0.4,0.5,0.9,0.6,1.4c0.1,0.5,0.2,1.1,0.2,1.7c0,0.6-0.1,1.3-0.3,2c-0.2,0.6-0.7,1.7-1.5,3.2c-0.8,1.5-2.1,3.4-3.7,5.7H646
		 M639.4,590.9c0.1-0.8-0.1-1.5-0.6-2.1c-0.5-0.6-1.2-1-2.2-1.3c-0.2-0.1-0.4-0.1-0.7-0.2c-0.2-0.1-0.5-0.1-0.9-0.1
		c-0.4,0-0.8-0.1-1.3-0.1c-0.5,0-1.2,0-2,0c-0.9,0-1.8,0.1-2.6,0.4c-0.9,0.3-1.6,0.7-2.3,1.3c-0.3,0.3-0.5,0.6-0.5,0.9
		c-0.1,0.3,0,0.7,0,1.2c0.1,0.4,0.6,1.4,1.7,3.1c1,1.6,2.6,3.9,4.7,6.8h0.2C637.1,595,639.3,591.7,639.4,590.9z"/>
	<path class="st1" d="M683.3,604.3h-3.1c-1.6,0-2.8-0.4-3.8-1.2c-0.5,0.4-1.2,0.7-2,0.9c-0.8,0.2-1.8,0.3-2.9,0.3h-25.7v-3.6h3.8
		v-9.9h-1.7v-3.6h5.3v13.5h8.8v-15.3h3.8v15.3h7c0.4,0,0.8-0.1,1-0.4c0.2-0.2,0.4-0.5,0.5-0.9c0.1-0.3,0.2-0.7,0.2-1.2
		c0-0.4,0-0.9,0-1.3v-13.6h3.7v14.5c0,0.6,0.1,1.1,0.2,1.4c0.1,0.4,0.2,0.7,0.5,0.9c0.2,0.2,0.5,0.4,0.9,0.4
		c0.4,0.1,0.8,0.1,1.4,0.1h2V604.3"/>
	<path class="st1" d="M683,600.8h2.1c0.6,0,1.1,0,1.4-0.1c0.4-0.1,0.7-0.2,0.9-0.4c0.2-0.2,0.4-0.5,0.5-0.9c0.1-0.4,0.1-0.8,0.2-1.4
		v-22.8h-1.7v-3.6h5.3v27.3c0,1.8-0.5,3.2-1.5,4.1c-0.9,0.9-2.3,1.4-4,1.5H683V600.8"/>
	<polyline class="st1" points="701.9,604.3 698.3,604.3 698.3,575 696.7,575 696.7,571.5 701.9,571.5 701.9,604.3 	"/>
	<path class="st1" d="M738.4,587v13.8h5v3.6h-19.2c-3.8-0.1-5.8-1.8-6-5.2c0-0.6-0.1-1.3-0.1-2.1c0-0.8,0-1.6,0-2.5
		c0-0.8,0.1-1.7,0.1-2.5c0-0.8,0.1-1.5,0.2-2.1c0.2-1.6,0.8-3,1.8-4c0.9-1.1,2.2-1.9,3.8-2.3c1.9-0.5,3.8-0.6,5.6-0.3
		c1.8,0.4,3.5,1.2,5.1,2.5v-2.5h5.3v3.6H738.4 M734.8,591.1c0-0.3-0.2-0.7-0.6-1.2c-0.4-0.5-1-0.9-1.6-1.3c-0.7-0.4-1.4-0.8-2.2-1.1
		c-0.8-0.3-1.6-0.5-2.4-0.6c-2-0.1-3.5,0.3-4.5,1.2c-1,0.9-1.5,2.5-1.6,4.7v4.7c0,0.7,0,1.2,0.1,1.7c0.1,0.4,0.2,0.8,0.5,1
		c0.2,0.2,0.6,0.4,1,0.5c0.4,0.1,1,0.1,1.6,0.1h9.8V591.1z M723.6,575.7h3.7v3.7h-3.7V575.7z M729.2,575.7h3.7v3.7h-3.7V575.7z"/>
	<path class="st1" d="M757.2,604.3h-3.4c-1.5,0-2.7-0.4-3.7-1.1c-0.9,0.7-2.1,1.1-3.7,1.1h-3.4v-3.6h2.3c0.6,0,1.1,0,1.4-0.1
		c0.4-0.1,0.7-0.2,0.9-0.4c0.2-0.2,0.4-0.5,0.5-0.9c0.1-0.4,0.1-0.8,0.2-1.4v-12.3h3.7v12.3c0,0.6,0.1,1.1,0.2,1.4
		c0.1,0.4,0.2,0.7,0.5,0.9c0.2,0.2,0.5,0.4,0.9,0.4c0.4,0.1,0.9,0.1,1.4,0.1h2.3V604.3 M748.8,575.6c0,0.7,0.3,1.2,0.7,1.6
		c0.4,0.4,0.9,0.6,1.5,0.6h3.2v1.5h-7.8v-1.5h1.5c-0.4-0.6-0.6-1.4-0.6-2.3v-0.7c0-0.6,0.1-1.1,0.3-1.6c0.2-0.5,0.5-0.9,0.9-1.2
		c0.4-0.3,0.8-0.6,1.3-0.8c0.5-0.2,1.1-0.3,1.7-0.3c0.4,0,0.9,0,1.3,0.1c0.4,0.1,0.9,0.2,1.3,0.3v2.2h-1.6v-0.8
		c-0.2-0.1-0.4-0.1-0.6-0.1c-0.2,0-0.3,0-0.5,0c-0.7,0-1.3,0.2-1.8,0.6c-0.4,0.4-0.7,1-0.7,1.9V575.6z"/>
	<path class="st1" d="M773,604.3h-4.1c-1.5,0-2.7-0.4-3.7-1.1c-0.9,0.7-2.1,1.1-3.7,1.1H757v-3.6h3.4c0.6,0,1.1,0,1.4-0.1
		c0.4-0.1,0.7-0.2,0.9-0.4c0.2-0.2,0.4-0.5,0.5-0.9c0.1-0.4,0.1-0.8,0.2-1.4v-12.3h3.7v12.3c0,0.6,0.1,1.1,0.2,1.4
		c0.1,0.4,0.2,0.7,0.5,0.9c0.2,0.2,0.5,0.4,0.9,0.4c0.4,0.1,0.8,0.1,1.4,0.1h3V604.3 M760.9,607.9h3.7v3.7h-3.7V607.9z M766.6,607.9
		h3.7v3.7h-3.7V607.9z"/>
	<path class="st1" d="M794.8,580c1.6-0.2,3.1-0.2,4.5,0.1c1.4,0.3,2.6,0.9,3.6,1.6c1,0.8,1.8,1.8,2.4,3c0.6,1.2,0.9,2.6,0.9,4.1
		v11.9h4.8v3.6h-38.4v-3.6h3c-0.2-0.5-0.3-1.1-0.3-1.7c0-1.2-0.1-2.3,0-3.5c0-1.2,0.1-2.4,0.3-3.5c0.2-1.6,0.8-3,1.8-4
		c0.9-1.1,2.2-1.9,3.8-2.3c1.6-0.4,3.1-0.6,4.6-0.4l-0.8-1.9c1.4-0.8,2.9-1.6,4.6-2.2C791.4,580.6,793.1,580.2,794.8,580
		 M792.1,593.2c0-0.3-0.2-0.7-0.6-1.2c-0.4-0.5-1-0.9-1.6-1.3c-0.7-0.4-1.4-0.8-2.2-1.1c-0.8-0.3-1.6-0.5-2.4-0.6
		c-2-0.1-3.5,0.3-4.5,1.2c-1,0.9-1.5,2.5-1.6,4.7c0,0.4,0,0.8,0,1.3c0,0.5,0,0.9,0,1.3c0,0.7,0,1.2,0.1,1.7c0.1,0.4,0.2,0.8,0.4,1
		c0.2,0.2,0.5,0.4,0.9,0.5c0.4,0.1,0.9,0.1,1.5,0.2h10V593.2z M795.7,600.8h6.7v-11.4c0-1.1-0.2-2-0.6-2.8c-0.4-0.8-0.9-1.4-1.6-1.9
		c-0.7-0.5-1.4-0.8-2.4-0.9c-0.9-0.1-1.9-0.1-2.9,0.1c-0.5,0.1-1,0.2-1.5,0.4c-0.5,0.2-1.1,0.3-1.6,0.5c-0.5,0.2-1.1,0.4-1.6,0.6
		c-0.5,0.2-1,0.4-1.5,0.6c1.2,0.5,2.3,1.2,3.4,2c0.4,0.3,0.9,0.7,1.3,1c0.4,0.4,0.8,0.8,1.2,1.2c0.3,0.4,0.6,0.9,0.8,1.3
		c0.2,0.5,0.3,1,0.3,1.5V600.8z"/>
	<path class="st1" d="M810.9,600.8h2.1c0.6,0,1.1,0,1.4-0.1c0.4-0.1,0.7-0.2,0.9-0.4c0.2-0.2,0.4-0.5,0.5-0.9
		c0.1-0.4,0.1-0.8,0.2-1.4v-22.8h-1.7v-3.6h5.3v27.3c0,1.8-0.5,3.2-1.5,4.1c-0.9,0.9-2.3,1.4-4,1.5h-3.2V600.8"/>
	<polyline class="st1" points="829.8,604.3 826.2,604.3 826.2,575 824.5,575 824.5,571.5 829.8,571.5 829.8,604.3 	"/>
</g>
</svg>
