<?xml version="1.0" encoding="utf-8"?>
<!-- Generator: Adobe Illustrator 28.1.0, SVG Export Plug-In . SVG Version: 6.00 Build 0)  -->
<svg version="1.1" id="Layer_1" xmlns="http://www.w3.org/2000/svg" xmlns:xlink="http://www.w3.org/1999/xlink" x="0px" y="0px"
	 viewBox="0 0 1000 1000" style="enable-background:new 0 0 1000 1000;" xml:space="preserve">
<style type="text/css">
	.st0{fill:#00AF86;}
	.st1{fill:#0C426A;}
	.st2{fill:#4D5759;}
</style>
<g>
	<g>
		<g>
			<path class="st0" d="M760.2,571c-5.6,0-11.1-2.8-14.2-7.9l-14.3-23.5c-1.7-2.9-0.8-6.6,2-8.3c2.9-1.7,6.6-0.8,8.3,2l14.3,23.5
				c1.2,2,3.7,2.7,5.8,1.6l53.6-27.2c3-1.5,6.6-0.3,8.1,2.7c1.5,3,0.3,6.6-2.7,8.1l-53.6,27.2C765.3,570.5,762.8,571,760.2,571"/>
			<path class="st1" d="M853.2,500.3c-2.3-3.2-5.9-5.3-9.8-5.9l-14.3-2c-1-0.1-2-0.7-2.7-1.5l-24.8-29.5c-2.6-3.1-6.2-5.1-10.2-5.7
				l-17.4-2.5c-0.7-0.1-1.3-0.4-1.9-0.8l-22.4-16.4c-1.7-1.3-3.7-2.2-5.7-2.7l-16.2-4c-6.1-1.5-12.7,0.7-16.6,5.6l-17.3,21.5
				c-4.3,5.4-4.8,12.9-1.2,18.8l27.5,45.2c1.1,1.8,3,2.8,4.9,2.9c0.1,0,17.8,0,17.8,0c2.8,0,5.3-2,5.9-4.8l3.9-18.1l9.9,33.2
				c0.7,2.5,3,4.2,5.6,4.3c0.1,0,0.1,0,0.2,0c2.5,0,4.8-1.6,5.7-4l6.7-18.5l0.9,3c0.8,2.6,3.1,4.3,5.8,4.3h20.1c3.3,0,6-2.7,6-6
				c0-3.3-2.7-6-6-6h-15.6l-4.9-16.2c-0.8-2.5-3-4.2-5.6-4.3c-2.6-0.1-5,1.5-5.8,4l-6.6,18.4l-11.3-38.1c-0.8-2.6-3.3-4.4-6-4.3
				c-2.8,0.1-5.1,2.1-5.7,4.8l-7.9,36.2h-9.3L702.9,469c-0.9-1.5-0.8-3.5,0.3-4.9l17.3-21.5c1-1.3,2.7-1.9,4.3-1.5l16.2,4
				c0.5,0.1,1,0.4,1.5,0.7l22.4,16.4c2.2,1.6,4.7,2.6,7.3,3l17.4,2.5c1,0.1,2,0.7,2.7,1.5l24.8,29.5c2.6,3.1,6.3,5.1,10.3,5.7
				l14.3,2c0.9,0.1,1.4,0.7,1.6,1c0.2,0.3,0.6,1,0.4,1.9l-1.5,8.2c0,0.2-0.2,0.4-0.4,0.5l-7.8,3.9c-3,1.5-4.2,5.2-2.7,8.1
				c1.1,2.1,3.2,3.3,5.4,3.3c0.9,0,1.9-0.2,2.7-0.7l7.8-3.9c3.5-1.8,6.1-5.2,6.8-9.1l1.5-8.2C856.5,507.5,855.5,503.5,853.2,500.3z"
				/>
		</g>
		<g>
			<g>
				<path class="st2" d="M144.1,559.3h1.9l0.3,2.6c1.2,0.3,2.9,0.5,4.2,0.5c3.3,0,5.2-1.3,5.2-4.3c0-2.8-1.7-3.6-4.9-4.7
					c-3.3-1.1-6.5-2.3-6.5-6.5c0-4.1,3-6.2,7.6-6.2c2,0,4.2,0.4,5.7,0.9l0,4.3h-1.9l-0.3-2.7c-0.9-0.2-2.4-0.4-3.6-0.4
					c-3.2,0-4.8,1.5-4.8,4c0,2.7,1.9,3.5,4.8,4.5c3.4,1.1,6.6,2.3,6.6,6.8c0,4-2.6,6.5-7.8,6.5c-2.3,0-4.8-0.5-6.5-1L144.1,559.3"/>
				<path class="st2" d="M170.4,562.9c-1.3,0.9-2.8,1.6-4.7,1.6c-2.9,0-4.9-1.6-4.9-4.7c0-3.6,2.7-4.8,6.2-4.8
					c1.1,0,2.5,0.1,3.2,0.2v-1.8c0-2.2-0.6-3.3-3.5-3.3c-1.4,0-2.8,0.2-4.2,0.5l-0.3-1.9c1.6-0.3,3.2-0.6,4.8-0.6c4,0,5.7,1.3,5.7,5
					v9.2l1.7,0.3v1.5h-3.7L170.4,562.9 M170.2,557c-0.6-0.1-2-0.1-2.9-0.1c-2.8,0-4,0.8-4,2.9c0,1.8,1.1,2.9,3,2.9
					c1.4,0,2.7-0.5,3.9-1.3V557z"/>
				<path class="st2" d="M177.8,550.4l-1.7-0.3v-1.5h4.2v10.5c0,1.9,0.4,3.6,2.7,3.6c1.3,0,2.8-0.6,4.5-1.5v-10.8l-1.7-0.3v-1.5h4.2
					v13.8l1.8,0.3v1.5h-3.8l-0.2-1.3c-1.7,1-3.4,1.7-5.4,1.7c-3.4,0-4.4-2.1-4.4-5.3V550.4"/>
				<path class="st2" d="M204.5,563c-1.5,0.9-3,1.5-4.8,1.5c-4.6,0-5.4-4.2-5.4-7.9c0-4.5,1.1-8.4,5.8-8.4c1.3,0,2.8,0.3,4.1,1.1
					v-6.4l-1.8-0.3v-1.5h4.2v21.3l1.7,0.3v1.5h-3.8L204.5,563 M204.3,551c-1.4-0.6-2.7-0.9-3.7-0.9c-2.8,0-3.8,2-3.8,6.3
					c0,3.4,0.6,6.1,3.5,6.1c1.2,0,2.6-0.5,4-1.3V551z"/>
				<path class="st2" d="M210.6,562.7l1.7-0.3v-12.1l-1.7-0.3v-1.5h4.2v13.8l1.7,0.3v1.5h-5.9V562.7z M212.3,541.1h2.5v3.7h-2.5
					V541.1z"/>
				<path class="st2" d="M242,563.8c-1.9,0.4-4,0.8-6,0.8c-7.8,0-9.1-4.7-9.1-11.7c0-7.2,1.4-12.1,9.2-12.1c2.1,0,4.2,0.3,5.9,0.8
					l-0.1,4.4h-1.9l-0.2-2.8c-1-0.2-2.3-0.3-3.4-0.3c-5.9,0-6.7,3.5-6.7,10c0,5.8,0.6,9.5,6.8,9.5c1.8,0,3.5-0.3,5.2-0.6L242,563.8"
					/>
				<path class="st2" d="M245.1,556.5c0-5.3,1.2-8.3,6.5-8.3c5.4,0,6.5,3.2,6.5,8c0,5.3-1.2,8.3-6.5,8.3
					C246.2,564.5,245.1,561.4,245.1,556.5 M255.6,556.3c0-3.8-0.3-6.2-4-6.2c-3.6,0-4,2.4-4,6.3c0,3.7,0.3,6.2,4,6.2
					C255.2,562.6,255.6,560.3,255.6,556.3"/>
				<path class="st2" d="M261,562.7l1.7-0.3v-12.1l-1.7-0.3v-1.5h3.7l0.2,1.1c1.4-0.7,3-1.4,4.8-1.4c1.8,0,2.9,0.6,3.5,1.6
					c1.4-0.8,3.2-1.6,5.3-1.6c3.4,0,4.2,2.2,4.2,4.9v9.3l1.9,0.3v1.5h-4.4v-10.5c0-2-0.4-3.5-2.6-3.5c-1.3,0-2.7,0.5-3.9,1.1
					c0.1,0.5,0.2,1.2,0.2,1.8v9.3l1.9,0.3v1.5h-4.3v-10.5c0-2-0.4-3.5-2.6-3.5c-1.2,0-2.5,0.5-3.7,1v11.2l1.7,0.3v1.5H261V562.7"/>
				<path class="st2" d="M286.4,562.7l1.7-0.3v-12.1l-1.7-0.3v-1.5h3.7l0.2,1.1c1.4-0.7,3-1.4,4.8-1.4c1.8,0,2.9,0.6,3.5,1.6
					c1.4-0.8,3.2-1.6,5.3-1.6c3.4,0,4.2,2.2,4.2,4.9v9.3l1.9,0.3v1.5h-4.4v-10.5c0-2-0.4-3.5-2.6-3.5c-1.3,0-2.7,0.5-3.9,1.1
					c0.1,0.5,0.2,1.2,0.2,1.8v9.3l1.9,0.3v1.5h-4.3v-10.5c0-2-0.4-3.5-2.6-3.5c-1.2,0-2.5,0.5-3.7,1v11.2l1.7,0.3v1.5h-5.9V562.7"/>
				<path class="st2" d="M311.9,562.7l1.7-0.3v-12.1l-1.7-0.3v-1.5h4.2v13.8l1.7,0.3v1.5h-5.9V562.7z M313.6,541.1h2.5v3.7h-2.5
					V541.1z"/>
				<path class="st2" d="M320.6,560.1h1.8l0.2,2.2c0.9,0.2,1.9,0.3,2.9,0.3c2.4,0,3.7-0.8,3.7-2.6c0-1.8-1.4-2.2-3.5-2.8
					c-2.7-0.8-5.2-1.6-5.2-4.6c0-3,2.5-4.4,5.9-4.4c1.6,0,3.3,0.3,4.6,0.7l-0.1,3.6h-1.8l-0.2-2.3c-0.8-0.1-1.6-0.2-2.4-0.2
					c-2.5,0-3.6,0.9-3.6,2.4c0,1.6,1.3,2.1,3.6,2.7c2.5,0.7,5.1,1.5,5.1,4.7c0,3-2.2,4.6-6.2,4.6c-1.8,0-3.6-0.3-5-0.8L320.6,560.1"
					/>
				<path class="st2" d="M334.8,560.1h1.8l0.2,2.2c0.9,0.2,1.9,0.3,2.9,0.3c2.4,0,3.7-0.8,3.7-2.6c0-1.8-1.4-2.2-3.5-2.8
					c-2.7-0.8-5.2-1.6-5.2-4.6c0-3,2.5-4.4,5.9-4.4c1.6,0,3.3,0.3,4.6,0.7l-0.1,3.6h-1.8l-0.2-2.3c-0.8-0.1-1.6-0.2-2.4-0.2
					c-2.5,0-3.6,0.9-3.6,2.4c0,1.6,1.3,2.1,3.6,2.7c2.5,0.7,5.1,1.5,5.1,4.7c0,3-2.2,4.6-6.2,4.6c-1.8,0-3.6-0.3-5-0.8L334.8,560.1"
					/>
				<path class="st2" d="M348.3,562.7l1.7-0.3v-12.1l-1.7-0.3v-1.5h4.2v13.8l1.7,0.3v1.5h-5.9V562.7z M350.1,541.1h2.5v3.7h-2.5
					V541.1z"/>
				<path class="st2" d="M357,556.5c0-5.3,1.2-8.3,6.5-8.3c5.4,0,6.5,3.2,6.5,8c0,5.3-1.2,8.3-6.5,8.3
					C358.1,564.5,357,561.4,357,556.5 M367.5,556.3c0-3.8-0.3-6.2-4-6.2c-3.6,0-4,2.4-4,6.3c0,3.7,0.3,6.2,4,6.2
					C367.1,562.6,367.5,560.3,367.5,556.3"/>
				<path class="st2" d="M372.9,562.7l1.7-0.3v-12.1l-1.7-0.3v-1.5h3.7l0.2,1.4c1.5-0.8,3.4-1.7,5.6-1.7c3.4,0,4.2,2.2,4.2,4.9v9.3
					l1.9,0.3v1.5h-4.4v-10.5c0-2-0.4-3.5-2.6-3.5c-1.5,0-3.1,0.7-4.6,1.4v10.8l1.7,0.3v1.5h-5.9V562.7"/>
				<path class="st2" d="M398.1,562.7l1.7-0.3v-11.9h-2.3V549l2.3-0.4v-3.5c0-3.1,1.6-4.4,4.8-4.4c0.8,0,1.6,0.1,2.4,0.2l-0.2,1.9
					c-0.6-0.1-1.4-0.2-1.9-0.2c-2.1,0-2.6,1-2.6,2.5v3.5h3.6v1.9h-3.6v11.9l2.2,0.3v1.5h-6.4V562.7"/>
				<path class="st2" d="M408.1,556.5c0-5.3,1.2-8.3,6.5-8.3c5.4,0,6.5,3.2,6.5,8c0,5.3-1.2,8.3-6.5,8.3
					C409.2,564.5,408.1,561.4,408.1,556.5 M418.6,556.3c0-3.8-0.3-6.2-4-6.2c-3.6,0-4,2.4-4,6.3c0,3.7,0.3,6.2,4,6.2
					C418.2,562.6,418.6,560.3,418.6,556.3"/>
				<path class="st2" d="M424,562.7l1.7-0.3v-12.1l-1.7-0.3v-1.5h3.7l0.3,2.1c1.5-1.6,2.9-2.4,4.5-2.4c0.4,0,0.8,0,1.1,0.1l-0.1,2.2
					c-0.4-0.1-0.8-0.1-1.1-0.1c-1.6,0-3,0.7-4.3,1.9v10l2.2,0.3v1.5H424V562.7"/>
				<polygon class="st2" points="443,562.7 445,562.4 445,542.9 443,542.5 443,541.1 449.6,541.1 449.6,542.5 447.7,542.9 
					447.7,551.2 458.4,551.2 458.4,542.9 456.4,542.5 456.4,541.1 463.1,541.1 463.1,542.5 461.1,542.9 461.1,562.4 463.1,562.7 
					463.1,564.2 456.4,564.2 456.4,562.7 458.4,562.4 458.4,553.3 447.7,553.3 447.7,562.4 449.6,562.7 449.6,564.2 443,564.2 				
					"/>
				<path class="st2" d="M477.7,563.7c-1.6,0.4-3.5,0.8-5.3,0.8c-4.7,0-6.4-2.9-6.4-7.8c0-5,1.2-8.5,6.3-8.5c4.4,0,5.7,2.4,5.7,6.9
					v2.1h-9.5c0.1,3.6,1.1,5.5,4.3,5.5c1.4,0,3-0.3,4.4-0.8L477.7,563.7 M475.7,555.4c0-3.1-0.3-5.2-3.4-5.2c-2.6,0-3.6,1.5-3.8,5.2
					H475.7z"/>
				<path class="st2" d="M490.5,562.9c-1.3,0.9-2.8,1.6-4.7,1.6c-2.9,0-4.9-1.6-4.9-4.7c0-3.6,2.7-4.8,6.2-4.8
					c1.1,0,2.5,0.1,3.2,0.2v-1.8c0-2.2-0.6-3.3-3.5-3.3c-1.4,0-2.8,0.2-4.2,0.5l-0.3-1.9c1.6-0.3,3.2-0.6,4.8-0.6c4,0,5.7,1.3,5.7,5
					v9.2l1.7,0.3v1.5h-3.7L490.5,562.9 M490.2,557c-0.6-0.1-2-0.1-2.9-0.1c-2.8,0-4,0.8-4,2.9c0,1.8,1.1,2.9,3,2.9
					c1.4,0,2.7-0.5,3.9-1.3V557z"/>
				<polygon class="st2" points="496.3,562.7 498.1,562.4 498.1,542.9 496.3,542.5 496.3,541.1 500.5,541.1 500.5,562.4 
					502.3,562.7 502.3,564.2 496.3,564.2 				"/>
				<path class="st2" d="M506.3,550.5H504V549l2.5-0.4l0.5-4.1h1.8v4.1h4v1.9h-4v9.6c0,1.6,0.5,2.5,2.2,2.5c0.5,0,1.1-0.1,1.6-0.2
					l0.3,1.8c-0.8,0.2-1.5,0.3-2.4,0.3c-2.8,0-4.2-1.2-4.2-4.1V550.5"/>
				<path class="st2" d="M514.4,562.7l1.7-0.3v-19.6l-1.7-0.3v-1.5h4.2v8.8c1.5-0.8,3.3-1.6,5.4-1.6c3.4,0,4.2,2.2,4.2,4.9v9.3
					l1.9,0.3v1.5h-4.4v-10.5c0-2-0.4-3.5-2.6-3.5c-1.5,0-3.1,0.7-4.6,1.4v10.8l1.7,0.3v1.5h-5.9V562.7"/>
				<path class="st2" d="M539.8,559.3h1.9l0.3,2.6c1.2,0.3,2.9,0.5,4.2,0.5c3.3,0,5.2-1.3,5.2-4.3c0-2.8-1.7-3.6-4.9-4.7
					c-3.3-1.1-6.5-2.3-6.5-6.5c0-4.1,3-6.2,7.6-6.2c2,0,4.2,0.4,5.7,0.9l0,4.3h-1.9l-0.3-2.7c-0.9-0.2-2.4-0.4-3.6-0.4
					c-3.2,0-4.8,1.5-4.8,4c0,2.7,1.9,3.5,4.8,4.5c3.4,1.1,6.6,2.3,6.6,6.8c0,4-2.6,6.5-7.8,6.5c-2.3,0-4.8-0.5-6.5-1L539.8,559.3"/>
				<path class="st2" d="M556.2,569.6l1.7-0.3v-18.9l-1.7-0.3v-1.5h3.8l0.2,1.2c1.5-0.9,3.1-1.6,4.9-1.6c4.5,0,5.3,4,5.3,7.9
					c0,4.5-1.1,8.4-5.8,8.4c-1.3,0-2.8-0.3-4.1-1v5.7l1.8,0.3v1.5h-6V569.6 M560.4,561.8c1.4,0.6,2.6,0.9,3.7,0.9
					c2.9,0,3.8-2,3.8-6.4c0-3.3-0.5-6.1-3.5-6.1c-1.2,0-2.6,0.4-3.9,1.2V561.8z"/>
				<path class="st2" d="M585.5,563.7c-1.6,0.4-3.5,0.8-5.3,0.8c-4.7,0-6.4-2.9-6.4-7.8c0-5,1.2-8.5,6.3-8.5c4.4,0,5.7,2.4,5.7,6.9
					v2.1h-9.5c0.1,3.6,1.1,5.5,4.3,5.5c1.4,0,3-0.3,4.4-0.8L585.5,563.7 M583.5,555.4c0-3.1-0.3-5.2-3.4-5.2c-2.6,0-3.6,1.5-3.8,5.2
					H583.5z"/>
				<path class="st2" d="M600.5,563.8c-1.2,0.4-3.3,0.8-5,0.8c-5,0-6.2-3.1-6.2-8c0-5,1.2-8.3,6.5-8.3c1.6,0,3.5,0.3,4.6,0.6
					l-0.1,3.8h-1.9l-0.2-2.3c-0.8-0.1-1.6-0.2-2.4-0.2c-3.6,0-4.1,2.2-4.1,6.2c0,4.1,0.6,6.3,4.3,6.3c1.4,0,2.9-0.3,4.1-0.6
					L600.5,563.8"/>
				<path class="st2" d="M603,562.7l1.7-0.3v-12.1l-1.7-0.3v-1.5h4.2v13.8l1.7,0.3v1.5H603V562.7z M604.8,541.1h2.5v3.7h-2.5V541.1z
					"/>
				<path class="st2" d="M620.8,562.9c-1.3,0.9-2.8,1.6-4.7,1.6c-2.9,0-4.9-1.6-4.9-4.7c0-3.6,2.7-4.8,6.2-4.8
					c1.1,0,2.5,0.1,3.2,0.2v-1.8c0-2.2-0.6-3.3-3.5-3.3c-1.4,0-2.8,0.2-4.2,0.5l-0.3-1.9c1.6-0.3,3.2-0.6,4.8-0.6c4,0,5.7,1.3,5.7,5
					v9.2l1.7,0.3v1.5H621L620.8,562.9 M620.6,557c-0.6-0.1-2-0.1-2.9-0.1c-2.8,0-4,0.8-4,2.9c0,1.8,1.1,2.9,3,2.9
					c1.4,0,2.7-0.5,3.9-1.3V557z"/>
				<polygon class="st2" points="626.7,562.7 628.4,562.4 628.4,542.9 626.7,542.5 626.7,541.1 630.9,541.1 630.9,562.4 
					632.6,562.7 632.6,564.2 626.7,564.2 				"/>
				<path class="st2" d="M636.6,550.5h-2.3V549l2.5-0.4l0.5-4.1h1.8v4.1h4v1.9h-4v9.6c0,1.6,0.5,2.5,2.2,2.5c0.5,0,1.1-0.1,1.6-0.2
					l0.3,1.8c-0.8,0.2-1.5,0.3-2.4,0.3c-2.8,0-4.2-1.2-4.2-4.1V550.5"/>
				<path class="st2" d="M644.8,562.7l1.7-0.3v-12.1l-1.7-0.3v-1.5h4.2v13.8l1.7,0.3v1.5h-5.9V562.7z M646.6,541.1h2.5v3.7h-2.5
					V541.1z"/>
				<path class="st2" d="M665.1,563.7c-1.6,0.4-3.5,0.8-5.3,0.8c-4.7,0-6.4-2.9-6.4-7.8c0-5,1.2-8.5,6.3-8.5c4.4,0,5.7,2.4,5.7,6.9
					v2.1H656c0.1,3.6,1.1,5.5,4.3,5.5c1.4,0,3-0.3,4.4-0.8L665.1,563.7 M663.1,555.4c0-3.1-0.3-5.2-3.4-5.2c-2.6,0-3.6,1.5-3.8,5.2
					H663.1z"/>
				<path class="st2" d="M668.9,560.1h1.8l0.2,2.2c0.9,0.2,1.9,0.3,2.9,0.3c2.4,0,3.7-0.8,3.7-2.6c0-1.8-1.4-2.2-3.5-2.8
					c-2.7-0.8-5.2-1.6-5.2-4.6c0-3,2.5-4.4,5.9-4.4c1.6,0,3.3,0.3,4.6,0.7l-0.1,3.6h-1.8l-0.2-2.3c-0.8-0.1-1.6-0.2-2.4-0.2
					c-2.5,0-3.6,0.9-3.6,2.4c0,1.6,1.3,2.1,3.6,2.7c2.5,0.7,5.1,1.5,5.1,4.7c0,3-2.2,4.6-6.2,4.6c-1.8,0-3.6-0.3-5-0.8L668.9,560.1"
					/>
			</g>
			<g>
				<path class="st2" d="M251.9,513.9v9.2h3.3v2.4h-12.8c-2.5-0.1-3.9-1.2-4-3.5c0-0.4,0-0.9,0-1.4c0-0.5,0-1.1,0-1.7
					c0-0.6,0-1.1,0.1-1.6c0-0.5,0.1-1,0.1-1.4c0.2-1.1,0.6-2,1.2-2.7c0.6-0.7,1.5-1.2,2.5-1.5c1.3-0.4,2.6-0.4,3.8-0.2
					c1.2,0.2,2.4,0.8,3.4,1.7v-1.7h3.5v2.4H251.9 M249.5,516.7c0-0.2-0.1-0.5-0.4-0.8c-0.3-0.3-0.7-0.6-1.1-0.9
					c-0.4-0.3-0.9-0.5-1.5-0.8c-0.5-0.2-1.1-0.3-1.6-0.4c-1.4-0.1-2.4,0.2-3,0.8c-0.6,0.6-1,1.7-1.1,3.1v3.1c0,0.5,0,0.8,0.1,1.1
					c0.1,0.3,0.2,0.5,0.3,0.7c0.2,0.2,0.4,0.3,0.6,0.3c0.3,0.1,0.6,0.1,1.1,0.1h6.5V516.7z M242,506.3h2.5v2.5H242V506.3z
					 M245.8,506.3h2.5v2.5h-2.5V506.3z"/>
				<path class="st2" d="M265.8,525.5H263c-1,0-1.8-0.3-2.5-0.8c-0.6,0.5-1.4,0.8-2.4,0.8h-3v-2.4h2.3c0.4,0,0.7,0,1-0.1
					c0.2,0,0.4-0.1,0.6-0.3c0.1-0.1,0.3-0.3,0.3-0.6c0.1-0.2,0.1-0.6,0.1-1V513h2.5v8.2c0,0.4,0,0.7,0.1,1c0.1,0.2,0.2,0.4,0.3,0.6
					c0.1,0.1,0.3,0.2,0.6,0.3c0.3,0.1,0.6,0.1,1,0.1h2V525.5 M257.7,528h2.5v2.5h-2.5V528z M261.5,528h2.5v2.5h-2.5V528z"/>
				<path class="st2" d="M265.6,523.2h13V518c0-0.7-0.1-1.4-0.4-1.9c-0.3-0.5-0.6-1-1-1.3c-0.4-0.3-1-0.5-1.6-0.6
					c-0.6-0.1-1.3-0.1-2,0.1c-0.5,0.1-1,0.2-1.6,0.4c-0.6,0.2-1.1,0.4-1.6,0.6c-0.5,0.2-1,0.4-1.4,0.6c-0.4,0.2-0.7,0.3-0.9,0.5
					l-1-2.4c0.9-0.6,2-1.1,3.1-1.5c1.1-0.4,2.3-0.7,3.4-0.8c1.1-0.1,2.1-0.1,3,0.1c0.9,0.2,1.7,0.6,2.4,1.1c0.7,0.5,1.2,1.2,1.6,2
					c0.4,0.8,0.6,1.7,0.6,2.8v5.5h3.3v2.4h-19L265.6,523.2"/>
				<path class="st2" d="M284.5,523.2h2.5v-6.6h-1.1v-2.4h3.6v1.8c0.4-0.4,0.8-0.7,1.2-1.1c0.5-0.3,1-0.7,1.5-1
					c0.5-0.3,1-0.6,1.6-0.8c0.5-0.2,1-0.4,1.5-0.6c0.5-0.2,0.9-0.3,1.4-0.5c0.4-0.1,0.8-0.2,1.1-0.3c0.7-0.1,1.4-0.2,2.2-0.1
					c0.7,0,1.5,0.1,2.2,0.2c0.6,0.1,1.2,0.4,1.7,0.7c0.5,0.3,1,0.7,1.4,1.2c0.4,0.5,0.7,1,0.9,1.7c0.2,0.6,0.3,1.3,0.4,2
					c0,0.4,0,0.8,0,1c0,0.3,0,0.5,0,0.7c0,0.2,0,0.4,0,0.5c0,0.1,0,0.3,0,0.5c0,0.2,0,0.4,0,0.7c0,0.3,0,0.6,0,1
					c0,0.5,0,0.9-0.2,1.3h3.5v2.4h-25.3V523.2 M301,514.2c-0.8-0.2-1.7-0.2-2.6,0c-0.9,0.2-1.8,0.5-2.7,0.8
					c-0.9,0.4-1.7,0.8-2.5,1.3c-0.8,0.5-1.5,1-2,1.4c-0.6,0.5-1,0.8-1.4,1.2c-0.3,0.3-0.5,0.5-0.5,0.6v3.7h13.2c0.5,0,0.8-0.1,1-0.4
					c0.2-0.3,0.4-0.6,0.4-1.1c0-0.4,0-0.7,0-1c0-0.2,0-0.4,0-0.6c0-0.2,0-0.3,0-0.4c0-0.1,0-0.3,0-0.4c0-0.2,0-0.4,0-0.6
					c0-0.2,0-0.6,0-1c-0.1-1-0.3-1.8-0.8-2.4C302.7,514.7,302,514.4,301,514.2"/>
				<path class="st2" d="M309.6,523.2h1.4c0.4,0,0.7,0,1-0.1c0.3-0.1,0.5-0.1,0.6-0.3c0.2-0.1,0.3-0.3,0.3-0.6
					c0.1-0.2,0.1-0.6,0.1-1V506h-1.1v-2.4h3.6v18.3c0,1.2-0.3,2.1-1,2.8c-0.6,0.6-1.5,1-2.7,1h-2.1V523.2"/>
				<polygon class="st2" points="322.2,525.5 319.8,525.5 319.8,505.9 318.7,505.9 318.7,503.5 322.2,503.5 				"/>
				<path class="st2" d="M337.4,513c-0.5,0.7-1,1.4-1.3,2.2c-0.3,0.8-0.5,1.7-0.7,2.7c-0.2,1.6,0.1,2.9,0.9,3.8
					c0.7,0.9,1.9,1.4,3.6,1.4h15.8c0.4,0,0.7,0,1-0.1c0.2,0,0.4-0.1,0.6-0.3c0.1-0.1,0.3-0.3,0.3-0.6c0.1-0.2,0.1-0.6,0.1-1V514
					h-1.1v-2.4h3.6v10.2c0,1.2-0.4,2.1-1,2.8c-0.6,0.6-1.5,1-2.7,1h-17.3c-0.8,0-1.6-0.1-2.3-0.4c-0.7-0.2-1.3-0.6-1.8-1.1
					c-0.5-0.5-0.9-1-1.3-1.7c-0.3-0.7-0.6-1.4-0.7-2.2c-0.1-0.6-0.1-1.3-0.1-1.9c0-0.6,0.1-1.3,0.2-1.9c0.2-0.9,0.4-1.7,0.8-2.5
					c0.3-0.8,0.8-1.5,1.3-2.2L337.4,513 M344.1,509.1h2.5v2.5h-2.5V509.1z M347.8,509.1h2.5v2.5h-2.5V509.1z"/>
				<path class="st2" d="M370.6,525.5h-3.4c-1.2,0-2.1-0.3-2.7-1c-0.6-0.6-1-1.5-1-2.8v-18.3h3.6v2.4H366v15.3c0,0.4,0,0.7,0.1,1
					c0.1,0.2,0.2,0.4,0.3,0.6c0.1,0.1,0.3,0.2,0.6,0.3c0.3,0.1,0.6,0.1,1,0.1h2.6V525.5"/>
				<path class="st2" d="M370.4,523.2h2.5v-6.6h-1.1v-2.4h3.6v1.8c0.4-0.4,0.8-0.7,1.2-1.1c0.5-0.3,1-0.7,1.5-1
					c0.5-0.3,1-0.6,1.6-0.8c0.5-0.2,1-0.4,1.5-0.6c0.5-0.2,0.9-0.3,1.4-0.5c0.4-0.1,0.8-0.2,1.1-0.3c0.7-0.1,1.4-0.2,2.2-0.1
					c0.7,0,1.5,0.1,2.2,0.2c0.6,0.1,1.2,0.4,1.7,0.7c0.5,0.3,1,0.7,1.4,1.2c0.4,0.5,0.7,1,0.9,1.7c0.2,0.6,0.3,1.3,0.4,2
					c0,0.4,0,0.8,0,1c0,0.3,0,0.5,0,0.7c0,0.2,0,0.4,0,0.5c0,0.1,0,0.3,0,0.5c0,0.2,0,0.4,0,0.7c0,0.3,0,0.6,0,1
					c0,0.5-0.1,0.9-0.2,1.3h3.5v2.4h-25.3V523.2 M387,514.2c-0.8-0.2-1.7-0.2-2.6,0c-0.9,0.2-1.8,0.5-2.6,0.8
					c-0.9,0.4-1.7,0.8-2.5,1.3c-0.8,0.5-1.5,1-2,1.4c-0.6,0.5-1,0.8-1.4,1.2c-0.3,0.3-0.5,0.5-0.5,0.6v3.7h13.2c0.5,0,0.8-0.1,1-0.4
					c0.2-0.3,0.4-0.6,0.4-1.1c0-0.4,0-0.7,0-1c0-0.2,0-0.4,0-0.6c0-0.2,0-0.3,0-0.4c0-0.1,0-0.3,0-0.4c0-0.2,0-0.4,0-0.6
					c0-0.2,0-0.6,0-1c-0.1-1-0.3-1.8-0.8-2.4C388.6,514.7,387.9,514.4,387,514.2"/>
				<path class="st2" d="M395.6,523.2h2.5v-6.6h-1.1v-2.4h3.6v1.8c0.4-0.4,0.8-0.7,1.2-1.1c0.5-0.3,1-0.7,1.5-1
					c0.5-0.3,1-0.6,1.6-0.8c0.5-0.2,1-0.4,1.5-0.6c0.5-0.2,0.9-0.3,1.4-0.5c0.4-0.1,0.8-0.2,1.1-0.3c0.7-0.1,1.4-0.2,2.2-0.1
					c0.7,0,1.5,0.1,2.2,0.2c0.6,0.1,1.2,0.4,1.7,0.7c0.5,0.3,1,0.7,1.4,1.2c0.4,0.5,0.7,1,0.9,1.7c0.2,0.6,0.3,1.3,0.4,2
					c0,0.4,0,0.8,0,1c0,0.3,0,0.5,0,0.7c0,0.2,0,0.4,0,0.5c0,0.1,0,0.3,0,0.5c0,0.2,0,0.4,0,0.7c0,0.3,0,0.6,0,1
					c0,0.5,0,0.9-0.2,1.3h3.5v2.4h-25.3V523.2 M412.1,514.2c-0.8-0.2-1.7-0.2-2.6,0c-0.9,0.2-1.8,0.5-2.7,0.8
					c-0.9,0.4-1.7,0.8-2.5,1.3c-0.8,0.5-1.5,1-2,1.4c-0.6,0.5-1,0.8-1.4,1.2c-0.3,0.3-0.5,0.5-0.5,0.6v3.7h13.2c0.5,0,0.8-0.1,1-0.4
					c0.2-0.3,0.4-0.6,0.4-1.1c0-0.4,0-0.7,0-1c0-0.2,0-0.4,0-0.6c0-0.2,0-0.3,0-0.4c0-0.1,0-0.3,0-0.4c0-0.2,0-0.4,0-0.6
					c0-0.2,0-0.6,0-1c-0.1-1-0.3-1.8-0.8-2.4C413.8,514.7,413.1,514.4,412.1,514.2"/>
				<path class="st2" d="M420.7,523.2h13V518c0-0.7-0.1-1.4-0.4-1.9c-0.3-0.5-0.6-1-1.1-1.3c-0.4-0.3-1-0.5-1.6-0.6
					c-0.6-0.1-1.3-0.1-2,0.1c-0.5,0.1-1,0.2-1.6,0.4c-0.6,0.2-1.1,0.4-1.6,0.6c-0.5,0.2-1,0.4-1.4,0.6c-0.4,0.2-0.7,0.3-0.9,0.5
					l-1-2.4c0.9-0.6,2-1.1,3.1-1.5c1.1-0.4,2.3-0.7,3.4-0.8c1.1-0.1,2.1-0.1,3,0.1c0.9,0.2,1.7,0.6,2.4,1.1c0.7,0.5,1.2,1.2,1.6,2
					c0.4,0.8,0.6,1.7,0.6,2.8v5.5h3.3v2.4h-19L420.7,523.2 M425.7,506.3h2.5v2.5h-2.5V506.3z"/>
				<path class="st2" d="M450.2,525.5h-2.8c-1,0-1.8-0.3-2.5-0.8c-0.6,0.5-1.4,0.8-2.5,0.8h-3v-2.4h2.3c0.4,0,0.7,0,1-0.1
					c0.2,0,0.5-0.1,0.6-0.3c0.2-0.1,0.3-0.3,0.3-0.6c0.1-0.2,0.1-0.6,0.1-1V513h2.4v8.2c0,0.4,0,0.7,0.1,1c0.1,0.2,0.2,0.4,0.3,0.6
					c0.1,0.1,0.3,0.2,0.6,0.3c0.2,0.1,0.6,0.1,1,0.1h2V525.5 M442,506.3h2.5v2.5H442V506.3z M445.8,506.3h2.5v2.5h-2.5V506.3z"/>
				<path class="st2" d="M459.5,525.5h-2.3c-1,0-1.8-0.3-2.5-0.8c-0.6,0.5-1.4,0.8-2.5,0.8H450v-2.4h1.5c0.4,0,0.7,0,1-0.1
					c0.2,0,0.4-0.1,0.6-0.3c0.1-0.1,0.3-0.3,0.3-0.6c0.1-0.2,0.1-0.6,0.1-1v-17.7h2.4v17.7c0,0.4,0,0.7,0.1,1
					c0.1,0.2,0.2,0.4,0.3,0.6c0.1,0.1,0.3,0.2,0.6,0.3c0.3,0.1,0.6,0.1,1,0.1h1.5V525.5"/>
				<path class="st2" d="M459.4,523.2h1.4c0.4,0,0.7,0,1-0.1c0.3-0.1,0.5-0.1,0.6-0.3c0.2-0.1,0.3-0.3,0.3-0.6
					c0.1-0.2,0.1-0.6,0.1-1V506h-1.1v-2.4h3.6v18.3c0,1.2-0.3,2.1-1,2.8c-0.6,0.6-1.5,1-2.7,1h-2.1V523.2"/>
				<path class="st2" d="M489.6,513.9v9.2h3.3v2.4h-12.8c-2.5-0.1-3.9-1.2-4-3.5c0-0.4,0-0.9,0-1.4c0-0.5,0-1.1,0-1.7
					c0-0.6,0-1.1,0.1-1.6c0-0.5,0.1-1,0.1-1.4c0.2-1.1,0.6-2,1.2-2.7c0.6-0.7,1.5-1.2,2.6-1.5c1.3-0.4,2.6-0.4,3.8-0.2
					c1.2,0.2,2.4,0.8,3.4,1.7v-1.7h3.5v2.4H489.6 M487.2,516.7c0-0.2-0.1-0.5-0.4-0.8s-0.7-0.6-1.1-0.9c-0.4-0.3-0.9-0.5-1.5-0.8
					c-0.5-0.2-1.1-0.3-1.6-0.4c-1.4-0.1-2.4,0.2-3,0.8c-0.6,0.6-1,1.7-1.1,3.1v3.1c0,0.5,0,0.8,0.1,1.1c0.1,0.3,0.2,0.5,0.3,0.7
					c0.2,0.2,0.4,0.3,0.7,0.3c0.3,0.1,0.6,0.1,1.1,0.1h6.5V516.7z M479.7,506.3h2.5v2.5h-2.5V506.3z M483.5,506.3h2.5v2.5h-2.5
					V506.3z"/>
				<path class="st2" d="M492.7,523.2h4.6c0.4,0,0.7,0,1-0.1c0.2,0,0.4-0.1,0.6-0.3c0.2-0.1,0.3-0.3,0.3-0.6c0.1-0.2,0.1-0.6,0.1-1
					V514h-1.1v-2.4h3.6v10.2c0,1.2-0.3,2.1-1,2.8c-0.6,0.6-1.5,1-2.7,1h-5.4V523.2 M494.6,528h2.5v2.5h-2.5V528z M498.4,528h2.5v2.5
					h-2.5V528z"/>
				<path class="st2" d="M505.8,514.8v-3.2h9.6c1.5,0,2.6,0.3,3.3,1c0.7,0.7,1,1.8,1,3.2v9.7h-14.6v-2.4h12.2v-6.9
					c0-0.5,0-0.8-0.1-1.1c-0.1-0.3-0.2-0.5-0.3-0.7c-0.2-0.2-0.4-0.3-0.7-0.3c-0.3-0.1-0.6-0.1-1.1-0.1h-6.8v0.7H505.8"/>
				<path class="st2" d="M534.3,525.5h-7.1c-2.5-0.1-3.9-1.2-4-3.5c0-0.4,0-0.9,0-1.4c0-0.5,0-1.1,0-1.7c0-0.6,0-1.1,0.1-1.6
					c0-0.5,0.1-1,0.1-1.4c0.2-1.1,0.6-2,1.2-2.7c0.6-0.7,1.5-1.2,2.5-1.5c1.3-0.4,2.6-0.4,3.8-0.2c1.2,0.2,2.4,0.8,3.4,1.7v-1.7h3.5
					v2.4h-1.1v9.2h3.3v2.4h-3.3v2.1c0,1-0.2,1.9-0.6,2.7c-0.4,0.8-0.9,1.4-1.6,2c-0.7,0.5-1.4,0.9-2.4,1.1c-0.9,0.2-1.9,0.3-3,0.2
					c-0.5-0.1-1-0.1-1.4-0.2c-0.4-0.1-0.9-0.2-1.4-0.4l0.3-2.5c0.1,0.1,0.4,0.1,0.7,0.2c0.3,0.1,0.7,0.1,1,0.2
					c0.4,0.1,0.7,0.1,1,0.2c0.3,0,0.6,0.1,0.8,0.1c1.3,0,2.3-0.3,2.9-0.9c0.6-0.6,1-1.6,1.1-2.9V525.5 M534.3,516.7
					c0-0.2-0.1-0.5-0.4-0.8s-0.7-0.6-1.1-0.9c-0.4-0.3-0.9-0.5-1.5-0.8c-0.5-0.2-1.1-0.3-1.6-0.4c-1.4-0.1-2.4,0.2-3,0.8
					c-0.6,0.6-1,1.7-1.1,3.1v3.1c0,0.5,0,0.8,0.1,1.1c0.1,0.3,0.2,0.5,0.3,0.7c0.2,0.2,0.4,0.3,0.6,0.3c0.3,0.1,0.6,0.1,1.1,0.1h6.5
					V516.7z"/>
				<path class="st2" d="M556.9,523.2v2.4h-17.1v-2.4h5c-2.2-3.1-3.4-5.1-3.5-6c-0.1-0.5-0.1-1-0.1-1.4c0-0.4,0.1-0.8,0.1-1.1
					c0.1-0.3,0.2-0.6,0.4-0.9c0.2-0.3,0.4-0.5,0.6-0.7c0.9-0.9,2.5-1.4,4.8-1.4h2.2c2.2,0,3.8,0.5,4.8,1.4c0.2,0.2,0.4,0.5,0.6,0.8
					s0.3,0.6,0.4,0.9c0.1,0.3,0.1,0.7,0.1,1.1c0,0.4-0.1,0.9-0.2,1.3c-0.1,0.4-0.5,1.1-1,2.1c-0.6,1-1.4,2.3-2.5,3.8H556.9
					 M552.5,516.6c0.1-0.6,0-1-0.4-1.4c-0.3-0.4-0.8-0.7-1.5-0.8c-0.1,0-0.3-0.1-0.5-0.1c-0.2,0-0.4-0.1-0.6-0.1
					c-0.2,0-0.5,0-0.9-0.1c-0.4,0-0.8,0-1.3,0c-0.6,0-1.2,0.1-1.8,0.3c-0.6,0.2-1.1,0.5-1.5,0.9c-0.2,0.2-0.3,0.4-0.3,0.6
					c0,0.2,0,0.5,0,0.8c0.1,0.3,0.4,1,1.1,2.1c0.7,1.1,1.7,2.6,3.1,4.5h0.1C551,519.3,552.4,517.1,552.5,516.6"/>
				<path class="st2" d="M581.9,525.5h-2.1c-1,0-1.9-0.3-2.5-0.8c-0.4,0.3-0.8,0.5-1.4,0.6c-0.5,0.1-1.2,0.2-1.9,0.2h-17.2v-2.4h2.5
					v-6.6h-1.1v-2.4h3.6v9.1h5.9v-10.2h2.5v10.2h4.7c0.3,0,0.5-0.1,0.7-0.2c0.2-0.2,0.3-0.3,0.4-0.6c0.1-0.2,0.1-0.5,0.1-0.8
					c0-0.3,0-0.6,0-0.9v-9.1h2.5v9.7c0,0.4,0,0.7,0.1,1c0.1,0.2,0.2,0.4,0.3,0.6c0.2,0.1,0.4,0.2,0.6,0.3c0.3,0.1,0.6,0.1,1,0.1h1.3
					V525.5"/>
				<path class="st2" d="M581.7,523.2h1.4c0.4,0,0.7,0,1-0.1c0.3-0.1,0.5-0.1,0.6-0.3c0.2-0.1,0.3-0.3,0.3-0.6
					c0.1-0.2,0.1-0.6,0.1-1V506h-1.1v-2.4h3.6v18.3c0,1.2-0.3,2.1-1,2.8c-0.6,0.6-1.5,1-2.7,1h-2.1V523.2"/>
				<polygon class="st2" points="594.3,525.5 591.9,525.5 591.9,505.9 590.8,505.9 590.8,503.5 594.3,503.5 				"/>
				<path class="st2" d="M618.7,513.9v9.2h3.3v2.4h-12.8c-2.5-0.1-3.9-1.2-4-3.5c0-0.4,0-0.9,0-1.4c0-0.5,0-1.1,0-1.7
					c0-0.6,0-1.1,0.1-1.6c0-0.5,0.1-1,0.1-1.4c0.2-1.1,0.6-2,1.2-2.7c0.6-0.7,1.5-1.2,2.5-1.5c1.3-0.4,2.6-0.4,3.8-0.2
					c1.2,0.2,2.4,0.8,3.4,1.7v-1.7h3.5v2.4H618.7 M616.3,516.7c0-0.2-0.1-0.5-0.4-0.8c-0.3-0.3-0.7-0.6-1.1-0.9
					c-0.4-0.3-0.9-0.5-1.5-0.8c-0.5-0.2-1.1-0.3-1.6-0.4c-1.4-0.1-2.4,0.2-3,0.8c-0.6,0.6-1,1.7-1.1,3.1v3.1c0,0.5,0,0.8,0.1,1.1
					c0.1,0.3,0.2,0.5,0.3,0.7c0.2,0.2,0.4,0.3,0.6,0.3c0.3,0.1,0.6,0.1,1.1,0.1h6.5V516.7z M608.8,506.3h2.5v2.5h-2.5V506.3z
					 M612.6,506.3h2.5v2.5h-2.5V506.3z"/>
				<path class="st2" d="M631.4,525.5h-2.3c-1,0-1.8-0.3-2.5-0.8c-0.6,0.5-1.4,0.8-2.4,0.8h-2.3v-2.4h1.5c0.4,0,0.7,0,1-0.1
					c0.3,0,0.5-0.1,0.6-0.3c0.2-0.1,0.3-0.3,0.3-0.6c0.1-0.2,0.1-0.6,0.1-0.9V513h2.4v8.2c0,0.4,0,0.7,0.1,0.9
					c0.1,0.2,0.2,0.4,0.3,0.6c0.2,0.1,0.3,0.2,0.6,0.3c0.3,0.1,0.6,0.1,1,0.1h1.6V525.5 M625.7,506.3c0,0.5,0.2,0.8,0.5,1.1
					c0.3,0.3,0.6,0.4,1,0.4h2.1v1h-5.2v-1h1c-0.3-0.4-0.4-0.9-0.4-1.5v-0.5c0-0.4,0.1-0.8,0.2-1.1c0.1-0.3,0.3-0.6,0.6-0.8
					c0.2-0.2,0.5-0.4,0.9-0.5c0.3-0.1,0.7-0.2,1.1-0.2c0.3,0,0.6,0,0.9,0.1c0.3,0.1,0.6,0.1,0.9,0.2v1.5H628v-0.6
					c-0.1,0-0.3-0.1-0.4-0.1c-0.1,0-0.2,0-0.3,0c-0.5,0-0.9,0.1-1.2,0.4c-0.3,0.3-0.4,0.7-0.5,1.2V506.3z"/>
				<path class="st2" d="M641.9,525.5h-2.8c-1,0-1.8-0.3-2.5-0.8c-0.6,0.5-1.4,0.8-2.5,0.8h-3v-2.4h2.3c0.4,0,0.7,0,1-0.1
					c0.3,0,0.5-0.1,0.6-0.3c0.2-0.1,0.3-0.3,0.3-0.6c0.1-0.2,0.1-0.6,0.1-1V513h2.4v8.2c0,0.4,0,0.7,0.1,1c0.1,0.2,0.2,0.4,0.3,0.6
					c0.1,0.1,0.3,0.2,0.6,0.3c0.2,0.1,0.6,0.1,1,0.1h2V525.5 M633.9,528h2.5v2.5h-2.5V528z M637.6,528h2.5v2.5h-2.5V528z"/>
				<path class="st2" d="M656.5,509.2c1.1-0.1,2.1-0.1,3,0.1c0.9,0.2,1.7,0.6,2.4,1.1c0.7,0.5,1.2,1.2,1.6,2
					c0.4,0.8,0.6,1.7,0.6,2.8v8h3.2v2.4h-25.7v-2.4h2c-0.1-0.3-0.2-0.7-0.2-1.1c0-0.8,0-1.6,0-2.4c0-0.8,0.1-1.6,0.2-2.3
					c0.2-1.1,0.6-2,1.2-2.7c0.6-0.7,1.5-1.2,2.5-1.5c1.1-0.3,2.1-0.4,3.1-0.3l-0.5-1.3c0.9-0.6,2-1.1,3.1-1.5
					C654.3,509.7,655.4,509.4,656.5,509.2 M654.7,518.1c0-0.2-0.1-0.5-0.4-0.8c-0.3-0.3-0.7-0.6-1.1-0.9c-0.4-0.3-0.9-0.5-1.5-0.8
					c-0.5-0.2-1.1-0.3-1.6-0.4c-1.4-0.1-2.4,0.2-3,0.8c-0.6,0.6-1,1.7-1.1,3.1c0,0.3,0,0.5,0,0.9c0,0.3,0,0.6,0,0.9
					c0,0.5,0,0.8,0.1,1.1c0,0.3,0.1,0.5,0.3,0.7c0.1,0.2,0.3,0.3,0.6,0.3c0.3,0.1,0.6,0.1,1,0.1h6.7V518.1z M657.1,523.2h4.5v-7.6
					c0-0.7-0.1-1.4-0.4-1.9c-0.3-0.5-0.6-1-1-1.3c-0.4-0.3-1-0.5-1.6-0.6c-0.6-0.1-1.3-0.1-2,0.1c-0.3,0.1-0.7,0.2-1,0.3
					c-0.4,0.1-0.7,0.2-1.1,0.4c-0.4,0.1-0.7,0.3-1.1,0.4c-0.4,0.1-0.7,0.3-1,0.4c0.8,0.3,1.6,0.8,2.3,1.4c0.3,0.2,0.6,0.5,0.9,0.7
					c0.3,0.2,0.5,0.5,0.8,0.8c0.2,0.3,0.4,0.6,0.6,0.9c0.1,0.3,0.2,0.6,0.2,1V523.2z"/>
				<path class="st2" d="M667.3,523.2h1.4c0.4,0,0.7,0,1-0.1c0.3-0.1,0.5-0.1,0.6-0.3c0.2-0.1,0.3-0.3,0.3-0.6
					c0.1-0.2,0.1-0.6,0.1-1V506h-1.1v-2.4h3.6v18.3c0,1.2-0.3,2.1-1,2.8c-0.6,0.6-1.5,1-2.7,1h-2.1V523.2"/>
				<polygon class="st2" points="679.9,525.5 677.6,525.5 677.6,505.9 676.4,505.9 676.4,503.5 679.9,503.5 				"/>
			</g>
		</g>
	</g>
</g>
</svg>
