<?xml version="1.0" encoding="UTF-8"?>
<svg id="Layer_1" xmlns="http://www.w3.org/2000/svg" version="1.1" viewBox="0 0 1000 1000">
  <!-- Generator: Adobe Illustrator 29.6.0, SVG Export Plug-In . SVG Version: 2.1.1 Build 207)  -->
  <defs>
    <style>
      .st0 {
        fill: #6f00ff;
      }
    </style>
  </defs>
  <path class="st0" d="M324.21,500h-49.39c-3.39,0-5.33,3.87-3.29,6.59l22.23,29.64c2.33,3.11,5.99,4.94,9.88,4.94h50.42c3.24,0,6.29-1.53,8.23-4.12l23.15-30.87c2.74-3.66,2.74-8.69,0-12.35l-54.64-72.86c-1.55-2.07-4-3.29-6.59-3.29h-53.51c-2.59,0-5.03,1.22-6.59,3.29l-25.93,34.58c-1.55,2.07-4,3.29-6.59,3.29h-49.39c-3.39,0-5.33,3.87-3.29,6.59l83.97,111.96c2.33,3.11,5.99,4.94,9.88,4.94h47.34c3.39,0,5.33-3.87,3.29-6.59l-22.23-29.64c-2.33-3.11-5.99-4.94-9.88-4.94h-47.34c-3.39,0-5.33-3.87-3.29-6.59l54.33-72.44c1.55-2.07,4-3.29,6.59-3.29h49.39c3.39,0,5.33,3.87,3.29,6.59l-23.46,31.28c-1.55,2.07-4,3.29-6.59,3.29h0ZM261.1,500h-50.77c-2.26,0-3.55-2.58-2.2-4.39l25.38-33.85c1.1-1.47,3.29-1.47,4.39,0l25.38,33.85c1.36,1.81.07,4.39-2.2,4.39h.02Z"/>
  <path d="M541.27,441.31c0-2.11,1.71-3.82,3.82-3.82s3.82,1.71,3.82,3.82-1.71,3.82-3.82,3.82-3.82-1.71-3.82-3.82Z"/>
  <path d="M531.7,441.31c0-2.11,1.71-3.82,3.82-3.82s3.82,1.71,3.82,3.82-1.71,3.82-3.82,3.82-3.82-1.71-3.82-3.82Z"/>
  <path d="M639.7,487.49h7.7v-50h-7.7v50Z"/>
  <path d="M761.39,498.97c0-2.11,1.71-3.82,3.83-3.82s3.82,1.71,3.82,3.82-1.71,3.82-3.82,3.82-3.83-1.71-3.83-3.82Z"/>
  <path d="M722.48,441.26c0-2.11,1.71-3.82,3.82-3.82s3.82,1.71,3.82,3.82-1.71,3.82-3.82,3.82-3.82-1.71-3.82-3.82Z"/>
  <path d="M751.82,498.97c0-2.11,1.71-3.82,3.82-3.82s3.83,1.71,3.83,3.82-1.71,3.82-3.83,3.82-3.82-1.71-3.82-3.82Z"/>
  <path d="M677.01,445.08c0-2.11,1.71-3.82,3.82-3.82s3.82,1.71,3.82,3.82-1.71,3.82-3.82,3.82-3.82-1.71-3.82-3.82Z"/>
  <path d="M667.43,445.08c0-2.11,1.71-3.82,3.82-3.82s3.82,1.71,3.82,3.82-1.71,3.82-3.82,3.82-3.82-1.71-3.82-3.82Z"/>
  <path d="M444.95,462.2v17.64-17.64ZM480.59,479.85h-10.17v-27.13h-7.64v27.12h-10.17v-30.94h-7.66v38.59h43.28v-34.78h-7.64v27.13h0Z"/>
  <path d="M528.15,465.37h16.26v-7.65h-16.26v7.65Z"/>
  <path d="M589.95,437.49v42.36h-7.77v-13.19c0-5.59-4.53-10.11-10.11-10.11h-4.42l10.4-19.06h-8.72l-10.33,19.07,4.28,7.65h7.76c1.93,0,3.49,1.56,3.49,3.48v12.16h-19.35c-1.19,0-2.15-.41-2.87-1.23s-1.08-1.99-1.08-3.51v-22.38h-7.75v23.86c0,2.18.49,4.1,1.48,5.77.99,1.66,2.35,2.94,4.1,3.82s3.75,1.33,6.01,1.33h42.51v-50.01h-7.64,0Z"/>
  <path d="M624.34,475.35c0,1.52-.38,2.65-1.14,3.39-.76.74-1.84,1.11-3.24,1.11h-14.67l1.48,7.65h13.87c3.62,0,6.42-1.05,8.41-3.14,1.99-2.1,2.99-5.06,2.99-8.88v-37.98h-7.7v37.86h0Z"/>
  <path d="M609.99,474.75h7.7v-29.67h-7.7v29.67Z"/>
  <path d="M682.34,479.85h-5.67c-2.01,0-3.49-.45-4.44-1.36-.95-.9-1.42-2.28-1.42-4.13v-15.9h-7.71v17.19c0,3.86,1.02,6.8,3.05,8.82,2.03,2.01,4.98,3.02,8.85,3.02h15.04v-34.78h-7.71v27.13h.01Z"/>
  <path d="M747.32,487.49h26.82v-34.77h-7.64v27.12h-11.46v-42.35h-7.71v50h0Z"/>
  <path d="M814.27,487.5h7.65v-50.01h-7.65v50.01Z"/>
  <path d="M783.7,487.5h22.93v-50.01h-7.65v42.35h-15.29v7.66h.01Z"/>
  <path d="M731.96,479.84h-11.15v-19.47h6.67c2.47,0,4.48,2.01,4.48,4.48v14.99h0ZM720.81,452.72v-3.81h-7.64v30.94h-7.71v-42.36h-7.71v50h41.86v-23.32c0-6.32-5.12-11.45-11.44-11.45h-7.36,0Z"/>
  <path d="M660.04,523.34h-3.52v7.65h2.96c1.36,0,2.41.38,3.17,1.14s1.14,1.86,1.14,3.3v15.05h-11.28v7.65h18.92v-24.29c0-3.45-.95-6.06-2.87-7.83-1.91-1.77-4.76-2.65-8.54-2.65l.02-.02Z"/>
  <path d="M693.13,550.39h-2.61c-2.31,0-4.17-1.87-4.17-4.18v-11.01c0-2.31,1.87-4.18,4.18-4.18h2.61v19.36h-.01ZM798.99,550.47h-7.45c-1.19,0-2.11-.31-2.74-.93-.64-.62-1.08-1.61-1.33-2.99s-.37-3.38-.37-6.01v-16.77h-7.64v22.57c0,1.6-.27,2.79-.8,3.55-.54.76-1.34,1.14-2.4,1.14-.7,0-1.31-.16-1.82-.49s-.92-.87-1.23-1.63-.47-1.76-.47-2.99v-18.38h-7.64v18.01c0,1.69-.38,2.93-1.14,3.73s-2,1.2-3.73,1.2h-1.42v-22.94h-7.65v22.94h-50.39v-27.08h-11.08c-6.06,0-10.98,4.93-10.98,10.99v12.66c0,6.06,4.93,11.08,10.98,11.08h68.83c2.18,0,3.95-.44,5.33-1.33,1.38-.88,2.29-2.13,2.74-3.73.45,1.15,1.13,2.16,2.04,3.02.9.86,1.96,1.52,3.17,1.97,1.21.45,2.5.68,3.85.68,3.08,0,5.47-.93,7.15-2.81.58-.64,1.04-1.38,1.42-2.21,0,0,.79,4.39,6.72,4.39h15.69v-50.01h-7.65v42.36h.01Z"/>
  <path d="M814.27,558.12h7.65v-50.01h-7.65v50.01Z"/>
  <path d="M443.93,510.67c0,2.09,1.7,3.79,3.79,3.79s3.79-1.7,3.79-3.79-1.7-3.79-3.79-3.79-3.79,1.7-3.79,3.79Z"/>
  <path d="M437.81,506.88c-2.09,0-3.79,1.7-3.79,3.79s1.7,3.79,3.79,3.79,3.79-1.7,3.79-3.79-1.7-3.79-3.79-3.79Z"/>
  <path d="M791.34,452.72h-7.65v40.16c0,1.24-1.01,2.25-2.25,2.25h-7.3l1.91,7.65h5.72c5.28,0,9.57-4.28,9.57-9.57v-40.49h0Z"/>
  <path d="M535.74,459.4h-7.64v33.48c0,1.24-1.01,2.25-2.25,2.25h-7.37l1.94,7.65h5.76c5.28,0,9.56-4.28,9.56-9.57v-33.81Z"/>
  <path d="M508.76,479.85h-2.61c-2.31,0-4.17-1.87-4.17-4.18v-11.08c0-2.31,1.87-4.18,4.18-4.18h2.61v19.43h0ZM514.7,479.93h1.71v-27.16h-11.08c-6.06,0-10.98,4.93-10.98,10.99v12.73c0,6.06,4.93,10.99,10.98,10.99l9.38.02v-7.57h-.01Z"/>
  <path d="M516.41,452.72h-7.64v40.16c0,1.24-1.01,2.25-2.25,2.25h-8.37l1.94,7.65h6.75c5.28,0,9.56-4.28,9.56-9.57v-40.49h.01Z"/>
  <path d="M450.9,550.44v7.66h196.27v-34.78h-7.64v27.12h-188.63,0Z"/>
  <path d="M444.96,479.85h-2.61c-2.31,0-4.17-1.87-4.17-4.18v-11.13c0-2.31,1.87-4.18,4.18-4.18h2.61v19.48h0ZM450.9,479.93h1.71v-27.2h-11.08c-6.06,0-10.98,4.93-10.98,10.99v12.78c0,6.06,4.93,10.99,10.98,10.99l9.38.02v-7.57h-.01Z"/>
  <path d="M713.01,530.78l6.79,26.03h6.77l-5.96-25.83c4.78-1.15,8.83-.78,12.09,0l-6.13,25.82h6.94l6.68-26.03-1.34-5.02c-3.55-1.47-7.66-2.43-12.2-2.43-4.86,0-8.94,1.05-12.32,2.47l-1.33,4.97v.02Z"/>
  <path d="M442.54,441.31c0-2.11,1.71-3.82,3.82-3.82s3.82,1.71,3.82,3.82-1.71,3.82-3.82,3.82-3.82-1.71-3.82-3.82Z"/>
  <path d="M480.59,441.31c0-2.11,1.71-3.82,3.82-3.82s3.82,1.71,3.82,3.82-1.71,3.82-3.82,3.82-3.82-1.71-3.82-3.82Z"/>
  <path d="M432.96,441.31c0-2.11,1.71-3.82,3.82-3.82s3.82,1.71,3.82,3.82-1.71,3.82-3.82,3.82-3.82-1.71-3.82-3.82Z"/>
  <path d="M467.56,498.96c0-2.11,1.71-3.82,3.82-3.82s3.82,1.71,3.82,3.82-1.71,3.82-3.82,3.82-3.82-1.71-3.82-3.82Z"/>
  <path d="M457.98,498.96c0-2.11,1.71-3.82,3.82-3.82s3.82,1.71,3.82,3.82-1.71,3.82-3.82,3.82-3.82-1.71-3.82-3.82Z"/>
  <path d="M455.49,550.44h-2.88v-30.94h-7.65v38.59h10.54v-7.66h-.01Z"/>
  <path d="M444.96,550.45h-2.61c-2.31,0-4.17-1.87-4.17-4.18v-11.13c0-2.31,1.87-4.18,4.18-4.18h2.61v19.48h0ZM450.9,550.53h1.71v-27.2h-11.08c-6.06,0-10.98,4.93-10.98,10.99v12.78c0,6.06,4.93,10.99,10.98,10.99l9.38.02v-7.57h-.01Z"/>
  <path d="M467.56,498.96c0-2.11,1.71-3.82,3.82-3.82s3.82,1.71,3.82,3.82-1.71,3.82-3.82,3.82-3.82-1.71-3.82-3.82Z"/>
  <path d="M457.98,498.96c0-2.11,1.71-3.82,3.82-3.82s3.82,1.71,3.82,3.82-1.71,3.82-3.82,3.82-3.82-1.71-3.82-3.82Z"/>
  <path d="M635.77,567.53c0-2.11,1.71-3.82,3.82-3.82s3.82,1.71,3.82,3.82-1.71,3.82-3.82,3.82-3.82-1.71-3.82-3.82Z"/>
  <path d="M626.2,567.53c0-2.11,1.71-3.82,3.82-3.82s3.82,1.71,3.82,3.82-1.71,3.82-3.82,3.82-3.82-1.71-3.82-3.82Z"/>
  <path d="M700.78,523.34h-7.64v40.16c0,1.24-1.01,2.25-2.25,2.25h-8.37l1.94,7.65h6.75c5.28,0,9.56-4.28,9.56-9.57v-40.49h.01Z"/>
  <path d="M613.55,497.09c0-.46.12-.83.37-1.11s.56-.43.94-.43h2.85v-4.18h-1.94c-1.86,0-3.34.52-4.45,1.57-1.1,1.04-1.65,2.44-1.65,4.19v4.81h9.73v-4.1h-5.85v-.74h0Z"/>
  <path d="M607.79,501.94h5.58v-4.12h-5.58v4.12Z"/>
</svg>