<?xml version="1.0" encoding="utf-8"?>
<!-- Generator: Adobe Illustrator 27.2.0, SVG Export Plug-In . SVG Version: 6.00 Build 0)  -->
<svg version="1.1" id="Layer_1" xmlns="http://www.w3.org/2000/svg" xmlns:xlink="http://www.w3.org/1999/xlink" x="0px" y="0px"
	 viewBox="0 0 1000 1000" style="enable-background:new 0 0 1000 1000;" xml:space="preserve">
<style type="text/css">
	.st0{fill:#FFFFFF;}
	.st1{fill:#13245D;}
	.st2{fill:url(#Path_31_00000127027181850824029030000009460901363419954612_);}
</style>
<g id="Group_7" transform="translate(-48.818 -48.818)">
	<g id="Group_6">
		<g id="Group_2">
			<g id="Group_1">
				<path id="Path_1" class="st0" d="M509.9,482.1v58.1c0,6.7-5.4,12.2-12.2,12.2h-62.2c-1.7,0-3.4-0.4-4.9-1L190.4,445.5V338.7
					h106.9l207.1,133.2C507.8,474.1,509.9,478,509.9,482.1z"/>
			</g>
		</g>
		<g id="Group_4">
			<path id="Path_2" class="st1" d="M201.4,747.2v-31.5h-11.1v-6.3H219v6.3h-11v31.5H201.4z"/>
			<path id="Path_3" class="st1" d="M218.6,747.2v-28.5h5.6l0.4,4.3c0.8-1.4,2-2.6,3.5-3.4c1.6-0.8,3.4-1.2,5.3-1.1
				c0.8,0,1.6,0,2.4,0.2l-1.3,5.9c-0.3,0-0.7-0.1-1-0.1c-2.3-0.1-4.6,0.8-6.3,2.3c-1.9,2.1-2.8,4.9-2.5,7.8v12.5H218.6z"/>
			<path id="Path_4" class="st1" d="M250,747.5c-2.4,0-4.8-0.7-6.8-2c-2.1-1.3-3.8-3.2-5-5.3c-2.5-4.6-2.5-10.1,0-14.6
				c1.2-2.2,2.9-4,5-5.3c2-1.3,4.4-2,6.8-2c2.1,0,4.1,0.5,5.8,1.6c1.7,1,3.1,2.4,4,4.2l0.4-5.4h5.6v28.5h-5.6l-0.4-5.3
				c-0.9,1.7-2.3,3.1-4,4.1C254.1,747,252,747.5,250,747.5z M251.1,741.5c1.5,0,3-0.4,4.3-1.2c1.3-0.7,2.4-1.8,3.1-3.1
				c0.8-1.3,1.2-2.8,1.1-4.3c0-1.5-0.4-3-1.1-4.3c-0.8-1.3-1.8-2.4-3.1-3.1c-1.3-0.8-2.8-1.2-4.3-1.2c-1.5,0-3,0.4-4.3,1.2
				c-1.3,0.8-2.3,1.8-3.1,3.1c-0.8,1.3-1.1,2.8-1.1,4.3c0,1.5,0.4,3,1.1,4.3c0.7,1.3,1.8,2.3,3.1,3.1
				C248.1,741.1,249.6,741.5,251.1,741.5L251.1,741.5z"/>
			<path id="Path_5" class="st1" d="M272.2,747.2v-28.5h5.6l0.4,4.6c0.8-1.5,2-2.7,3.4-3.6c1.5-0.9,3.3-1.4,5.1-1.4
				c2.1,0,4.1,0.5,5.9,1.5c1.8,1.1,3.2,2.8,4,4.8c1,2.5,1.5,5.3,1.4,8v14.5h-6.2v-14.5c0.1-1.6-0.3-3.2-0.9-4.7
				c-0.5-1.1-1.4-2.1-2.4-2.8c-1-0.6-2.2-0.9-3.4-0.9c-1.2,0-2.4,0.3-3.4,0.9c-1.1,0.7-1.9,1.6-2.5,2.8c-0.7,1.5-1,3.1-0.9,4.7v14.5
				L272.2,747.2z"/>
			<path id="Path_6" class="st1" d="M315.2,747.8c-2.4,0-4.7-0.4-7-1.2c-2.2-0.7-4.2-2-5.8-3.7l4.2-4c1.1,1.1,2.4,1.9,3.8,2.3
				c1.5,0.6,3.2,0.9,4.8,0.9c1.3,0.1,2.7-0.2,3.9-0.8c0.9-0.4,1.4-1.3,1.4-2.3c0-0.6-0.3-1.2-0.8-1.6c-0.6-0.5-1.3-0.8-2-1
				c-0.8-0.2-1.9-0.5-3.1-0.8c-1.9-0.4-3.8-0.9-5.6-1.6c-1.5-0.6-2.8-1.5-3.9-2.7c-1.2-1.4-1.7-3.1-1.7-4.9c0-1.5,0.4-3,1.3-4.3
				c1-1.3,2.3-2.3,3.8-2.9c1.8-0.7,3.8-1.1,5.7-1c2.2,0,4.3,0.4,6.4,1.1c2,0.7,3.8,2,5.2,3.6l-3.7,3.7c-0.9-1-2.1-1.8-3.4-2.2
				c-1.4-0.5-2.8-0.7-4.3-0.7c-1.2-0.1-2.5,0.2-3.6,0.7c-0.8,0.3-1.3,1.1-1.3,2c0,0.5,0.3,1.1,0.7,1.4c0.6,0.4,1.2,0.7,1.9,0.9
				c0.8,0.2,1.8,0.5,3,0.7c1.9,0.4,3.9,1,5.7,1.6c1.6,0.6,3,1.5,4.1,2.7c1.2,1.4,1.8,3.2,1.7,5c0.1,1.8-0.5,3.6-1.6,5
				c-1.1,1.4-2.5,2.4-4.2,3C319.1,747.5,317.2,747.8,315.2,747.8z"/>
			<path id="Path_7" class="st1" d="M331.6,758.5v-39.8h5.6l0.4,5.3c0.9-1.7,2.3-3.1,4-4.1c1.8-1.1,3.8-1.6,5.8-1.6
				c2.4,0,4.8,0.7,6.8,2c2.1,1.3,3.8,3.1,5,5.3c2.4,4.6,2.4,10,0,14.6c-1.2,2.2-2.9,4-5,5.4c-2,1.3-4.4,2-6.8,2c-2,0-4-0.5-5.7-1.6
				c-1.7-0.9-3-2.3-3.9-4v16.6L331.6,758.5z M346.3,741.5c1.5,0,3-0.4,4.3-1.2c1.3-0.8,2.4-1.8,3.1-3.1c1.6-2.7,1.6-5.9,0-8.6
				c-0.7-1.3-1.8-2.4-3.1-3.1c-1.3-0.8-2.8-1.2-4.3-1.1c-1.5,0-3,0.4-4.3,1.1c-1.3,0.7-2.4,1.8-3.1,3.1c-1.6,2.7-1.6,5.9,0,8.6
				c0.8,1.3,1.8,2.4,3.1,3.1C343.3,741.1,344.8,741.5,346.3,741.5L346.3,741.5z"/>
			<path id="Path_8" class="st1" d="M379.3,747.6c-2.6,0-5.1-0.7-7.3-2c-2.2-1.3-4.1-3.1-5.3-5.4c-2.6-4.5-2.6-10.1,0-14.6
				c1.3-2.2,3.1-4.1,5.3-5.3c4.5-2.6,10.1-2.6,14.6,0c2.2,1.3,4.1,3.1,5.3,5.3c2.6,4.5,2.6,10.1,0,14.6c-1.3,2.2-3.1,4.1-5.3,5.4
				C384.4,746.9,381.9,747.6,379.3,747.6z M379.3,741.3c3,0,5.7-1.6,7.2-4.2c0.7-1.3,1.1-2.7,1.1-4.2c0.1-4.6-3.6-8.4-8.2-8.5
				c-4.6-0.1-8.4,3.6-8.5,8.2c0,0.1,0,0.2,0,0.3c0,1.5,0.4,2.9,1.1,4.2c0.7,1.3,1.8,2.3,3,3.1C376.4,741,377.8,741.3,379.3,741.3z"
				/>
			<path id="Path_9" class="st1" d="M398.9,747.2v-28.5h5.6l0.4,4.3c0.8-1.4,2-2.6,3.5-3.4c1.6-0.8,3.4-1.2,5.3-1.1
				c0.8,0,1.6,0,2.4,0.2l-1.2,5.9c-2.6-0.3-5.3,0.6-7.3,2.3c-1.9,2.1-2.8,4.9-2.5,7.8v12.5L398.9,747.2z"/>
			<path id="Path_10" class="st1" d="M433.3,747.7c-2.7,0.1-5.4-0.9-7.4-2.8c-2.1-2.5-3.1-5.7-2.9-8.9v-11.7h-3.8v-5.5h4l0.8-9.3
				h5.1v9.3h6.7v5.5h-6.7v11.6c-0.1,1.6,0.3,3.1,1.3,4.4c0.9,1,2.3,1.6,3.7,1.5c0.7,0,1.4-0.1,2.1-0.4l1.6,5.5
				C436.4,747.4,434.9,747.7,433.3,747.7z"/>
			<path id="Path_11" class="st1" d="M475.2,747.8c-3.4,0-6.8-0.9-9.8-2.6c-2.9-1.7-5.4-4.2-7.1-7.1c-3.5-6-3.5-13.5,0-19.5
				c1.7-2.9,4.2-5.4,7.1-7.1c8.5-4.9,19.3-2.8,25.2,5l-5.9,3.5c-1.2-1.4-2.6-2.5-4.2-3.3c-1.7-0.8-3.5-1.2-5.3-1.2
				c-2.3,0-4.5,0.6-6.5,1.7c-1.9,1.1-3.6,2.7-4.7,4.6c-2.3,4-2.3,8.9,0,12.9c1.1,1.9,2.7,3.6,4.7,4.7c3.7,2.1,8.2,2.3,12.1,0.5
				c1.6-0.8,3-2,4-3.5c1-1.6,1.7-3.3,1.9-5.2h-12.9v-6h20c0.2,1,0.3,2,0.3,3c0.1,3.5-0.8,7-2.4,10.2c-1.5,2.9-3.8,5.3-6.7,6.9
				C482.1,747.1,478.7,747.9,475.2,747.8z"/>
			<path id="Path_12" class="st1" d="M513.4,747.6c-2.7,0-5.4-0.6-7.7-2c-4.6-2.6-7.5-7.4-7.4-12.7c0-2.6,0.7-5.1,2-7.3
				c1.3-2.2,3.1-4,5.3-5.3c2.2-1.3,4.7-2,7.2-2c2.6,0,5.1,0.6,7.4,2c4.4,2.7,7.1,7.5,7.1,12.6c0,0.7-0.1,1.6-0.2,2.6h-22.2
				c0.3,1.2,0.8,2.3,1.6,3.2c0.8,1,1.8,1.7,3,2.3c1.2,0.5,2.6,0.8,3.9,0.8c1.5,0,2.9-0.2,4.3-0.8c1.2-0.5,2.3-1.3,3.1-2.3l4.9,3.1
				c-1.4,1.8-3.3,3.3-5.4,4.2C518.2,747.1,515.8,747.6,513.4,747.6z M520.8,730.6c-0.1-1.2-0.5-2.3-1.2-3.3c-0.7-1-1.7-1.8-2.8-2.4
				c-1.3-0.6-2.6-0.9-4-0.9c-1.3,0-2.7,0.3-3.9,0.9c-1.1,0.6-2.1,1.4-2.8,2.4c-0.7,1-1.1,2.1-1.2,3.3H520.8z"/>
			<path id="Path_13" class="st1" d="M532.1,747.2v-28.5h5.6l0.4,4.6c0.8-1.5,2-2.7,3.4-3.6c1.5-0.9,3.3-1.4,5.1-1.4
				c2.1,0,4.1,0.5,5.9,1.5c1.8,1.1,3.2,2.8,4,4.8c1,2.5,1.5,5.3,1.4,8v14.5h-6.2v-14.5c0.1-1.6-0.3-3.2-0.9-4.7
				c-0.5-1.1-1.4-2.1-2.4-2.8c-1-0.6-2.2-0.9-3.4-0.9c-1.2,0-2.4,0.3-3.4,0.9c-1.1,0.7-1.9,1.6-2.5,2.8c-0.7,1.5-1,3.1-0.9,4.7v14.5
				L532.1,747.2z"/>
			<path id="Path_14" class="st1" d="M577.8,747.6c-2.7,0-5.4-0.6-7.7-2c-7-3.9-9.5-12.8-5.6-19.8c0-0.1,0.1-0.1,0.1-0.2
				c1.3-2.2,3.1-4,5.3-5.3c2.2-1.3,4.7-2,7.2-2c2.6,0,5.1,0.6,7.4,2c4.4,2.7,7.1,7.5,7.1,12.6c0,0.7-0.1,1.6-0.2,2.6h-22.2
				c0.3,1.2,0.8,2.3,1.6,3.2c0.8,1,1.8,1.8,3,2.3c1.2,0.5,2.6,0.8,3.9,0.8c1.5,0,2.9-0.2,4.3-0.8c1.2-0.5,2.3-1.3,3.1-2.3l4.9,3.1
				c-1.4,1.8-3.3,3.3-5.4,4.2C582.6,747.1,580.2,747.6,577.8,747.6z M585.2,730.6c-0.1-1.2-0.5-2.3-1.2-3.3c-0.7-1-1.7-1.8-2.8-2.4
				c-1.3-0.6-2.6-0.9-4-0.9c-1.3,0-2.7,0.3-3.9,0.9c-1.1,0.6-2.1,1.4-2.8,2.4c-0.7,1-1.1,2.1-1.2,3.3H585.2z"/>
			<path id="Path_15" class="st1" d="M596.5,747.2v-28.5h5.6l0.4,4.3c0.8-1.4,2-2.6,3.5-3.4c1.6-0.8,3.4-1.2,5.3-1.1
				c0.8,0,1.6,0,2.4,0.2l-1.2,5.9c-0.3,0-0.7-0.1-1-0.1c-2.3-0.1-4.6,0.8-6.3,2.3c-1.9,2.1-2.8,4.9-2.5,7.8v12.5L596.5,747.2z"/>
			<path id="Path_16" class="st1" d="M627.9,747.5c-2.4,0-4.8-0.7-6.8-2c-2.1-1.3-3.8-3.2-5-5.3c-2.5-4.6-2.5-10.1,0-14.6
				c1.2-2.2,2.9-4,5-5.3c2-1.3,4.4-2,6.8-2c2.1,0,4.1,0.5,5.8,1.6c1.7,1,3.1,2.4,4,4.2l0.4-5.4h5.6v28.5h-5.6l-0.4-5.3
				c-0.9,1.7-2.3,3.1-4,4.1C632,747,630,747.5,627.9,747.5z M629,741.5c1.5,0,3-0.4,4.3-1.2c1.3-0.7,2.4-1.8,3.1-3.1
				c0.8-1.3,1.2-2.8,1.1-4.3c0-1.5-0.4-3-1.1-4.3c-0.8-1.3-1.8-2.4-3.1-3.1c-1.3-0.8-2.8-1.2-4.3-1.2c-1.5,0-3,0.4-4.3,1.2
				c-1.3,0.8-2.3,1.8-3.1,3.1c-0.8,1.3-1.2,2.8-1.1,4.3c0,1.5,0.4,3,1.1,4.3c0.7,1.3,1.8,2.3,3.1,3.1
				C626,741.1,627.5,741.5,629,741.5L629,741.5z"/>
			<path id="Path_17" class="st1" d="M650.1,747.2v-40.4h6.2v40.4H650.1z"/>
			<path id="Path_18" class="st1" d="M674.1,747.2l13.4-37.8h7.1l13.4,37.8h-7.2l-3-8.7h-13.4l-3.1,8.7H674.1z M686.2,732.3h9.7
				l-4.9-14L686.2,732.3z"/>
			<path id="Path_19" class="st1" d="M721.9,747.6c-2.1,0-4.2-0.5-6-1.6c-1.8-1.1-3.2-2.8-4-4.8c-1-2.6-1.5-5.3-1.4-8v-14.5h6.2
				v14.5c-0.1,1.6,0.3,3.2,0.9,4.7c0.5,1.1,1.4,2.1,2.4,2.8c2.1,1.2,4.7,1.2,6.9,0c1.1-0.7,1.9-1.6,2.4-2.8c0.6-1.5,1-3.1,0.9-4.7
				v-14.5h6.2v28.5h-5.6l-0.4-4.6c-0.8,1.5-2,2.7-3.4,3.6C725.4,747.1,723.7,747.6,721.9,747.6z"/>
			<path id="Path_20" class="st1" d="M754.2,747.7c-2.7,0.1-5.4-0.9-7.4-2.8c-2.1-2.5-3.1-5.7-2.9-8.9v-11.7h-3.8v-5.5h4l0.8-9.3
				h5.1v9.3h6.7v5.5h-6.7v11.6c-0.1,1.6,0.3,3.1,1.3,4.4c0.9,1,2.3,1.6,3.7,1.5c0.7,0,1.4-0.1,2.1-0.4l1.6,5.5
				C757.3,747.4,755.8,747.7,754.2,747.7z"/>
			<path id="Path_21" class="st1" d="M762.9,747.2v-40.4h6.2v16.3c0.8-1.4,2-2.6,3.4-3.5c1.5-0.9,3.2-1.4,4.9-1.3
				c2.1,0,4.1,0.5,5.9,1.5c1.8,1.1,3.2,2.8,4,4.8c1,2.6,1.5,5.3,1.4,8v14.5h-6.2v-14.5c0.1-1.6-0.3-3.2-0.9-4.7
				c-0.5-1.1-1.4-2.1-2.4-2.8c-1-0.6-2.2-0.9-3.4-0.9c-1.2,0-2.4,0.3-3.4,0.9c-1.1,0.7-1.9,1.6-2.5,2.8c-0.7,1.5-1,3.1-0.9,4.7v14.5
				H762.9z"/>
			<path id="Path_22" class="st1" d="M808,747.6c-2.6,0-5.1-0.7-7.3-2c-2.2-1.3-4.1-3.1-5.3-5.4c-2.6-4.5-2.6-10.1,0-14.6
				c1.3-2.2,3.1-4,5.3-5.3c4.5-2.6,10.1-2.6,14.6,0c2.2,1.3,4.1,3.1,5.3,5.3c2.6,4.5,2.6,10.1,0,14.6c-1.3,2.2-3.1,4.1-5.3,5.4
				C813.1,746.9,810.6,747.6,808,747.6z M808,741.3c3,0,5.7-1.6,7.2-4.2c0.7-1.3,1.1-2.7,1.1-4.2c0.1-4.6-3.6-8.4-8.2-8.5
				s-8.4,3.6-8.5,8.2c0,0.1,0,0.2,0,0.3c0,1.5,0.4,2.9,1.1,4.2c0.7,1.3,1.8,2.3,3,3.1C805.1,741,806.5,741.3,808,741.3z"/>
			<path id="Path_23" class="st1" d="M827.6,747.2v-28.5h5.6l0.4,4.3c0.8-1.4,2-2.6,3.5-3.4c1.6-0.8,3.4-1.2,5.3-1.1
				c0.8,0,1.6,0,2.4,0.2l-1.2,5.9c-2.6-0.3-5.3,0.6-7.3,2.3c-1.9,2.1-2.8,4.9-2.5,7.8v12.5L827.6,747.2z"/>
			<g id="Group_3">
				<rect id="Rectangle_9" x="848.7" y="709.4" class="st1" width="6.4" height="6.4"/>
				<rect id="Rectangle_10" x="848.8" y="718.7" class="st1" width="6.2" height="28.5"/>
			</g>
			<path id="Path_24" class="st1" d="M872.8,747.7c-2.7,0.1-5.4-0.9-7.4-2.8c-2.1-2.5-3.1-5.7-2.9-8.9v-11.7h-3.8v-5.5h4l0.8-9.3
				h5.1v9.3h6.7v5.5h-6.7v11.6c-0.1,1.6,0.3,3.1,1.3,4.4c0.9,1,2.3,1.6,3.7,1.5c0.7,0,1.4-0.1,2.1-0.4l1.6,5.5
				C875.9,747.4,874.4,747.7,872.8,747.7z"/>
			<path id="Path_25" class="st1" d="M884.6,759c-0.9,0-1.9-0.1-2.8-0.3c-0.9-0.2-1.7-0.4-2.6-0.8l1.8-5.5c0.5,0.2,1.1,0.4,1.6,0.5
				c0.6,0.1,1.2,0.2,1.7,0.2c0.9,0,1.8-0.3,2.6-0.8c0.8-0.6,1.6-1.3,2.1-2.1c0.7-1.1,1.3-2.3,1.8-3.5c0-0.1,0-0.1,0-0.2
				c0,0,0-0.1,0-0.1l-11.2-27.7h6.6l7.3,19.3l7.2-19.3h6.5L897,747.2c-0.8,2.4-2,4.7-3.4,6.9c-1,1.5-2.4,2.8-4,3.7
				C888.1,758.6,886.4,759,884.6,759z"/>
		</g>
		<g id="Group_5">
			<path id="Path_26" class="st1" d="M574.3,553.8h29.7v-132h34.7v-29.7h-99.1v29.7h34.7V553.8z"/>
			<path id="Path_27" class="st1" d="M712.6,481.8l26,16.8v1.2c0,15.8-12.8,28.6-28.6,28.6c-15.8,0-28.6-12.8-28.6-28.6v-53.7
				c0-15.8,12.8-28.6,28.6-28.5c14.8,0,27.1,11.3,28.4,26h29.7c-1.4-32.1-28.6-57-60.7-55.6c-31.1,1.4-55.7,27-55.7,58.2v53.7
				c0,32.2,26.1,58.2,58.2,58.2s58.2-26.1,58.2-58.2v-32.2h-55.7V481.8z"/>
			<path id="Path_28" class="st1" d="M867.4,514.6l10.5,39.2h29.5l-43.3-161.7h-45.6l-43.3,161.7h29.5l10.5-39.2H867.4z M841.3,417
				l18.2,67.9h-36.4L841.3,417z"/>
		</g>
		<path id="Path_29" class="st1" d="M376.8,653.6c0,6.4-2.5,9.6-7.5,9.6h-3.4c-5,0-7.5-3.2-7.5-9.6v-55.3h-9v55.3
			c0,6.4-2.5,9.6-7.5,9.6h-3.6c-5,0-7.5-3.2-7.5-9.6v-28.8h-9v28.8c0,6.4-2.5,9.6-7.5,9.6h-10.2v-14c0.2-6.5-2.3-12.7-6.8-17.4
			c-4.4-4.6-10.5-7.2-16.9-7c-6.1-0.1-12,2.2-16.3,6.5c-4.3,4.1-6.7,9.8-6.6,15.8c0,6.4,3.1,12.4,8.3,16h-16.9c-5,0-7.5-3.2-7.5-9.6
			v-55.3h-9V666c0.2,5-1.4,9.9-4.7,13.7c-5.9,6.4-16,6.9-22.4,0.9c-0.3-0.3-0.6-0.6-0.9-0.9c-3.3-3.8-4.9-8.7-4.7-13.7v-31.7h-9.1
			V666c-0.3,7.4,2.4,14.6,7.4,20c9.5,10,25.3,10.4,35.3,1c4.9-4.8,7.8-11.2,8.1-18c1.9,2.2,4.7,3.5,7.6,3.3h65.5
			c4.9,0.2,9.5-2.3,12.1-6.5c2.5,4.2,7.1,6.7,12,6.5h3.6c4.9,0.2,9.5-2.3,12.1-6.5c2.5,4.2,7.1,6.7,12,6.5h3.4
			c4.6,0.2,9.1-1.7,12.2-5.1c3.1-3.8,4.7-8.7,4.5-13.6v-55.3h-9.1V653.6z M295,663.2h-14.6c-8.1,0-14.6-6.5-14.6-14.5c0,0,0,0,0-0.1
			c-0.1-3.9,1.5-7.7,4.3-10.4c5.7-5.7,14.9-5.8,20.7-0.1c0,0,0,0,0,0c2.8,2.7,4.3,6.5,4.3,10.4L295,663.2z M497,624.8
			c-13.1,0-23.7,10.6-23.7,23.7c0,5.8,2.9,11.3,7.7,14.6h-15.1c-4.9,0-7.4-3.2-7.4-9.6v-28.8h-22.6c-13.1-0.1-23.8,10.4-24,23.5
			c-0.1,13.1,10.4,23.8,23.5,24c0.2,0,0.3,0,0.5,0c6.9,0.3,13.4-3.1,17.1-8.9c1.7,5.7,7,9.4,12.9,8.9H497
			c13.1-0.1,23.6-10.9,23.5-24C520.4,635.4,509.9,624.9,497,624.8z M449.4,648.5c0.2,3.9-1.2,7.7-3.8,10.6c-2.5,2.6-6,4.1-9.6,4
			c-8.1,0-14.6-6.5-14.6-14.5c0,0,0,0,0-0.1c-0.1-3.9,1.5-7.7,4.3-10.4c2.7-2.8,6.4-4.4,10.3-4.3h13.5L449.4,648.5z M507.4,658.9
			c-5.7,5.7-15,5.7-20.7,0c-2.7-2.7-4.3-6.5-4.3-10.4c-0.1-3.9,1.5-7.7,4.3-10.4c5.6-5.7,14.9-5.8,20.6-0.1c0,0,0.1,0.1,0.1,0.1
			c2.8,2.7,4.3,6.5,4.3,10.4C511.7,652.4,510.2,656.2,507.4,658.9z M627.3,653.6c0,6.4-2.5,9.6-7.5,9.6h-23.4c2.7-2.9,4.7-5,5.8-6.4
			c1.2-1.4,2.7-3.3,4.6-5.7c1.6-2,3-4.3,4-6.7c0.8-1.9,1.2-4,1.2-6c0-9-6.3-13.5-19-13.5h-35.7v15.9l15.1,22.5h-22.7
			c-5,0-7.5-3.2-7.5-9.6v-55.3h-9v55.3c-0.2,4.9,1.3,9.7,4.4,13.6c3,3.5,7.5,5.3,12.1,5.1h70.1c4.6,0.2,9.1-1.7,12.1-5.1
			c3.1-3.8,4.7-8.7,4.5-13.6v-55.3h-9.1L627.3,653.6z M592.5,656c-0.7,0.8-1.8,2-3.3,3.6c-1.5,1.6-2.6,2.7-3.3,3.5h-2.8l-15.2-23
			v-6.3h21.9c3.1-0.2,6.2,0.3,9.1,1.5c2.1,1.1,3.2,3.4,2.9,5.7c0,0.9-0.2,1.7-0.4,2.6c-0.4,1-0.8,2-1.4,2.9
			c-0.7,1.1-1.3,2.1-1.9,2.9c-0.8,1.2-1.7,2.3-2.7,3.3C594.2,654.1,593.3,655.2,592.5,656z M652.3,598.2h9v74h-9V598.2z
			 M873.4,653.6c0,6.4-2.5,9.6-7.5,9.6h-9.8v-14.9c0.1-6.3-2.4-12.4-7-16.8c-4.5-4.5-10.6-7-16.9-6.9h-19.6v38.6h-13.7
			c-5,0-7.5-3.2-7.5-9.6v-28.8h-9.1v28.8c0,6.4-2.5,9.6-7.4,9.6h-6.5c-4.9,0-7.4-3.2-7.4-9.6v-28.8h-9.1v28.8c0,6.4-2.5,9.6-7.5,9.6
			h-3.4c-4.9,0-7.4-3.2-7.4-9.6v-28.8h-22.6c-13.1-0.1-23.8,10.4-24,23.5c-0.1,13.1,10.4,23.8,23.5,24c0.2,0,0.3,0,0.5,0
			c6.9,0.3,13.4-3.1,17.1-8.9c1.7,5.7,7,9.4,12.9,8.9h3.4c4.9,0.3,9.6-2.2,12.1-6.5c2.5,4.2,7.1,6.7,12,6.5h6.5
			c4.9,0.3,9.5-2.2,12-6.5c2.5,4.2,7.1,6.7,12.1,6.5h13.8c0.1,6.3,2.4,12.5,6.5,17.2c3.9,4.1,9.4,6.4,15.1,6.2
			c5.7,0.1,11.2-2.1,15.2-6.3c4.2-4.7,6.6-10.8,6.5-17.1h9.9c4.6,0.2,9.1-1.7,12.2-5.1c3.1-3.8,4.7-8.7,4.5-13.6v-55.3h-9.1
			L873.4,653.6z M724.4,648.5c0.2,3.9-1.2,7.7-3.8,10.6c-2.5,2.6-6,4.1-9.6,4c-8.1,0-14.6-6.5-14.6-14.5c0,0,0,0,0-0.1
			c-0.1-3.9,1.5-7.7,4.3-10.4c2.7-2.8,6.4-4.4,10.3-4.3h13.5V648.5z M847,671.7c0.2,4-1.1,8-3.7,11.2c-2.2,2.7-5.6,4.2-9.1,4.1
			c-3.4,0.1-6.6-1.2-8.8-3.7c-2.4-3.1-3.8-7-3.8-11h7.9c3.6,0.1,7.1-0.7,10.4-2.2c2.9-1.3,5.3-3.4,7.1-5.9L847,671.7z M842.6,659
			c-3.1,2.8-7.3,4.3-11.5,4.1h-9.5v-29.6h10.6c8.1,0,14.8,6.5,14.8,14.7c0,0,0,0,0,0C847.2,652.3,845.6,656.3,842.6,659L842.6,659z
			 M907.4,598.2v74h-9v-74H907.4z M710.1,618.4h-9.8v-9.8h9.8V618.4z M724.4,618.4h-9.8v-9.8h9.8V618.4z M774.8,681.4h9.8v9.8h-9.8
			L774.8,681.4z M789.2,681.4h9.8v9.8h-9.8V681.4z M435,618.4h-9.8v-9.8h9.8V618.4z M449.4,618.4h-9.8v-9.8h9.8V618.4z M279.4,618.4
			h-9.8v-9.8h9.8L279.4,618.4z M293.8,618.4H284v-9.8h9.8L293.8,618.4z M331.2,618.4h-9.8v-9.8h9.8V618.4z"/>
		<path id="Path_30" class="st1" d="M764.6,618.4h-17.3v-4h4c-1.2-1.3-1.8-3-1.8-4.7c0-2,0.8-3.9,2.2-5.3c1.5-1.4,3.5-2.2,5.6-2.1
			c2.4,0,4.7,1,6.3,2.8l-2.8,2.7c-0.8-1.1-2.1-1.7-3.4-1.6c-1.1,0-2.1,0.4-2.9,1.1c-0.8,0.7-1.3,1.8-1.2,2.8c0,1.1,0.4,2.2,1.2,3
			c0.8,0.8,1.8,1.3,2.9,1.3h7.1L764.6,618.4z"/>
	</g>
	
		<linearGradient id="Path_31_00000101086483487240910670000002303743381592586126_" gradientUnits="userSpaceOnUse" x1="13.0683" y1="1084.3262" x2="11.0281" y2="1086.2788" gradientTransform="matrix(145.969 0 0 -97.639 -1423.3087 106418.5547)">
		<stop  offset="0" style="stop-color:#FECF08"/>
		<stop  offset="0.169" style="stop-color:#D5CB2C"/>
		<stop  offset="0.459" style="stop-color:#95C666"/>
		<stop  offset="0.704" style="stop-color:#67C290"/>
		<stop  offset="0.892" style="stop-color:#4ABFAA"/>
		<stop  offset="1" style="stop-color:#40BFB4"/>
	</linearGradient>
	<path id="Path_31" style="fill:url(#Path_31_00000101086483487240910670000002303743381592586126_);" d="M377.1,390l127.2,81.8
		c3.5,2.2,5.6,6.1,5.6,10.2v58.1c0,6.7-5.4,12.2-12.2,12.2h-11.1L258.1,445.6L377.1,390z M190.4,413.9v-75.3h56.4v15h6.7v-15h43.7
		l73.2,47.1l-120.2,56.2L190.4,413.9z M273.4,407.7l-18-20.6c-0.6-0.7-1.6-1.2-2.5-1.2h-5.3c-1,0-1.9,0.4-2.5,1.2l-18,20.6l5.1,4.4
		l14.8-16.9V427h6.7v-31.8l14.8,16.9L273.4,407.7z M226.9,354l13.2,12.9c0.6,0.6,1.5,1,2.4,1h15.4c0.9,0,1.7-0.3,2.4-1l13.2-12.9
		l-4.7-4.8l-12.2,11.9h-12.6l-12.2-11.9L226.9,354z M211.4,375l22.9,3.9l-21.7,16.8l4.1,5.3l26.9-20.8h13.1l26.9,20.8l4.1-5.3
		L266,378.9l22.9-3.9l-1.1-6.6l-30.2,5.2h-14.8l-30.2-5.2L211.4,375z M250.2,449.3l-24.8,11.6l205.3,90.4c1.5,0.7,3.2,1,4.9,1h35.2
		L250.2,449.3z M190.4,421.4v24.1l26.8,11.8l25.1-11.7L190.4,421.4z"/>
</g>
</svg>
